<?xml version="1.0" encoding="UTF-8"?>
<svg id="Layer_1" xmlns="http://www.w3.org/2000/svg" xmlns:xlink="http://www.w3.org/1999/xlink" version="1.1" viewBox="0 0 945.6 392.7">
  <!-- Generator: Adobe Illustrator 29.0.1, SVG Export Plug-In . SVG Version: 2.1.0 Build 192)  -->
  <defs>
    <style>
      .st0 {
        fill: none;
      }

      .st1 {
        isolation: isolate;
      }

      .st2 {
        fill: #ed2024;
      }

      .st3 {
        clip-path: url(#clippath);
      }
    </style>
    <clipPath id="clippath">
      <rect class="st0" width="945.6" height="392.7"/>
    </clipPath>
  </defs>
  <g class="st3">
    <g>
      <path d="M89.8,151.1c0,1,.2,1.8.8,2.2.5.5,1.1.6,1.8.6v3c-6.6.7-13.3,1.4-19.9,2.1v-3.1c1.9-.2,2.8-1.3,2.8-3.4v-78.2c0-2.1-.9-3.1-2.8-3.1v-3.1h20v3c-.7,0-1.3.3-1.8.8-.5.5-.8,1.3-.8,2.3,0,10.7,0,21.5,0,32.2,8.8-9.6,17.7-18.9,26.5-27.9,1.2-1.3,2.1-2.4,2.8-3.2.7-.8,1-1.5,1-2.1s-.2-1.3-.6-1.6-.8-.5-1.3-.5v-2.9h26.9v2.9c-1.5,0-3.1.8-4.6,2.4-9.8,9.8-19.7,20-29.5,30.4,8.9,13.1,17.9,25.7,26.8,38,1.1,1.5,2.4,3,3.9,4.4,1.5,1.4,3,2.3,4.4,2.8v2.9c-7.9.7-15.8,1.4-23.7,2.1v-2.9c1.1-.1,1.7-.5,1.7-1.3s-.6-1.7-1.8-3.4c-7.3-10.1-14.6-20.5-21.8-31.1-3.6,3.8-7.2,7.7-10.8,11.6,0,8.1,0,16.1,0,24.2"/>
      <path d="M165.1,147.5c2.2-.2,3.3-1.2,3.3-3.1,0-23.6.1-47.2.2-70.7,0-1.9-1.1-2.8-3.3-2.8v-2.8h21.3v2.8c-2.2,0-3.3.9-3.3,2.8,0,23.2-.1,46.5-.2,69.7,0,1.8,1.1,2.7,3.3,2.5v2.8c-7.1.5-14.2,1.1-21.2,1.7v-2.8"/>
      <path d="M274.9,145.6c0-1.4-.4-2.2-1.2-2.4-.8-.1-1.9-.2-3.1-.1-20.3,1.1-40.6,2.3-60.9,3.8v-2.7c2.6-.2,3.8-1.1,3.9-2.9,0-22.6.1-45.2.2-67.8,0-1.8-1.3-2.7-3.8-2.7v-2.7h22v2.7c-2.4,0-3.6.9-3.6,2.7,0,19.6-.1,39.2-.2,58.7,14.2-.8,28.3-1.4,42.5-2.1,1.3,0,2.3-.4,3.1-1.1.8-.7,1.2-1.6,1.2-2.8.8,0,1.5,0,2.3,0,0,6.5,0,13,0,19.5-.8,0-1.5,0-2.3.1"/>
      <path d="M338.4,68.1c4.7,0,9.1.7,13.1,2.2s7.6,3.6,10.5,6.6c3,2.9,5.3,6.6,7,11.1,1.7,4.4,2.5,9.7,2.5,15.7s-.9,11.3-2.6,15.8c-1.7,4.5-4.1,8.2-7.1,11.3-3,3-6.5,5.3-10.6,6.9s-8.5,2.5-13.1,2.6c-14.2.5-28.4,1.1-42.5,1.8v-2.5c2,0,3-1,3-2.6,0-21.2.1-42.4.2-63.6,0-1.7-1-2.5-2.9-2.5v-2.5h42.5ZM333.1,128.5c4-.1,7.5-.6,10.5-1.4,3-.8,5.5-2.2,7.4-4.1s3.5-4.4,4.4-7.5c1-3.1,1.5-7,1.5-11.7s-.5-8.6-1.5-11.7-2.4-5.5-4.4-7.4c-2-1.8-4.4-3.1-7.4-3.8-3-.7-6.5-1.1-10.5-1-6.6,0-13.2,0-19.9.1,0,16.4,0,32.8-.1,49.2,6.6-.2,13.2-.4,19.9-.7"/>
      <path d="M437.1,68.1c4.1,0,7.8.4,11.1,1.1,3.3.8,6.2,1.9,8.6,3.6,2.4,1.6,4.2,3.8,5.5,6.4s1.9,5.8,1.9,9.6c0,5.8-1.7,10.3-5,13.4s-7.8,5.2-13.5,6.3c5.7,8.4,11.4,16.7,17,25.1.6.9,1.3,1.4,2.1,1.6.8.2,1.6.3,2.2.3v2.4c-8,0-16,0-24,.1v-2.4c.8,0,1.4-.1,2-.4s.8-.6.8-1.1c0-.4-.2-.9-.5-1.5s-.9-1.3-1.5-2.3c-4.7-6.9-9.4-13.7-14.1-20.6-6.1,0-12.2,0-18.3.2,0,7.9,0,15.8,0,23.7,0,.8.3,1.4.8,1.8.5.4,1.6.6,3,.6v2.4c-7.4.1-14.8.2-22.2.4v-2.4c2.5,0,3.7-.9,3.7-2.5,0-20.3,0-40.5,0-60.8,0-1.6-1.2-2.4-3.7-2.4v-2.4h43.8,0ZM433.7,99.1c3.1,0,5.6-.3,7.7-.8,2-.5,3.7-1.2,4.9-2.1,1.2-.9,2-1.9,2.6-3.1.5-1.2.8-2.5.8-3.9s-.3-2.7-.8-3.9c-.5-1.2-1.4-2.2-2.6-3.1-1.2-.9-2.8-1.6-4.9-2.1-2-.5-4.6-.7-7.7-.7-7.4,0-14.8,0-22.2,0,0,6.6,0,13.2,0,19.7,7.4,0,14.8,0,22.2-.1"/>
      <path d="M507.2,70.4c-1.9,0-2.8.8-2.8,2.4,0,13.3,0,26.5,0,39.8,0,5.6,1.7,9.4,5.2,11.5,3.5,2.1,8.5,3.2,15.2,3.3s11.7-.9,15.2-2.9c3.5-2,5.2-5.9,5.2-11.5,0-13.4,0-26.8,0-40.1,0-1.6-1.3-2.4-3.8-2.4v-2.4h20.5v2.4c-2,0-3.1.8-3.1,2.4,0,13.2,0,26.4,0,39.6,0,5.3-.7,9.6-2.2,13.1-1.5,3.4-3.6,6.1-6.5,8.1-2.9,2-6.5,3.3-10.8,3.9s-9.3.9-14.9.8-10.6-.5-14.9-1.2-7.9-2.1-10.8-4.2-5.1-4.8-6.5-8.2c-1.5-3.4-2.2-7.7-2.2-12.9,0-13,0-26.1,0-39.1,0-1.6-1.2-2.4-3.6-2.4v-2.4h21v2.4"/>
      <path d="M585.2,136.9c.7,0,1.3-.2,1.8-.6.5-.4.8-1,.8-1.8,0-20.6,0-41.3-.1-61.9,0-.8-.3-1.4-.8-1.7s-1.1-.5-1.8-.5v-2.4h24v2.5c-.4,0-.9.1-1.3.4-.5.3-.7.7-.7,1.2s.2,1.1.5,1.8c.3.7.7,1.5,1.2,2.3,6.1,11.9,12.3,23.9,18.4,36.1,6.1-11.7,12.2-23.5,18.3-35.5.6-1.2,1-2.2,1.3-2.9.3-.7.4-1.3.4-1.9,0-1-.6-1.5-1.7-1.5v-2.5h23.7v2.6c-.7,0-1.3.2-1.8.5-.5.3-.8.9-.8,1.8,0,21.6.1,43.1.2,64.7,0,.9.3,1.5.8,1.9.5.4,1.1.7,1.8.7v2.6c-6.7-.4-13.4-.7-20.1-1v-2.5c2.3.1,3.5-.7,3.5-2.4,0-15.6,0-31.1-.1-46.7h-.3c-8.5,17.1-17.1,34-25.6,50.6-.1,0-.3,0-.4,0-8.5-17.4-16.9-34.4-25.4-51.3h-.3c0,15.2,0,30.3.1,45.5,0,1.6,1.2,2.5,3.6,2.6v2.5c-6.4-.2-12.8-.4-19.2-.6v-2.4"/>
      <path d="M695.2,141.6c.7,0,1.3-.1,1.8-.6.5-.4.8-1,.8-1.9,0-22.1-.1-44.1-.2-66.2,0-.9-.3-1.5-.8-1.8s-1.1-.5-1.8-.5v-2.6h24v2.7c-.4,0-.9.1-1.3.4-.5.3-.7.7-.7,1.3s.2,1.1.5,1.9c.3.8.7,1.6,1.2,2.5,6.1,12.8,12.3,25.9,18.4,39.1,6.1-12.6,12.2-25.4,18.3-38.4.6-1.3,1-2.4,1.3-3.1.3-.8.4-1.4.4-2.1,0-1.1-.6-1.7-1.7-1.7v-2.8h23.7v2.8c-.7,0-1.3.2-1.8.5-.5.4-.8,1-.8,1.9,0,23.7.1,47.3.2,71,0,.9.3,1.6.8,2.2.5.5,1.1.8,1.8.8v2.8c-6.7-.5-13.4-1.1-20.1-1.6v-2.8c2.3.2,3.5-.7,3.5-2.5,0-17,0-34-.1-51h-.3c-8.5,18.6-17.1,36.8-25.6,54.6-.1,0-.3,0-.4,0-8.5-19-16.9-37.6-25.4-55.8h-.3c0,16.3,0,32.6.1,48.9,0,1.8,1.2,2.7,3.6,2.9v2.6c-6.4-.4-12.8-.8-19.2-1.2v-2.6"/>
      <path d="M824.5,68.1v2.9c-.8,0-1.5.1-2.2.4-.7.3-1,.9-1,2s.6,2.2,1.9,4.7c1.2,2.5,2.7,5.3,4.4,8.4,1.7,3.2,3.4,6.4,5.2,9.8,1.8,3.4,3.2,6.2,4.4,8.6,5-8.7,10-17.5,15-26.5.7-1.3,1.2-2.4,1.7-3.2.4-.8.6-1.5.6-2.2s-.4-1.3-1.2-1.5c-.8-.2-1.6-.3-2.2-.3v-3h22.4v3.1c-.7,0-1.3,0-1.9.2s-1.2.6-1.9,1.2-1.3,1.5-2,2.7-1.6,2.8-2.6,4.9c-7.2,13.7-14.5,27-21.7,40,0,9.9,0,19.8,0,29.7,0,2,1,3.1,2.9,3.3v3c-6.7-.7-13.5-1.3-20.2-1.9v-2.9c.8,0,1.4-.1,1.9-.6s.8-1.2.8-2.1c0-9.8,0-19.5,0-29.2-8.2-15.2-16.5-30.1-24.8-44.6-.6-1.1-1.5-2-2.8-2.7s-2.3-1.1-3.1-1.1v-2.9h26.6Z"/>
      <path d="M326,203.3c0,.5-.1.9-.4,1.1-.3.2-.7.3-1.4.3h-17.3v-8.1h10.4c.8,0,1.2.1,1.4.2,0,0,.3.2.3.8v.4h1.5v-7.3h-1.5v.4c0,.5-.2.7-.4.8-.3.2-.8.3-1.4.3h-10.3v-7.5h16.1c.9,0,1.2.2,1.4.3.2.2.3.4.3.8v.4h1.5v-6.9h-1.5v.4c0,.4-.1.4-.2.5,0,0-.3.2-1.5.2h-22.6v1.5h.4c.3,0,.6,0,.7.2.1.1.2.4.2.7v24.1c0,.3,0,.5-.2.7,0,.1-.3.2-.7.2h-.4v1.5h24.2c.9,0,1.4.2,1.4.6v.4h1.5v-7.2h-1.5v.4h0Z"/>
      <path d="M377.3,192.5c-1.5-.5-3.3-.8-5.1-.8-1.8,0-3.5,0-5.2,0s-1.9,0-2.8-.1c-.8,0-1.6-.2-2.2-.4-.6-.2-1-.5-1.4-.8-.3-.3-.4-.8-.4-1.3,0-1.3.8-2.4,2.3-3.2,1.6-.9,3.8-1.3,6.6-1.3s2.4.1,3.4.3c1,.2,2,.5,2.7.8.7.3,1.3.6,1.7,1,.5.4.5.6.5.6,0,.4,0,.5,0,.6v.3c-.1,0,1.2.8,1.2.8l3.3-6.9-1.3-.6-.2.2c-.2.2-.3.3-.5.4,0,0-.2.1-.6.1s-.7-.1-1.2-.3c-.5-.2-1.2-.4-2-.7-.8-.2-1.8-.5-2.9-.7-1.1-.2-2.5-.3-4-.3s-3.8.2-5.5.6c-1.7.4-3.2,1-4.4,1.8-1.3.8-2.3,1.7-3,2.8-.8,1.1-1.1,2.4-1.1,3.7,0,2.1.5,3.8,1.6,4.9,1,1.1,2.4,1.9,4,2.3,1.5.4,3.3.7,5.1.7,1.8,0,3.5,0,5.2,0s1.9,0,2.7.1c.8.1,1.5.3,2.2.5.6.2,1,.6,1.4,1,.3.4.5.9.5,1.6,0,1.4-.7,2.5-2.1,3.5-1.4.9-3.8,1.4-7,1.4s-2.5-.1-3.8-.4c-1.2-.3-2.4-.6-3.3-1.1-1-.4-1.8-.9-2.3-1.4-.5-.4-.8-.9-.8-1.2s0-.3.1-.5l.2-.4-1.4-.8-3.2,6.9,1.2.7.2-.3c.3-.3.6-.5.8-.5s.6,0,1.3.4c.6.3,1.5.7,2.5,1.1,1,.4,2.2.8,3.6,1.1,1.4.3,3.1.5,5,.5s4.3-.2,6.1-.7c1.8-.5,3.2-1.1,4.5-2,1.2-.9,2.1-1.8,2.8-2.9.6-1.1.9-2.3.9-3.5,0-2.2-.5-3.9-1.6-5.1-1-1.1-2.4-2-4-2.5"/>
      <path d="M434.8,179.3c0,.3,0,.9-1.4.9h-22.3c-1.4,0-1.4-.6-1.4-.9v-.4h-1.5v7.1h1.5v-.4c0-.3,0-.6.2-.7.1,0,.4-.2,1.2-.2h8.5v22c0,.3,0,.5-.2.7,0,.1-.3.2-.7.2h-.4v1.5h7.9v-1.5h-.4c-.3,0-.6,0-.7-.2-.1-.1-.2-.4-.2-.7v-22h8.5c.8,0,1.1.1,1.2.2.2.1.2.5.2.7v.4h1.5v-7.1h-1.5v.4h0Z"/>
      <path d="M487.8,207.5c0,0-.2,0-.3-.2-.1-.1-.3-.4-.4-.7l-10.9-22.6c-.3-.6-.5-1.1-.7-1.4-.2-.4-.2-.5-.2-.6s0-.2.4-.2h.4v-1.5h-8.6v1.5h.4c.5,0,.5.1.5.2s0,.2-.2.5l-10.2,22.8c-.3.6-.5,1-.7,1.3-.2.3-.3.5-.4.7,0,0-.1.1-.2.2-.1,0-.3,0-.5,0h-.4v1.5h7.4v-1.5h-.4c-.3,0-.5,0-.5-.1s0-.3.2-.7l2.2-5.1h14.4l1.9,4,.2.4c.2.4.3.7.4.8,0,.1.1.3.1.4s0,.2,0,.2c0,0-.1,0-.6,0h-.4v1.5h8.2v-1.5h-.4c-.3,0-.5,0-.7,0M477,197.2h-10.1l4.9-11,5.3,11h0Z"/>
      <path d="M535,179.3c0,.3,0,.9-1.4.9h-22.3c-1.4,0-1.4-.6-1.4-.9v-.4h-1.5v7.1h1.5v-.4c0-.3,0-.6.2-.7.1,0,.4-.2,1.2-.2h8.5v22c0,.3,0,.5-.2.7,0,.1-.3.2-.7.2h-.4v1.5h7.9v-1.5h-.4c-.3,0-.6,0-.7-.2-.1-.1-.2-.4-.2-.7v-22h8.5c.8,0,1.1.1,1.2.2.2.1.2.5.2.7v.4h1.5v-7.1h-1.5v.4h0Z"/>
      <path d="M588.8,203.3c0,.5-.1.9-.4,1.1-.3.2-.7.3-1.4.3h-17.3v-8.1h10.4c.8,0,1.2.1,1.3.2,0,0,.3.2.3.8v.4h1.5v-7.3h-1.5v.4c0,.5-.2.7-.4.8-.3.2-.8.3-1.4.3h-10.3v-7.5h16.1c.9,0,1.2.2,1.3.3.2.2.3.4.3.8v.4h1.5v-6.9h-1.5v.4c0,.4-.1.4-.2.5,0,0-.3.2-1.5.2h-22.6v1.5h.4c.3,0,.6,0,.7.2.1.1.2.4.2.7v24.1c0,.3,0,.5-.2.7,0,.1-.3.2-.7.2h-.4v1.5h24.2c.9,0,1.4.2,1.4.6v.4h1.5v-7.2h-1.5v.4h0Z"/>
      <path d="M644,195h0c-1-1.1-2.4-2-4-2.5-1.5-.5-3.3-.8-5.1-.8-1.8,0-3.5,0-5.2,0s-1.9,0-2.8-.1c-.8,0-1.6-.2-2.2-.4-.6-.2-1-.5-1.4-.8-.3-.3-.4-.8-.4-1.3,0-1.3.8-2.4,2.3-3.2,1.6-.9,3.8-1.3,6.6-1.3s2.4.1,3.4.3c1,.2,2,.5,2.7.8.7.3,1.3.6,1.7,1,.5.4.5.6.5.6,0,.4,0,.5,0,.6v.3c0,0,1.2.8,1.2.8l3.3-6.9-1.3-.6-.2.2c-.2.2-.3.3-.5.4,0,0-.2.1-.6.1s-.7-.1-1.2-.3c-.5-.2-1.2-.4-2-.7s-1.8-.5-2.9-.7c-1.1-.2-2.5-.3-4-.3s-3.8.2-5.5.6c-1.7.4-3.2,1-4.4,1.8-1.3.8-2.3,1.7-3,2.8-.8,1.1-1.1,2.4-1.1,3.7,0,2.1.5,3.8,1.6,4.9,1,1.1,2.4,1.9,4,2.3,1.5.4,3.3.7,5.1.7,1.8,0,3.5,0,5.2,0s1.9,0,2.7.1c.8.1,1.5.3,2.2.5.6.2,1,.6,1.3,1,.3.4.5.9.5,1.6,0,1.4-.7,2.5-2.1,3.5-1.4.9-3.8,1.4-7,1.4s-2.5-.1-3.8-.4c-1.2-.3-2.4-.6-3.3-1.1-1-.4-1.8-.9-2.3-1.4-.5-.4-.8-.9-.8-1.2s0-.3.1-.5l.2-.4-1.4-.8-3.2,6.9,1.2.7.2-.3c.3-.3.6-.5.8-.5s.6,0,1.3.4c.7.3,1.5.7,2.5,1.1,1,.4,2.2.8,3.7,1.1,1.4.3,3.1.5,5,.5s4.3-.2,6.1-.7c1.8-.5,3.2-1.1,4.5-2,1.2-.9,2.1-1.8,2.8-2.9.6-1.1.9-2.3.9-3.5,0-2.2-.5-3.9-1.6-5.1"/>
      <path d="M236.3,323.8c0-1.4-.4-2.3-1.2-2.5-.8-.2-1.9-.3-3.1-.3-20.3,0-40.6-.1-60.9-.2v-2.8c2.6,0,3.8-.9,3.8-2.7,0-23.2-.1-46.5-.2-69.7,0-1.8-1.3-2.9-3.8-3.1v-2.8c7.3.7,14.7,1.3,22,1.9v2.7c-2.4-.2-3.6.6-3.6,2.4,0,20.1.1,40.1.2,60.2,14.2.2,28.3.5,42.5.7,1.3,0,2.3-.3,3.1-1,.8-.7,1.2-1.6,1.2-2.7.8,0,1.5,0,2.3,0,0,6.6,0,13.2,0,19.8h-2.3"/>
      <path d="M317.1,264.5c0-1-.4-1.8-1.1-2.3s-2-.8-3.8-.9c-13.8-.6-27.7-1.2-41.5-1.9,0,5.8,0,11.6,0,17.4,8.4.3,16.7.6,25.1.9,1.7,0,3-.1,4-.6s1.4-1.8,1.4-3.9c.8,0,1.5,0,2.3,0,0,7.1,0,14.2,0,21.4-.8,0-1.5,0-2.3,0,0-2.1-.5-3.5-1.4-4.1-.9-.6-2.3-.9-4-1-8.4-.2-16.7-.4-25.1-.7,0,6.5,0,12.9,0,19.4,14.3.2,28.5.3,42.8.5,1.3,0,2.3-.3,3.1-.9.8-.6,1.2-1.5,1.2-2.6.8,0,1.5,0,2.3,0,0,6.2,0,12.4,0,18.5h-2.3c0-1.4-.4-2.1-1.2-2.3-.8-.2-1.9-.3-3.1-.3-19.9,0-39.8,0-59.7-.1v-2.6c.6,0,1.1-.2,1.6-.6s.7-1.1.7-1.9c0-21.5-.2-43-.2-64.4,0-.9-.2-1.5-.7-2-.5-.5-1-.7-1.6-.7v-2.6c19.5,1.3,38.9,2.4,58.4,3.4,1.8,0,3-.1,3.8-.7.7-.6,1.1-1.3,1.1-2.3.8,0,1.5,0,2.3.1,0,6,0,11.9,0,17.9-.8,0-1.5,0-2.3,0"/>
      <path d="M340.3,318.9c1.6,0,2.4-.8,2.4-2.4l-.2-60.7c0-1.6-.8-2.4-2.4-2.5v-2.4c7.3.3,14.6.6,21.9.8v2.4c-.7,0-1,.4-1,1.3,0,.7.9,2,2.6,3.8,12.3,13.5,24.6,26.7,36.9,39.8,0-13.8,0-27.6,0-41.5,0-1.6-1.1-2.4-3.3-2.4v-2.4c6.5.1,12.9.3,19.4.4v2.3c-1.6,0-2.4.7-2.4,2.3,0,19.6,0,39.3,0,59,0,1.6.8,2.3,2.4,2.3v2.3c-6.9,0-13.8,0-20.8,0v-2.4c1.1,0,1.7-.4,1.7-1.2s-.7-1.6-2-3c-13-13.9-26.1-28-39.2-42.3,0,14.7,0,29.4.1,44,0,1.6,1,2.4,3,2.4v2.4c-6.3,0-12.6,0-19,0v-2.4"/>
      <path d="M455.4,316.7c0,.8.3,1.4.8,1.7.5.4,1.1.6,1.8.6v2.3h-20v-2.3c1.9,0,2.8-.8,2.8-2.3,0-19.5,0-39.1,0-58.6,0-1.5-.9-2.3-2.8-2.4v-2.3c6.7,0,13.3.1,20,.1v2.3c-.7,0-1.3.2-1.8.6-.5.4-.8,1-.8,1.7,0,8.2,0,16.3,0,24.5,8.8-7,17.7-14,26.5-21,1.2-1,2.1-1.9,2.8-2.5.7-.6,1-1.2,1-1.6s-.2-1-.6-1.3c-.4-.3-.8-.4-1.4-.4v-2.3c9,0,18-.1,26.9-.2v2.3c-1.5,0-3.1.7-4.6,2-9.8,8-19.7,15.9-29.5,23.8,9,10.4,17.9,20.9,26.9,31.3,1.1,1.3,2.4,2.6,3.9,3.8s3,2.1,4.4,2.5v2.3h-23.7v-2.3c1.1,0,1.7-.3,1.7-.9s-.6-1.4-1.8-2.8c-7.3-8.5-14.6-16.9-21.9-25.4-3.6,2.8-7.2,5.6-10.8,8.4v18.5"/>
      <path d="M527,319c2.2,0,3.3-.8,3.3-2.3,0-19.6,0-39.3,0-58.9,0-1.6-1.1-2.3-3.3-2.3v-2.3c7.1-.1,14.2-.3,21.3-.4v2.4c-2.2,0-3.3.9-3.3,2.4,0,19.7,0,39.5-.1,59.2,0,1.6,1.1,2.4,3.3,2.3v2.4c-7.1,0-14.2,0-21.3,0v-2.3"/>
      <path d="M570,318.9c1.6,0,2.4-.8,2.4-2.4,0-19.9,0-39.9.2-59.8,0-1.6-.8-2.4-2.4-2.3v-2.4c7.3-.2,14.6-.4,21.9-.7v2.4c-.7,0-1,.5-1,1.4s.8,1.9,2.5,3.6c12.2,12.8,24.5,25.8,36.7,39.1,0-14.4,0-28.8.2-43.2,0-1.6-1.1-2.4-3.3-2.3v-2.4c6.5-.3,12.9-.6,19.3-1v2.5c-1.6,0-2.4.9-2.4,2.6,0,20.7-.2,41.5-.2,62.2,0,1.6.8,2.5,2.4,2.5v2.5c-6.9,0-13.8,0-20.8,0v-2.4c1.1,0,1.7-.4,1.7-1.2s-.7-1.7-2-3.1c-13-14.3-26-28.2-39-41.9,0,14.7,0,29.3-.1,44,0,1.6,1,2.4,2.9,2.4v2.4c-6.3,0-12.6,0-19,0v-2.4"/>
      <path d="M710.5,245c4.7-.3,9.1.1,13.1,1.4,4,1.3,7.6,3.4,10.5,6.4,3,3,5.3,6.9,7,11.7s2.5,10.6,2.5,17.2c0,6.7-.9,12.5-2.6,17.5-1.7,5-4.1,9.1-7.1,12.3-3,3.2-6.5,5.6-10.6,7.2s-8.4,2.4-13.1,2.4c-14.2,0-28.3,0-42.5.1,0-.8,0-1.7,0-2.5,2,0,3-.9,3-2.5,0-21.1.2-42.3.2-63.5,0-1.7-1-2.5-2.9-2.4v-2.5c14.2-.8,28.3-1.8,42.5-2.8M705.1,308.7c4,0,7.5-.5,10.5-1.3,3-.8,5.5-2.2,7.4-4.3,2-2,3.5-4.7,4.5-8.1,1-3.4,1.5-7.6,1.5-12.7s-.5-9.3-1.4-12.6-2.4-5.9-4.4-7.8c-2-1.9-4.4-3.1-7.4-3.7-3-.6-6.5-.8-10.5-.5-6.6.4-13.2.8-19.8,1.1,0,16.7-.1,33.4-.2,50.1,6.6,0,13.2-.2,19.8-.3"/>
      <path d="M761.5,318.2c2.2,0,3.3-.9,3.3-2.8,0-23.1.1-46.2.2-69.3,0-1.8-1.1-2.6-3.3-2.5v-2.7c7.1-.6,14.2-1.3,21.2-1.9v2.8c-2.2.2-3.3,1.2-3.3,3.1,0,23.5-.1,46.9-.2,70.4,0,1.9,1.1,2.8,3.3,2.8v2.8c-7.1,0-14.2,0-21.3,0v-2.7"/>
      <path d="M867.5,248.6c0-1.3-.4-2.2-1.1-2.7-.7-.6-2-.8-3.8-.6-13.8,1.4-27.6,2.7-41.4,3.9,0,6.7,0,13.4,0,20.2,8.3-.5,16.7-1.1,25.1-1.7,1.7-.1,3-.5,4-1.2.9-.7,1.4-2.3,1.4-4.9.8,0,1.5-.1,2.3-.2,0,8.8,0,17.6,0,26.4-.8,0-1.5,0-2.3.1,0-2.6-.5-4.2-1.4-4.9-.9-.7-2.3-1-4-.9-8.3.4-16.7.9-25.1,1.2,0,7.5,0,15,0,22.4,14.2-.3,28.5-.6,42.7-1,1.3,0,2.3-.5,3.1-1.3.8-.8,1.2-1.9,1.2-3.3.8,0,1.5,0,2.3,0v23.7h-2.3c0-1.7-.4-2.7-1.2-2.9-.8-.2-1.9-.3-3.1-.3-19.9,0-39.8.2-59.7.2v-2.9c.6,0,1.1-.2,1.6-.7s.7-1.2.7-2.2c0-24.2,0-48.4.2-72.6,0-1-.2-1.7-.7-2.1-.5-.4-1-.6-1.6-.6v-2.9c19.4-2,38.8-4.1,58.2-6.4,1.8-.2,3-.7,3.8-1.6.7-.8,1.1-1.9,1.1-3.1.8-.1,1.5-.2,2.3-.3v22.8c-.8,0-1.5.1-2.3.2"/>
      <path d="M142.2,256.6l-2.6-1c0-1,.1-1.3,0-1.8-.3-1.7-.8-2.8-2.4-4.1s-3.6-2.6-6-3.5c-2.4-1-5.1-1.7-7.9-2.2s-5.6-.5-8.1-.5-6.3.6-9.4,1.8c-3.1,1.2-5.9,3.1-8.3,5.6s-4.4,5.8-5.9,9.9c-1.5,4-2.2,8.9-2.2,14.7s.8,10.5,2.2,14.6,3.5,7.4,5.9,9.9c2.4,2.5,5.2,4.4,8.3,5.6,3.1,1.2,6.2,1.8,9.4,1.8,4.9,0,9.2-.5,13.1-1.6,3.9-1.1,7.2-2.3,9.9-3.5v-14.9h-16.4c-1.2,0-2.1.4-2.7,1-.6.7-1,2.2-1.2,4.5h-2.3v-22.1h2.3c.2,2,.6,3.2,1.2,3.7s1.5.8,2.7.8h32v3.1c-1.7.4-2.8.8-3.2,1.2s-.6,1.4-.6,2.9v19.5c0,1.1.3,1.9.8,2.2.5.4,1.1.8,1.8,1.2v2.8c-2.8,2.6-5.8,4.8-8.9,6.6s-6.3,3.1-9.5,4.1c-3.2,1-6.4,1.6-9.6,1.8-3.2.2-6.3.4-9.4.4-6,0-11.4-1-16.3-3-4.9-2-9.1-5-12.6-9-3.5-4-6.2-8.8-8.1-14.5-1.9-5.7-2.9-12.2-2.9-19.5s1-13.7,2.9-19.4,4.6-10.6,8.1-14.6c3.5-4,7.7-7.1,12.6-9.2,4.9-2.1,10.3-3.2,16.3-3.2s7.3.4,10.8,1c3.4.7,6.4,1.5,9.1,2.3,2.6.9,4.9,1.7,6.6,2.4s2.8,1.1,3.3,1.1c.8,0,1.4-.2,1.8-.7.4-.5.9-.9,1.3-1.2l1.5,1.2-7.3,21.8h0Z"/>
      <path d="M74.3,199.3c0-1.6,1.9-2.7,4.8-2.7h191.3v-4.1H79.1c-2.9,0-4.8-1.1-4.8-2.7v-.4h-1.8v10.4h1.8v-.4h0Z"/>
      <path d="M867.5,199.3v.4h1.8v-10.4h-1.8v.4c0,1.6-1.9,2.7-4.8,2.7h-190.5v4.1h190.5c2.9,0,4.8,1.1,4.8,2.7"/>
    </g>
  </g>
  <g class="st1">
    <g class="st1">
      <path class="st2" d="M474.1,163.3s-.2.2-.7.5h.2c-.1.2-.4.6-.9,1.4-.5.8-.7,1.2-.7,1.4h-.4c-.2,0-.2,0-.2.1v.4c-.3,0-.9.4-1.5,1.2-.1,0-.2,0-.2.2s0,.2-.2.2-.2,0-.2.2c0,.1-.1.2-.2.2-1.8,1.3-3.8,2.6-6,3.9h-.3c-.1-.1-.2,0-.3,0,0,.1-.2.2-.3.2s-.4,0-.9.1c-.4,0-.7,0-1,0l-.3.3h-1.1c-.1,0-.2,0-.3-.2,0-.1-.2-.2-.3-.2h-.2.1c-.9-.5-1.8-1.2-2.7-2-1.1-1.1-1.6-2-1.6-2.8v-1.9c.7-.8,1-1.7,1-2.7s.6-1.2,1.9-2.6c1.3-1.4,2.1-2.2,2.5-2.5h-.3c.2-.2.3-.4.3-.8.5,0,.7-.2.5-.5.3-.1.8-.5,1.4-1.2.6-.7.9-1.1.9-1.4h.4c.1,0,.5-.3,1.1-1.1.6-.8.9-1.1.9-1.2.9-.7,2.2-1.9,3.8-3.5,2.1-2.2,3.2-3.3,3.6-3.3s.6.4,1.3,1.2c-.6,1.1-1.2,2.1-1.8,3.2-.7,1.3-1,2.4-1.1,3.4,0,0,0,0,0,0-.2,0-.3.2-.5.3.2.2.4.3.5.2-.5.2-.8.7-1.1,1.5-.3,1.1-.5,1.7-.6,1.8h-.7c0,.1,0-1.3,0-1.3.5-.3.7-1.2.7-2.6.3-.6.6-1.3.7-2.1l-.4-.4c-1.1,1-2.2,1.9-3.3,2.9-1.3,1.2-2.2,2.2-3,3.2,0,0-.1,0-.2,0-.2,0-.4,0-.4.2s0,.2.2.2c-.8.8-1.6,1.5-2.4,2.2-.9.9-1.6,1.8-2,2.5-.4.1-1,.9-1.5,2.5-.6,1.5-.9,2.6-.9,3.2s0,.3.2.7c.2.4.3.7.3.8.2.4.8.9,1.8,1.6l.3.3c.5.2.9.3,1,.3.5,0,1.4-.1,2.8-.3.2-.1.6-.3,1.2-.6.2,0,.5,0,.9-.1.3-.4.7-.6,1.2-.6s0,0,0-.2,0,0,.1,0,.2,0,.3,0,.2,0,.3,0c.7-.4,1.7-1.2,2.9-2.1.5-.4,2-1.9,4.4-4.7.2,0,.4.2.7.4Z"/>
      <path class="st2" d="M487.1,158.2l-.4.4c0,.1.1.3.3.5-.4.5-.8,1.1-1.3,1.6-.2.8-.7,1.8-1.3,3.2v.3c-.3.3-.4.5-.2.5,0,0-.2.3-.6.9l.4.5h-.2c-.2,0-.3.1-.4.3h.1c0,0-.2.4-.2.4v-.2c-.2.7-.2,1.3-.2,1.7h-.3c-.6,1.9-.9,3.5-1,4.8,0,0,0,0,0,.1,0,0,0,.2.2.2-.1,0-.4.4-.8.9-.3.4-.7.6-1.1.6h.3c-.2-.4-.7-.5-1.3-.5l.3-.4c-.2,0-.4-.2-.5-.2.9-1.7,1.4-3.1,1.3-4.1.4-.6.7-1.2.7-1.8.1-.4.4-.9.7-1.5v-.4l-.2-.2c-.2.1-.6.6-1.3,1.4-.6.8-1,1.2-1.2,1.2s-.5.3-1,1c-.5.7-.8,1-.9,1s-.5.4-1.1,1.1c-.7.7-1.5,1.1-2.5,1.1v-.2h-.1c0,0-.1,0-.1-.2s0,0-.2,0-.3-.2-.5-.7c.2-.2.3-.5.2-1,0-.5,0-.8.3-.9-.1-.1-.3-.2-.5-.2.2-.1.6-.9,1.3-2.2.7-1.4,1-2.2,1-2.4l-.2-.3c.6-.7,1-1.5,1-2.3,0-.1.2-.3.4-.5-.1,0-.3-.2-.5-.4v-.2c0,0,0-.2,0-.2.7-.5,1-.8,1-.8.1,0,.3,0,.4,0,.2,0,.3,0,.4,0,.6.4,1.2.7,1.6.9v.7c0,.1,0,.2-.2.2h-.2c-.1.3-.6,1.1-1.6,2.2-.2,0-.3.4-.4,1.1-.5.4-.9,1.4-1.2,2.8,0,.3-.2.6-.3,1-.1,0-.2,0-.2,0,0,.2.3.2.8.2s1.2-.9,2.4-2.6c.3-.2.4-.4.4-.7,1-.8,1.7-1.4,2-1.8.7-.7,1.2-1.5,1.5-2.2.3-.2.8-1,1.5-2.2.7-1.2,1-2,1-2.4.2,0,.5,0,1-.2.4,0,.8-.2,1-.2s.5.3.8,1ZM482,165.6c0,0-.2-.1-.2-.1-.2,0-.3,0-.5.2l.4.4v-.4c0-.1.1-.2.3-.1Z"/>
      <path class="st2" d="M495.6,148.7c0,.2-.2.7-.6,1.3-.4.6-.7,1-.9,1.1h.3c-1.4,3-2.7,6.4-3.8,10.2-.3.4-.6,1.1-1,2.2v.2c0,.2,0,.6-.2,1-.2.4-.2.6-.2.7-.4,1.2-1,3-1.9,5.4l.4.4v.7l-.9,1.5c-.2.5-.8.7-1.6.7s-.2,0-.3-.2c0-.1-.1-.2-.2-.1,0-.5.1-1.2.4-1.9.4-1,.6-1.6.6-1.9l.3.2c0-.6.2-1.3.5-2.1.3-.8.5-1.3.5-1.5.2-.7.6-1.6,1.1-2.6,0-.4.1-.8.4-1.4.3-.6.4-1.1.4-1.7.2-.1.4-.2.6-.4,0,0-.1-.1-.1-.2,0-.3.1-.8.3-1.3.2-.5.3-1,.3-1.2.6-1.3,1.1-2.5,1.5-3.6.2-.9.6-2.3,1.1-4.1.2-.2.3-.4.4-.7v-.3c-.1,0-.1-.5-.1-.5.2,0,.4-.1.5-.2h-.3c.4-.6.9-.8,1.4-.8h.1s0,0,0,.1,0,0,0,.1,0,0,0,0c.7,0,1,.3,1,.8Z"/>
      <path class="st2" d="M504.9,159.7c-.5.8-1.1,2-1.8,3.6-.2.2-.5.8-.8,1.7-.3.1-.5.5-.8,1-.2.6-.4.8-.6.8-.7,1-1,2-1,2.8s0,.4,0,.5l-.3-.2c-.2.4-.4,1-.4,1.8-.4.2-.8.9-1.1,2-.2.8-.3,1.6-.5,2.4-.2.4-.5,1.1-.9,2.1.1.1.2.2.3.2.2,0,.2,0,.2,0l-.2-.2.3.2c.3-.3.7-.8,1.1-1.6.7-.6,2.4-2.1,5-4.5.4,0,.7.3,1.1.8-.2.1-.3.4-.1.8-.6.2-1.5.9-2.8,2.3s-2,2-1.9,2c-.3,0-.4.3-.4,1-.4.4-1,1-1.8,1.8-1.9,2.7-3,5.8-3.4,9.3-.5.3-.8,1.1-.7,2.4-.4,0-.6.2-.6.6,0-.1,0-.2-.4-.2s-.3,0-.2.1,0,0,.1,0l-.4-.2c-.1,0-.3-.1-.5-.4-.2-.3-.4-.5-.4-.6s.1-.7.4-1.5c.3-.8.5-1.2.6-1.3,0-.3-.2-.5-.4-.4,0-.3.2-.4.4-.4s.3-.4.4-1.1c.4-.7.7-2.2,1-4.4.2,0,.4-.1.6-.2h-.3c.5-1.4,1.1-3.2,1.7-5.4.7-2.7,1.2-4.4,1.6-5.3l.3-.3v-.6c-.6.2-1.4.8-2.4,1.9-.4.3-1,.6-1.8,1-.4,0-.9-.2-1.6-.5-.2-.3-.6-.6-1.1-1l.3-.3c-.3-.2-.4-.4-.4-.4,0-.4.4-1.2,1.1-2.3.7-1.1,1.2-1.8,1.6-2h-.3c1.5-1.7,2.9-3.5,4.4-5.4l-.2-.2c.2,0,.4,0,.7,0s.1,0,.2-.2c0,0,.1-.2.2-.2.6-.4,1.4-1.1,2.4-2.1.2-.1.2-.3,0-.4.2,0,.4,0,.6-.2.3-.1.5-.2.6-.2s.1,0,.2,0c0,0,.2,0,.2,0,.1,0,.3,0,.6-.2s.5-.2.6-.2c0,0,.4.2,1.2.5l.4.3v.5ZM501.5,162.1v-.7h-.4c-1.4,1-2.1,1.6-2.2,1.9-.5,0-1.6,1.1-3.3,3.1-1.7,2-2.6,3.2-2.7,3.7-.1.5-.2.8-.2,1.1s0,.3.1.6c.6,0,1.1-.1,1.4-.4s.5-.4.7-.5c2.1-1.8,3.1-2.7,3-2.7.1,0,.6-.7,1.4-2.2.9-1.7,1.5-2.5,1.6-2.7v-.3c-.1,0-.2,0-.2-.1,0-.3.3-.6.8-.7ZM497.2,178.6h-.2c0,0-.2.3-.2.3h.2c0,0,.2-.3.2-.3Z"/>
      <path class="st2" d="M519.1,158.2l-.4.4c0,.1.1.3.3.5-.4.5-.8,1.1-1.3,1.6-.2.8-.7,1.8-1.3,3.2v.3c-.3.3-.4.5-.2.5,0,0-.2.3-.6.9l.4.5h-.2c-.2,0-.3.1-.4.3h.1c0,0-.2.4-.2.4v-.2c-.2.7-.2,1.3-.2,1.7h-.3c-.6,1.9-.9,3.5-1,4.8,0,0,0,0,0,.1,0,0,0,.2.2.2-.1,0-.4.4-.8.9-.3.4-.7.6-1.1.6h.3c-.2-.4-.7-.5-1.3-.5l.3-.4c-.2,0-.4-.2-.5-.2.9-1.7,1.4-3.1,1.3-4.1.4-.6.7-1.2.7-1.8.1-.4.4-.9.7-1.5v-.4l-.2-.2c-.2.1-.6.6-1.3,1.4-.6.8-1,1.2-1.2,1.2s-.5.3-1,1c-.5.7-.8,1-.9,1s-.5.4-1.1,1.1c-.7.7-1.5,1.1-2.5,1.1v-.2h-.1c0,0-.1,0-.1-.2s0,0-.2,0-.3-.2-.5-.7c.2-.2.3-.5.2-1,0-.5,0-.8.3-.9-.1-.1-.3-.2-.5-.2.2-.1.6-.9,1.3-2.2.7-1.4,1-2.2,1-2.4l-.2-.3c.6-.7,1-1.5,1-2.3,0-.1.2-.3.4-.5-.1,0-.3-.2-.5-.4v-.2c0,0,0-.2,0-.2.7-.5,1-.8,1-.8.1,0,.3,0,.4,0,.2,0,.3,0,.4,0,.6.4,1.2.7,1.6.9v.7c0,.1,0,.2-.2.2h-.2c-.1.3-.6,1.1-1.6,2.2-.2,0-.3.4-.4,1.1-.5.4-.9,1.4-1.2,2.8,0,.3-.2.6-.3,1-.1,0-.2,0-.2,0,0,.2.3.2.8.2s1.2-.9,2.4-2.6c.3-.2.4-.4.4-.7,1-.8,1.7-1.4,2-1.8.7-.7,1.2-1.5,1.5-2.2.3-.2.8-1,1.5-2.2.7-1.2,1-2,1-2.4.2,0,.5,0,1-.2.4,0,.8-.2,1-.2s.5.3.8,1ZM514,165.6c0,0-.2-.1-.2-.1-.2,0-.3,0-.5.2l.4.4v-.4c0-.1.1-.2.3-.1Z"/>
      <path class="st2" d="M527.5,162.3c0,1.8-.5,3.5-1.4,5.1-.9,1.6-1.8,3.1-2.8,4.6-.3,0-.6.3-1.1.7-.4.4-.7.6-.8.6s-.1,0-.1,0c0,0,0,0-.2,0s-.2,0-.4.1c-.2,0-.3.1-.5.1-.4,0-.8,0-1.4.3,0,0-.1-.1-.3-.2-.1,0-.2-.1-.2-.2-.4-.2-.7-.6-1-1.2l-.7-1.5.3-.2c0-.2,0-.4,0-.8,0-.3,0-.6,0-.8,0-.5.2-1.1.7-1.8.7-1,1.1-1.6,1.2-1.7,0-.2,0-.3,0-.4,1.3-1.2,2.1-2.3,2.4-3.2.2-.1.6-.6,1.5-1.6.6-.6,1.1-1,1.7-1.2l.3-.3h.6c.4,0,.8.4,1.2,1.2.4.8.6,1.5.6,1.9ZM525.9,162.6c-.1-.1-.2-.3-.3-.5h0s0,0,0,0h-.2c-.1,0-.3.1-.6.3h-.3c-.8.9-1.7,1.7-2.4,2.3l.2.2c-.6.3-1.3,1.2-2.1,2.6-.8,1.4-1.2,2.4-1.2,3.1s0,.3,0,.5c0,.2,0,.4.2.5s.2.1.5.2c.2.1.4.2.5.2s.2,0,.2,0,0,0,0-.1h.3c0-.1.1-.2.1-.3s0-.2.2-.2.6-.3,1.3-1c.7-.7,1.1-1.1,1.3-1.4.2-.4.9-2,2.1-4.7,0-.2-.2-.4-.4-.7.1,0,.3-.2.4-.2,0,0-.2-.2-.4-.4.1,0,.3-.1.5-.2Z"/>
      <path class="st2" d="M534.7,160.5c-1,1.8-1.9,3.6-2.8,5.4-1.5,2.7-2.2,4.5-2.2,5.3v1.6c-.2.2-.2.4-.1.5-.3,0-.6.1-.9.5-.2-.2-.6-.4-1.1-.7.3-1.3.9-3.3,1.9-6,.2-.4.5-1,.9-1.8h0c0-.2.2-.7.6-1.6.4-.9.6-1.4.5-1.7.4-.2.6-.3.6-.5,0-.4-.2-.8-.6-1.1.4-.3,1-.8,1.8-1.6.2,0,.4,0,.6.2.2.1.4.4.5.8,0,.4.2.6.3.6ZM538.1,152.5c-.2.2-.4.6-.6,1.1.2,0-.3,0-1.5,0s-.3-.2-.5-.7c-.2-.4-.3-.7-.3-.7.2-.3.4-.6.7-.8.2-.3.5-.4.8-.4s.8.5,1.4,1.6Z"/>
      <path class="st2" d="M547,159.9c0,.2-.1.3-.3.5-.2.2-.4.4-.4.5-.3.1-.9,1-1.8,2.5-.2,0-.4.3-.7,1-.4.8-.6,1.2-.6,1.2-.1,0-.3,0-.5,0-.1,0-.3-.1-.5-.1h0c0-.4,0-.7-.3-1,.2-.2.5-.3.7-.5s.3-.5.3-.8c0-.6-.1-.9-.4-.9s-.4.2-.8.6c-.5.4-.8.7-.9.8h.3c-.4.8-.7,1.1-.9,1.1s-.3,0-.3,0l.2.2c-.5.2-1,.9-1.7,2.2-.7,1.3-1,2.2-1,2.8s.1.3.3.7c.2.4.3.7.2,1,.2,0,.4,0,.8,0s.6,0,.8,0c.2,0,.9-.3,2-1s1.7-1.1,1.7-1.3c.3-.1.6-.3.8-.5v-.4c-.1,0,.2,0,.2,0,.7-1.1,1.2-1.7,1.6-1.9,0,0,.1,0,.2,0s.1,0,.3,0h.4v.5c-.5.6-.7.9-.4,1.1,0,0-.2.2-.4.5-.2.3-.4.5-.5.5-.2,0-.2,0-.2,0l.2.2c-.2.1-1.3.9-3.2,2.2-1.7,1.2-2.7,1.8-3,1.8-1,0-2.1-.6-3.4-1.8,0-.2,0-.5,0-1v-.9c0-.5.1-1,.3-1.5.2-.5.3-.8.3-.8,0-.2,0-.3-.2-.4.2,0,.4-.4.6-.8s.4-.8.5-.8.3-.1.6-.1c0,0-.1-.1-.1-.3s.5-.7,1.5-1.7c1-1.1,1.5-1.7,1.6-2,.7-.6,1.4-1.3,2.1-1.9.9-.8,1.7-1.3,2.4-1.5l.3.3c.2,0,.5.3.9.6.3.4.5.7.5.9Z"/>
      <path class="st2" d="M562.1,172.1l-2.1,2.1c-1.1,1-1.8,1.6-2.1,1.6-.6.4-.9.7-1.1.9-.2,0-.5,0-.9,0-.4,0-.7,0-.9,0s-.4-.1-.7-.4c0,0-.2-.1-.5-.1s-.3,0-.6-.2c-.3-.1-.5-.2-.6-.3-.6-2.5-.9-3.7-.9-3.6,0-.3,0-.8.2-1.4.2-.6.2-1,.2-1.4s0-.6-.2-1l.2-.4h0c0-.1.1-.2.4-.4v-2.2l-.2-.2c-1.3,1.5-3,4.3-5.1,8.4,0,0-.4-.1-.9-.1s-.3-.1-.5-.4c-.2-.2-.4-.4-.4-.4.4-.9,1.2-3.6,2.5-8.1.3-.2.9-1.5,1.7-3.8.9-2.3,1.3-3.7,1.2-4,.4-.2,1-1.4,1.8-3.6,0,0,0-.6.2-1.7,0-.6.4-1,.9-1.3.4.2.8.5,1.4,1v1.3c-.9,1.3-1.6,2.8-1.9,4.5l-.3-.2c0,.1-.6,1.7-1.9,4.6-.9,2.2-1.4,3.7-1.4,4.5.1-.1.2-.2.3-.1,0,0,0-.2-.1-.5l.3.2c.2-.2.4-.4.7-.6,0,0-.1-.1-.2-.2.6-.7,1.6-1.8,3-3.1.4-.1,1-.3,1.8-.6,0,.1.2.2.3.4.2.1.3.3.3.6s0,.8-.2,1.5c-.1.6-.2,1.1-.2,1.5l-.4.4c0,.4-.2,1-.6,2-.4,1-.6,1.8-.5,2.3-.2.6-.4,1.1-.4,1.6s0,.5.2,1c.1.4.1.7,0,1,0,.2.3.5.6.9.3.3.6.5.7.5s.2,0,.2.1,0,0,.1,0c.1,0,.3,0,.5,0s.3,0,.4,0l.3-.3c.2,0,.4,0,.7-.1l.6-.6c.2,0,.4-.1.7-.4,0-.1.1-.2.4-.2s1.1-.6,2.2-1.8c.2.1.4.3.7.5Z"/>
    </g>
  </g>
</svg>