<?xml version="1.0" encoding="utf-8"?>
<!-- Generator: Adobe Illustrator 28.2.0, SVG Export Plug-In . SVG Version: 6.00 Build 0)  -->
<svg version="1.1" id="Layer_1" xmlns="http://www.w3.org/2000/svg" xmlns:xlink="http://www.w3.org/1999/xlink" x="0px" y="0px"
	 viewBox="0 0 1675.9 699" style="enable-background:new 0 0 1675.9 699;" xml:space="preserve">
<style type="text/css">
	.st0{fill:#004438;}
	.st1{fill:#CB9700;}
</style>
<g>
	<path class="st0" d="M110.9,265.8c0,1.9,0.5,3.3,1.5,4.2c1,0.9,2.1,1.2,3.4,1.1c0,1.9,0,3.8,0,5.8c-12.6,1.3-25.2,2.6-37.8,3.9
		v-5.9c3.6-0.4,5.3-2.5,5.3-6.4c0-49.5,0-99,0-148.5c0-3.9-1.8-5.9-5.3-5.9v-5.9h37.9c0,1.9,0,3.8,0,5.8c-1.3,0-2.4,0.5-3.4,1.5
		c-1,1-1.5,2.4-1.5,4.3c0,20.4,0,40.8,0,61.1c16.8-18.2,33.6-35.9,50.3-53c2.3-2.5,4.1-4.6,5.4-6.1c1.3-1.6,1.9-2.9,1.9-3.9
		c0-1.4-0.4-2.5-1.1-3.1c-0.7-0.6-1.6-0.9-2.6-0.9c0-1.9,0-3.7,0-5.6h51.1c0,1.8,0,3.6,0,5.5c-2.9,0-5.8,1.5-8.8,4.6
		c-18.7,18.7-37.3,37.9-56,57.8c17,24.8,33.9,48.8,50.9,72.2c2.1,2.9,4.6,5.7,7.4,8.4c2.8,2.7,5.6,4.4,8.4,5.2c0,1.8,0,3.6,0,5.4
		c-15,1.3-29.9,2.6-44.9,4c0-1.9,0-3.7,0-5.6c2.1-0.2,3.2-1,3.2-2.4c0-1-1.1-3.2-3.4-6.5c-13.8-19.2-27.6-38.8-41.4-59
		c-6.8,7.2-13.6,14.6-20.4,22C111,235.1,110.9,250.5,110.9,265.8"/>
	<path class="st0" d="M253.8,258.9c4.2-0.3,6.3-2.3,6.3-5.8c0.1-44.8,0.2-89.5,0.3-134.3c0-3.5-2.1-5.3-6.3-5.3c0-1.8,0-3.6,0-5.3
		h40.4c0,1.7,0,3.5,0,5.2c-4.2,0-6.3,1.8-6.3,5.3c-0.1,44.1-0.2,88.3-0.3,132.4c0,3.5,2.1,5.1,6.3,4.8c0,1.7,0,3.5,0,5.2
		c-13.4,1-26.9,2.1-40.3,3.2C253.8,262.5,253.8,260.7,253.8,258.9"/>
	<path class="st0" d="M462.4,255.4c0-2.7-0.8-4.2-2.3-4.5c-1.5-0.3-3.5-0.4-6-0.2c-38.6,2.1-77.2,4.4-115.7,7.1c0-1.7,0-3.4,0-5.1
		c4.9-0.3,7.3-2.2,7.3-5.6c0.1-42.9,0.2-85.9,0.4-128.8c0-3.4-2.4-5.1-7.3-5.1c0-1.7,0-3.4,0-5.1h41.8c0,1.7,0,3.4,0,5
		c-4.5,0-6.8,1.7-6.8,5.1c-0.1,37.2-0.2,74.3-0.3,111.5c26.9-1.4,53.8-2.8,80.7-3.9c2.4-0.1,4.4-0.8,6-2.2c1.5-1.3,2.3-3.1,2.3-5.2
		c1.5-0.1,2.9-0.1,4.4-0.2c0,12.3-0.1,24.6-0.1,37C465.3,255.3,463.8,255.3,462.4,255.4"/>
	<path class="st0" d="M582.9,108.2c8.9,0,17.2,1.4,24.9,4.1c7.7,2.8,14.4,6.9,20,12.5c5.7,5.6,10.1,12.6,13.3,21
		c3.2,8.4,4.8,18.4,4.8,29.8c0,11.5-1.7,21.4-4.9,30c-3.3,8.5-7.7,15.7-13.4,21.4c-5.7,5.7-12.4,10.1-20.1,13.1c-7.7,3-16,4.7-25,5
		c-26.9,1-53.9,2.1-80.8,3.3c0-1.6,0-3.2,0-4.8c3.7-0.2,5.6-1.8,5.6-5c0.1-40.3,0.2-80.5,0.3-120.8c0-3.2-1.9-4.8-5.6-4.8
		c0-1.6,0-3.2,0-4.8H582.9z M572.9,222.9c7.6-0.2,14.3-1.1,20-2.7c5.7-1.5,10.4-4.1,14.1-7.8c3.7-3.6,6.5-8.4,8.4-14.3
		c1.9-5.9,2.8-13.3,2.8-22.2c0-8.9-0.9-16.3-2.7-22.2c-1.9-5.8-4.6-10.5-8.4-14c-3.7-3.5-8.4-5.9-14.1-7.3c-5.7-1.3-12.3-2-19.9-2
		c-12.6,0.1-25.1,0.2-37.7,0.2c-0.1,31.1-0.2,62.2-0.3,93.3C547.7,223.7,560.3,223.3,572.9,222.9"/>
	<path class="st0" d="M770.3,108.2c7.8,0,14.8,0.7,21.2,2.1c6.3,1.4,11.8,3.7,16.3,6.8c4.5,3.1,8,7.1,10.5,12.1
		c2.4,4.9,3.6,11,3.6,18.2c0,11.1-3.2,19.5-9.5,25.4c-6.3,5.9-14.8,9.8-25.6,11.9c10.8,15.9,21.6,31.8,32.4,47.7
		c1.1,1.7,2.5,2.7,4,3c1.5,0.3,3,0.5,4.3,0.5v4.5c-15.2,0-30.4,0.1-45.5,0.2c0-1.5,0-3,0-4.5c1.5,0,2.7-0.3,3.8-0.8
		c1.1-0.5,1.6-1.2,1.6-2c0-0.8-0.3-1.8-1-2.9c-0.7-1.1-1.6-2.5-2.9-4.4c-8.9-13-17.8-26.1-26.7-39.1c-11.6,0.1-23.2,0.2-34.8,0.3
		c0,15,0,30.1-0.1,45.1c0,1.5,0.5,2.7,1.6,3.4c1,0.7,3,1.1,5.7,1c0,1.5,0,3,0,4.6c-14,0.2-28.1,0.5-42.1,0.8c0-1.5,0-3.1,0-4.6
		c4.7-0.1,7.1-1.7,7.1-4.7c0.1-38.5,0.1-77,0.2-115.4c0-3.1-2.3-4.6-7-4.6c0-1.5,0-3.1,0-4.6H770.3z M763.9,167.2
		c5.8,0,10.7-0.5,14.6-1.4c3.9-0.9,7-2.3,9.2-3.9c2.3-1.7,3.9-3.7,4.9-5.9c1-2.3,1.5-4.7,1.5-7.4c0-2.7-0.5-5.2-1.5-7.4
		c-1-2.3-2.6-4.2-4.9-5.9c-2.3-1.7-5.3-3-9.2-3.9c-3.9-0.9-8.8-1.4-14.6-1.4c-14,0-28.1,0.1-42.1,0.1c0,12.5,0,25,0,37.5
		C735.9,167.3,749.9,167.2,763.9,167.2"/>
	<path class="st0" d="M903.4,112.7c-3.6,0-5.4,1.5-5.3,4.5c0,25.2,0,50.4,0,75.6c0,10.6,3.3,17.9,9.9,21.9c6.6,4,16.2,6.1,28.9,6.2
		c12.7,0.2,22.3-1.7,28.8-5.6c6.6-3.9,9.8-11.2,9.8-21.8c0-25.4-0.1-50.8-0.1-76.2c0-3.1-2.4-4.6-7.3-4.6c0-1.5,0-3,0-4.6h38.9
		c0,1.5,0,3.1,0,4.6c-3.9,0-5.8,1.5-5.8,4.6c0,25.1,0.1,50.1,0.1,75.2c0,10-1.3,18.3-4.1,24.8c-2.8,6.5-6.9,11.6-12.4,15.4
		c-5.5,3.8-12.4,6.3-20.6,7.5c-8.2,1.2-17.7,1.7-28.4,1.6c-10.7-0.1-20.2-0.9-28.4-2.3c-8.2-1.4-15.1-4.1-20.6-8
		c-5.5-3.9-9.7-9.1-12.4-15.5c-2.8-6.5-4.1-14.6-4.1-24.6c0-24.7,0-49.5,0-74.2c0-3-2.3-4.5-6.8-4.5c0-1.5,0-3,0-4.5h39.9
		C903.4,109.7,903.4,111.2,903.4,112.7"/>
	<path class="st0" d="M1051.5,239c1.3,0,2.4-0.3,3.4-1.1c1-0.7,1.5-1.9,1.5-3.4c-0.1-39.2-0.2-78.4-0.3-117.5c0-1.5-0.5-2.6-1.5-3.2
		c-1-0.6-2.1-0.9-3.4-0.9c0-1.5,0-3.1,0-4.6h45.5c0,1.6,0,3.1,0,4.7c-0.8,0-1.7,0.3-2.6,0.8c-0.9,0.5-1.3,1.3-1.3,2.3
		c0,0.9,0.3,2,1,3.4c0.6,1.4,1.4,2.9,2.2,4.4c11.6,22.6,23.3,45.4,35,68.5c11.6-22.2,23.2-44.7,34.8-67.4c1.1-2.3,2-4.1,2.5-5.4
		c0.6-1.3,0.8-2.5,0.8-3.6c0-1.9-1.1-2.9-3.2-2.9c0-1.6,0-3.2,0-4.8h45c0,1.6,0,3.2,0,4.9c-1.3,0-2.4,0.3-3.4,0.9
		c-1,0.6-1.5,1.7-1.5,3.4c0.1,41,0.2,81.9,0.4,122.9c0,1.6,0.5,2.9,1.5,3.7c1,0.9,2.1,1.3,3.4,1.4c0,1.6,0,3.2,0,4.9
		c-12.7-0.7-25.5-1.3-38.2-1.9c0-1.6,0-3.2,0-4.8c4.4,0.2,6.6-1.3,6.6-4.5c-0.1-29.5-0.2-59.1-0.2-88.6c-0.2,0-0.3,0-0.5,0
		c-16.2,32.5-32.4,64.5-48.6,96.1c-0.2,0-0.5,0-0.7,0c-16.1-33-32.1-65.4-48.2-97.5c-0.2,0-0.3,0-0.5,0c0.1,28.8,0.1,57.6,0.2,86.3
		c0,3.1,2.3,4.7,6.8,4.9c0,1.6,0,3.1,0,4.7c-12.2-0.4-24.3-0.8-36.5-1.2C1051.5,242.1,1051.5,240.5,1051.5,239"/>
	<path class="st0" d="M1260.3,247.9c1.3,0.1,2.4-0.3,3.4-1c1-0.8,1.5-2,1.4-3.6c-0.1-41.9-0.2-83.8-0.4-125.7c0-1.7-0.5-2.8-1.5-3.4
		c-1-0.6-2.1-1-3.4-1c0-1.7,0-3.3,0-5h45.5c0,1.7,0,3.4,0,5c-0.8,0-1.7,0.3-2.6,0.8c-0.9,0.6-1.3,1.4-1.3,2.5c0,0.9,0.3,2.1,1,3.6
		c0.7,1.5,1.4,3.1,2.2,4.8c11.7,24.4,23.3,49.1,35,74.3c11.6-23.9,23.2-48.2,34.8-72.9c1.1-2.5,2-4.5,2.5-5.9
		c0.6-1.4,0.8-2.8,0.8-3.9c0-2.1-1.1-3.2-3.2-3.2c0-1.7,0-3.5,0-5.2h45c0,1.8,0,3.6,0,5.3c-1.3,0-2.4,0.3-3.4,1
		c-1,0.7-1.5,1.9-1.5,3.7c0.1,44.9,0.2,89.9,0.3,134.8c0,1.8,0.5,3.1,1.5,4.1c1,1,2.1,1.5,3.4,1.6c0,1.8,0,3.6,0,5.3
		c-12.7-1-25.4-2-38.1-3c0-1.7,0-3.5,0-5.2c4.4,0.3,6.6-1.3,6.5-4.8c-0.1-32.3-0.2-64.5-0.2-96.8c-0.2,0-0.3,0-0.5,0
		c-16.2,35.4-32.4,69.9-48.6,103.7c-0.2,0-0.5,0-0.7,0c-16.1-36.1-32.1-71.4-48.2-106c-0.2,0-0.3,0-0.5,0
		c0.1,30.9,0.2,61.8,0.3,92.7c0,3.3,2.3,5.1,6.8,5.4c0,1.7,0,3.4,0,5c-12.2-0.8-24.3-1.5-36.5-2.2
		C1260.3,251.2,1260.3,249.6,1260.3,247.9"/>
	<path class="st0" d="M1506,108.2c0,1.9,0,3.7,0,5.6c-1.5,0-2.8,0.3-4.1,0.8c-1.3,0.5-1.9,1.8-1.9,3.9c0,1.2,1.2,4.2,3.5,8.9
		c2.4,4.7,5.1,10,8.3,16c3.2,6,6.5,12.2,9.9,18.5c3.4,6.4,6.2,11.8,8.3,16.3c9.5-16.5,18.9-33.3,28.4-50.4c1.3-2.6,2.3-4.6,3.2-6.1
		c0.8-1.5,1.2-2.9,1.2-4.2c0-1.5-0.8-2.5-2.3-2.9c-1.5-0.4-3-0.7-4.3-0.7c0-1.9,0-3.8,0-5.8h42.6v5.9c-1.3,0-2.5,0.2-3.6,0.5
		c-1.1,0.3-2.3,1.1-3.5,2.3c-1.2,1.2-2.5,2.9-3.9,5.2c-1.4,2.3-3,5.4-5,9.2c-13.8,25.9-27.5,51.2-41.3,75.9c0,18.8,0,37.6,0.1,56.4
		c0,3.8,1.9,5.9,5.6,6.2c0,1.9,0,3.8,0,5.7c-12.8-1.3-25.6-2.5-38.3-3.7c0-1.9,0-3.7,0-5.6c1.5,0.1,2.7-0.2,3.6-1.1
		c1-0.8,1.5-2.2,1.5-4.1c0-18.5,0-37-0.1-55.5c-15.7-29-31.3-57.1-47-84.6c-1.1-2-2.9-3.8-5.2-5.2c-2.4-1.4-4.3-2.1-6-2.1
		c0-1.8,0-3.6,0-5.4H1506z"/>
	<path class="st1" d="M559.3,364.9c0,1-0.2,1.7-0.7,2c-0.5,0.4-1.4,0.6-2.6,0.6h-32.8V352H543c1.5,0,2.2,0.3,2.6,0.5
		c0.1,0.1,0.5,0.4,0.5,1.4v0.8h2.8v-13.8h-2.8v0.8c0,1-0.4,1.3-0.7,1.5c-0.6,0.3-1.5,0.5-2.6,0.5h-19.6v-14.3h30.6
		c1.7,0,2.3,0.3,2.6,0.5c0.4,0.3,0.5,0.8,0.5,1.5v0.8h2.8v-13.1h-2.8v0.8c0,0.7-0.2,0.8-0.3,0.9c-0.1,0.1-0.6,0.3-2.9,0.3h-43v2.8
		h0.8c0.6,0,1.1,0.1,1.3,0.3c0.2,0.3,0.3,0.7,0.3,1.3v45.7c0,0.5-0.1,1-0.3,1.3c-0.2,0.2-0.6,0.3-1.3,0.3h-0.8v2.8h45.9
		c1.8,0,2.7,0.4,2.7,1.1v0.8h2.8v-13.6h-2.8V364.9z"/>
	<path class="st1" d="M656.8,344.4c-2.9-1-6.2-1.5-9.7-1.6c-3.4-0.1-6.7-0.2-9.9-0.2c-1.9,0-3.6-0.1-5.2-0.2c-1.6-0.1-3-0.4-4.1-0.8
		c-1.1-0.4-2-0.9-2.6-1.6c-0.6-0.6-0.8-1.4-0.8-2.5c0-2.5,1.4-4.5,4.4-6.1c3.1-1.7,7.3-2.5,12.5-2.5c2.3,0,4.5,0.2,6.5,0.6
		c2,0.4,3.7,0.9,5.1,1.6c1.4,0.6,2.5,1.2,3.2,1.8c0.9,0.7,0.9,1.1,0.9,1.1c0,0.8-0.1,1-0.1,1.1l-0.2,0.6l2.4,1.5l6.3-13.2l-2.5-1
		l-0.4,0.4c-0.3,0.3-0.6,0.6-0.9,0.8c-0.1,0.1-0.4,0.2-1.1,0.2c-0.6,0-1.3-0.2-2.2-0.5c-1-0.4-2.3-0.9-3.9-1.3
		c-1.6-0.5-3.5-0.9-5.6-1.3c-2.1-0.4-4.7-0.6-7.7-0.6c-3.7,0-7.3,0.4-10.5,1.2c-3.2,0.8-6,2-8.4,3.4c-2.4,1.5-4.3,3.3-5.7,5.3
		c-1.4,2.1-2.2,4.5-2.2,7.1c0,4,1,7.1,3,9.2c2,2,4.5,3.5,7.5,4.4c2.9,0.9,6.2,1.3,9.7,1.3c3.5,0,6.7,0.1,9.8,0.1
		c1.8,0,3.6,0.1,5.2,0.3c1.6,0.2,3,0.5,4.1,1c1.1,0.4,2,1.1,2.6,1.9c0.6,0.8,0.9,1.8,0.9,3c0,2.7-1.3,4.8-3.9,6.6
		c-2.7,1.8-7.2,2.7-13.4,2.7c-2.4,0-4.8-0.3-7.2-0.8c-2.4-0.5-4.5-1.2-6.3-2c-1.8-0.8-3.3-1.7-4.4-2.6c-1-0.8-1.5-1.6-1.5-2.3
		c0-0.3,0.1-0.6,0.2-1l0.3-0.7l-2.7-1.5l-6.1,13l2.2,1.3l0.5-0.5c0.6-0.6,1.1-0.9,1.5-0.9c0.4,0,1.2,0.2,2.5,0.9
		c1.2,0.6,2.8,1.4,4.7,2.1c1.9,0.8,4.2,1.5,6.9,2.1c2.7,0.6,5.9,0.9,9.6,0.9c4.3,0,8.2-0.4,11.5-1.3c3.3-0.9,6.2-2.2,8.5-3.7
		c2.3-1.6,4.1-3.5,5.2-5.6c1.2-2.1,1.8-4.3,1.8-6.6c0-4.2-1-7.5-3-9.7C662.3,347,659.8,345.4,656.8,344.4"/>
	<path class="st1" d="M765.9,319.4c0,0.6,0,1.8-2.7,1.8H721c-2.7,0-2.7-1.2-2.7-1.8v-0.8h-2.8v13.5h2.8v-0.8c0-0.5,0.1-1.1,0.4-1.4
		c0.2-0.2,0.8-0.4,2.3-0.4H737v41.8c0,0.5-0.1,1-0.3,1.3c-0.2,0.2-0.6,0.3-1.3,0.3h-0.8v2.8h14.9v-2.8h-0.8c-0.6,0-1.1-0.1-1.3-0.3
		c-0.2-0.3-0.3-0.7-0.3-1.3v-41.8h16.1c1.4,0,2,0.3,2.3,0.4c0.4,0.3,0.4,0.9,0.4,1.4v0.8h2.8v-13.5h-2.8V319.4z"/>
	<path class="st1" d="M866.6,372.9c-0.2,0-0.3-0.1-0.5-0.3c-0.3-0.3-0.5-0.7-0.8-1.3l-20.7-42.9c-0.5-1.2-1-2-1.3-2.7
		c-0.4-0.7-0.4-1-0.4-1.2c0-0.2,0-0.4,0.8-0.4h0.8v-2.8h-16.3v2.8h0.8c1,0,1,0.3,1,0.4c0,0.1,0,0.4-0.3,1l-19.4,43.2
		c-0.5,1.1-1,1.9-1.3,2.6c-0.3,0.6-0.6,1-0.8,1.3c-0.1,0.2-0.3,0.3-0.4,0.3c-0.2,0.1-0.5,0.1-0.9,0.1h-0.8v2.8h14v-2.8h-0.8
		c-0.6,0-0.9-0.1-0.9-0.3c0-0.2,0.1-0.6,0.4-1.4l4.1-9.6h27.4l3.6,7.6l0.4,0.8c0.3,0.8,0.6,1.3,0.7,1.6c0.1,0.3,0.2,0.5,0.2,0.7
		c0,0.2,0,0.4-0.1,0.4c0,0-0.2,0.1-1.1,0.1H853v2.8h15.6v-2.8h-0.8C867.3,372.9,866.9,372.9,866.6,372.9 M846,353.4h-19.3l9.2-21
		L846,353.4z"/>
	<path class="st1" d="M956.2,319.4c0,0.6,0,1.8-2.7,1.8h-42.3c-2.7,0-2.7-1.2-2.7-1.8v-0.8h-2.8v13.5h2.8v-0.8
		c0-0.5,0.1-1.1,0.4-1.4c0.2-0.2,0.8-0.4,2.3-0.4h16.1v41.8c0,0.5-0.1,1-0.3,1.3c-0.2,0.2-0.6,0.3-1.3,0.3h-0.8v2.8h14.9v-2.8H939
		c-0.6,0-1.1-0.1-1.3-0.3c-0.2-0.3-0.3-0.7-0.3-1.3v-41.8h16.1c1.4,0,2,0.3,2.3,0.4c0.4,0.3,0.4,0.9,0.4,1.4v0.8h2.8v-13.5h-2.8
		V319.4z"/>
	<path class="st1" d="M1058.3,364.9c0,1-0.2,1.7-0.7,2c-0.5,0.4-1.4,0.6-2.6,0.6h-32.8V352h19.8c1.5,0,2.2,0.3,2.6,0.5
		c0.1,0.1,0.5,0.4,0.5,1.4v0.8h2.8v-13.8h-2.8v0.8c0,1-0.4,1.3-0.7,1.5c-0.6,0.3-1.5,0.5-2.6,0.5h-19.6v-14.3h30.6
		c1.7,0,2.3,0.3,2.6,0.5c0.4,0.3,0.5,0.8,0.5,1.5v0.8h2.8v-13.1h-2.8v0.8c0,0.7-0.2,0.8-0.3,0.9c-0.1,0.1-0.6,0.3-2.9,0.3h-43v2.8
		h0.8c0.6,0,1.1,0.1,1.3,0.3c0.2,0.3,0.3,0.7,0.3,1.3v45.7c0,0.5-0.1,1-0.3,1.3c-0.2,0.2-0.6,0.3-1.3,0.3h-0.8v2.8h45.9
		c1.8,0,2.7,0.4,2.7,1.1v0.8h2.8v-13.6h-2.8V364.9z"/>
	<path class="st1" d="M1163.3,349.2L1163.3,349.2c-2-2.2-4.5-3.8-7.5-4.8c-3-1-6.2-1.5-9.7-1.6c-3.4-0.1-6.7-0.1-9.9-0.1
		c-1.9,0-3.6-0.1-5.2-0.2c-1.6-0.1-3-0.4-4.1-0.8c-1.1-0.4-2-0.9-2.6-1.6c-0.6-0.6-0.8-1.4-0.8-2.5c0-2.5,1.4-4.5,4.3-6.1
		c3.1-1.7,7.3-2.5,12.5-2.5c2.3,0,4.5,0.2,6.5,0.6c2,0.4,3.7,0.9,5.1,1.6c1.4,0.6,2.5,1.2,3.2,1.8c0.9,0.8,0.9,1.1,0.9,1.1
		c0,0.8-0.1,1-0.1,1l-0.2,0.6l2.4,1.5l6.3-13.2l-2.5-1l-0.4,0.4c-0.3,0.3-0.6,0.6-0.9,0.8c-0.1,0.1-0.4,0.2-1.1,0.2
		c-0.6,0-1.3-0.2-2.2-0.5c-1-0.4-2.3-0.9-3.9-1.3c-1.6-0.5-3.5-0.9-5.6-1.3c-2.2-0.4-4.7-0.6-7.7-0.6c-3.7,0-7.3,0.4-10.5,1.2
		c-3.2,0.8-6,2-8.4,3.4c-2.4,1.5-4.3,3.3-5.7,5.3c-1.4,2.1-2.2,4.5-2.2,7.1c0,4,1,7.1,3,9.2c2,2,4.5,3.5,7.5,4.4
		c2.9,0.9,6.2,1.3,9.7,1.3c3.5,0,6.7,0,9.8,0c1.8,0,3.6,0.1,5.2,0.3c1.6,0.2,2.9,0.5,4.1,1c1.1,0.4,2,1.1,2.6,1.9
		c0.6,0.8,0.9,1.8,0.9,3c0,2.7-1.3,4.8-3.9,6.6c-2.7,1.8-7.2,2.7-13.4,2.7c-2.4,0-4.8-0.3-7.2-0.8c-2.4-0.5-4.5-1.2-6.3-2
		c-1.8-0.8-3.3-1.7-4.4-2.6c-1-0.8-1.5-1.6-1.5-2.3c0-0.3,0.1-0.6,0.2-1l0.3-0.7l-2.7-1.5l-6.1,13l2.2,1.3l0.5-0.5
		c0.6-0.6,1.1-0.9,1.5-0.9c0.4,0,1.2,0.1,2.5,0.9c1.2,0.6,2.8,1.4,4.7,2.1c1.9,0.8,4.2,1.5,6.9,2.1c2.7,0.6,5.9,0.9,9.6,0.9
		c4.3,0,8.2-0.4,11.5-1.3c3.3-0.9,6.2-2.2,8.5-3.7c2.3-1.6,4.1-3.5,5.2-5.6c1.2-2.1,1.8-4.3,1.8-6.6
		C1166.3,354.7,1165.3,351.4,1163.3,349.2"/>
	<path class="st0" d="M389.1,593.8c0-2.7-0.8-4.3-2.3-4.7c-1.5-0.4-3.5-0.6-6-0.6c-38.6-0.1-77.2-0.2-115.7-0.3c0-1.8,0-3.5,0-5.3
		c4.9,0,7.3-1.7,7.3-5.2c-0.1-44.1-0.3-88.3-0.4-132.4c0-3.5-2.4-5.5-7.3-5.9c0-1.8,0-3.5,0-5.3c13.9,1.3,27.8,2.5,41.8,3.7
		c0,1.7,0,3.4,0,5.1c-4.5-0.4-6.8,1.2-6.8,4.6c0.1,38.1,0.2,76.2,0.4,114.3c26.9,0.5,53.8,0.9,80.7,1.3c2.4,0,4.4-0.6,5.9-1.8
		c1.5-1.3,2.3-3,2.3-5.2c1.5,0,2.9,0.1,4.4,0.1c0,12.5,0.1,25,0.1,37.5H389.1z"/>
	<path class="st0" d="M542.5,481.2c0-1.9-0.7-3.3-2.1-4.3c-1.4-1-3.8-1.6-7.2-1.7c-26.3-1.1-52.6-2.3-78.8-3.6c0,11,0.1,22,0.1,33
		c15.9,0.6,31.8,1.2,47.7,1.7c3.2,0.1,5.8-0.3,7.5-1.2c1.8-0.9,2.7-3.3,2.6-7.3c1.5,0.1,2.9,0.1,4.4,0.2c0,13.5,0.1,27,0.1,40.5
		c-1.5,0-2.9-0.1-4.4-0.1c0-4-0.9-6.6-2.7-7.7c-1.8-1.2-4.3-1.8-7.5-1.9c-15.9-0.4-31.8-0.8-47.7-1.3c0,12.3,0.1,24.5,0.1,36.8
		c27.1,0.3,54.1,0.6,81.2,0.9c2.4,0,4.4-0.6,6-1.7c1.5-1.2,2.3-2.8,2.3-4.9c1.5,0,2.9,0,4.4,0.1c0,11.7,0.1,23.5,0.1,35.2h-4.4
		c0-2.6-0.8-4-2.3-4.4c-1.5-0.3-3.5-0.5-6-0.5c-37.8-0.1-75.5-0.1-113.3-0.2c0-1.6,0-3.2,0-4.9c1.1,0,2.1-0.4,3-1.2
		c0.9-0.8,1.3-2,1.3-3.6c-0.2-40.8-0.3-81.6-0.5-122.4c0-1.6-0.5-2.9-1.4-3.7c-0.9-0.9-1.9-1.3-3-1.4c0-1.6,0-3.2,0-4.9
		c37,2.5,73.9,4.6,110.9,6.4c3.4,0.2,5.8-0.3,7.2-1.3c1.4-1,2.1-2.5,2.1-4.4c1.5,0.1,2.9,0.1,4.4,0.2c0,11.3,0.1,22.6,0.1,33.9
		C545.4,481.3,543.9,481.3,542.5,481.2"/>
	<path class="st0" d="M586.6,584.4c3.1,0,4.6-1.5,4.6-4.6c-0.1-38.4-0.2-76.8-0.3-115.2c0-3-1.6-4.6-4.6-4.7c0-1.5,0-3.1,0-4.6
		c13.9,0.6,27.8,1.1,41.6,1.5c0,1.5,0,3,0,4.5c-1.3,0-1.9,0.8-1.9,2.4c0,1.3,1.6,3.7,4.9,7.2c23.4,25.6,46.7,50.7,70,75.5
		c0-26.2-0.1-52.5-0.1-78.7c0-3-2.1-4.5-6.3-4.6c0-1.5,0-3,0-4.5c12.3,0.3,24.5,0.5,36.8,0.7c0,1.5,0,3,0,4.4
		c-3.1-0.1-4.6,1.4-4.6,4.4c0.1,37.3,0.1,74.6,0.2,112c0,3,1.5,4.4,4.6,4.4c0,1.5,0,3,0,4.4c-13.1,0-26.3,0-39.4,0c0-1.5,0-3,0-4.5
		c2.1,0,3.2-0.7,3.2-2.2c0-1.2-1.3-3.1-3.9-5.7c-24.8-26.4-49.6-53.1-74.4-80.4c0.1,27.9,0.2,55.8,0.2,83.6c0,3,1.9,4.5,5.6,4.6
		c0,1.5,0,3,0,4.5c-12,0-24,0-36,0C586.6,587.4,586.6,585.9,586.6,584.4"/>
	<path class="st0" d="M805,580.3c0,1.5,0.5,2.6,1.5,3.3c1,0.7,2.1,1.1,3.4,1.1c0,1.5,0,2.9,0,4.4c-12.6,0-25.3,0-37.9,0
		c0-1.5,0-2.9,0-4.4c3.6,0,5.4-1.5,5.3-4.4c0-37.1-0.1-74.2-0.1-111.4c0-2.9-1.8-4.4-5.4-4.5c0-1.5,0-2.9,0-4.4
		c12.7,0.1,25.3,0.2,38,0.3c0,1.5,0,2.9,0,4.4c-1.3,0-2.4,0.4-3.4,1.1c-1,0.7-1.5,1.8-1.5,3.3c0,15.5,0,31,0,46.5
		c16.8-13.3,33.6-26.5,50.4-39.9c2.3-2,4.1-3.6,5.4-4.8c1.3-1.2,1.9-2.2,1.9-3.1c0-1.1-0.4-2-1.1-2.4c-0.7-0.5-1.6-0.7-2.6-0.7
		c0-1.5,0-2.9,0-4.4c17.1-0.1,34.1-0.2,51.2-0.4c0,1.5,0,2.9,0,4.4c-2.9,0-5.8,1.3-8.8,3.8c-18.7,15.1-37.4,30.1-56,45.1
		c17,19.8,34.1,39.6,51.1,59.4c2.1,2.4,4.6,4.9,7.4,7.2c2.8,2.4,5.6,4,8.4,4.8c0,1.5,0,2.9,0,4.4c-15,0-30,0-45,0c0-1.5,0-2.9,0-4.4
		c2.1,0,3.2-0.6,3.2-1.7c0-0.8-1.1-2.6-3.4-5.4c-13.9-16.1-27.7-32.1-41.6-48.2c-6.8,5.3-13.6,10.6-20.4,15.9
		C805,557,805,568.6,805,580.3"/>
	<path class="st0" d="M941.1,584.7c4.2,0,6.3-1.5,6.3-4.4c0.1-37.3,0.1-74.6,0.2-111.9c0-3-2.1-4.4-6.3-4.3c0-1.5,0-3,0-4.4
		c13.5-0.2,27-0.5,40.4-0.8c0,1.5,0,3,0,4.5c-4.2,0.1-6.3,1.6-6.3,4.6c-0.1,37.5-0.1,74.9-0.2,112.4c0,3,2.1,4.5,6.3,4.4
		c0,1.5,0,3,0,4.5c-13.5,0-26.9,0-40.4,0C941.1,587.6,941.1,586.2,941.1,584.7"/>
	<path class="st0" d="M1022.7,584.5c3.1,0,4.6-1.5,4.6-4.5c0.1-37.8,0.2-75.7,0.3-113.5c0-3-1.5-4.5-4.6-4.4c0-1.5,0-3,0-4.5
		c13.9-0.4,27.8-0.9,41.6-1.4c0,1.5,0,3,0,4.5c-1.3,0-2,0.9-2,2.6c0,1.3,1.6,3.6,4.9,6.9c23.2,24.3,46.4,49,69.6,74.2
		c0.1-27.3,0.2-54.7,0.3-82c0-3.1-2.1-4.5-6.3-4.4c0-1.5,0-3.1,0-4.6c12.3-0.6,24.5-1.2,36.8-1.8c0,1.6,0,3.1,0,4.7
		c-3.1,0.2-4.6,1.8-4.6,4.9c-0.1,39.4-0.3,78.8-0.4,118.1c0,3.1,1.5,4.7,4.6,4.7c0,1.6,0,3.1,0,4.7c-13.1,0-26.3,0-39.4,0.1
		c0-1.5,0-3.1,0-4.6c2.1,0,3.2-0.8,3.2-2.3c0-1.2-1.3-3.2-3.9-5.9c-24.6-27.1-49.3-53.5-74-79.6c-0.1,27.8-0.2,55.7-0.2,83.5
		c0,3,1.8,4.5,5.6,4.5c0,1.5,0,3,0,4.5c-12,0-24,0-36,0C1022.7,587.5,1022.7,586,1022.7,584.5"/>
	<path class="st0" d="M1289.4,444.2c8.9-0.6,17.2,0.2,24.9,2.6c7.7,2.4,14.3,6.4,20,12.1c5.6,5.7,10.1,13.1,13.3,22.2
		c3.2,9.1,4.8,20.1,4.7,32.7c0,12.7-1.7,23.7-5,33.1c-3.3,9.4-7.8,17.2-13.5,23.3c-5.7,6.2-12.4,10.7-20.1,13.7
		c-7.7,3-16,4.5-24.9,4.5c-26.9,0.1-53.8,0.1-80.7,0.2c0-1.6,0-3.2,0-4.8c3.7,0,5.6-1.6,5.6-4.8c0.2-40.2,0.3-80.3,0.4-120.5
		c0-3.2-1.8-4.7-5.6-4.5c0-1.6,0-3.2,0-4.8C1235.6,447.9,1262.5,446.1,1289.4,444.2 M1279.2,565.1c7.6-0.1,14.3-0.9,19.9-2.5
		c5.7-1.6,10.4-4.3,14.1-8.1c3.7-3.9,6.6-9,8.4-15.4c1.9-6.4,2.8-14.4,2.9-24.1c0-9.7-0.9-17.7-2.7-23.9c-1.8-6.2-4.6-11.1-8.3-14.7
		c-3.7-3.6-8.4-5.9-14.1-7c-5.7-1.1-12.3-1.4-19.9-1c-12.6,0.7-25.1,1.5-37.7,2.1c-0.1,31.7-0.2,63.4-0.4,95.1
		C1254.1,565.4,1266.7,565.3,1279.2,565.1"/>
	<path class="st0" d="M1386.4,583.1c4.2,0,6.3-1.8,6.3-5.3c0.1-43.9,0.3-87.7,0.4-131.6c0-3.5-2.1-5-6.3-4.7c0-1.7,0-3.5,0-5.2
		c13.4-1.2,26.9-2.4,40.3-3.7c0,1.8,0,3.5,0,5.3c-4.2,0.4-6.3,2.3-6.3,5.9c-0.1,44.6-0.2,89.1-0.4,133.7c0,3.5,2.1,5.3,6.3,5.3
		c0,1.8,0,3.5,0,5.3c-13.5,0-26.9,0.1-40.4,0.1C1386.4,586.6,1386.4,584.8,1386.4,583.1"/>
	<path class="st0" d="M1587.6,450.9c0-2.4-0.7-4.1-2.1-5.2s-3.8-1.4-7.2-1.1c-26.2,2.6-52.4,5.1-78.6,7.4c0,12.8,0,25.5-0.1,38.3
		c15.9-1,31.7-2.1,47.6-3.2c3.2-0.2,5.7-1,7.5-2.3c1.8-1.3,2.7-4.4,2.7-9.3c1.5-0.1,2.9-0.2,4.4-0.3c0,16.7,0,33.4,0,50.1
		c-1.5,0.1-2.9,0.1-4.4,0.2c0-4.9-0.9-8-2.7-9.3c-1.8-1.3-4.3-1.9-7.5-1.7c-15.9,0.8-31.7,1.6-47.6,2.4c0,14.2,0,28.4-0.1,42.6
		c27.1-0.6,54.1-1.2,81.2-1.8c2.4-0.1,4.4-0.9,6-2.4c1.5-1.6,2.3-3.7,2.3-6.3c1.5,0,2.9-0.1,4.4-0.1v45h-4.4c0-3.3-0.8-5.1-2.3-5.6
		c-1.5-0.4-3.5-0.6-6-0.6c-37.8,0.2-75.5,0.3-113.3,0.4c0-1.8,0-3.6,0-5.4c1.1,0,2.1-0.5,3-1.4c0.9-0.9,1.3-2.3,1.3-4.1
		c0.1-45.9,0.2-91.9,0.3-137.8c0-1.8-0.4-3.1-1.3-4c-0.9-0.8-1.9-1.2-3-1.1c0-1.8,0-3.6,0-5.4c36.9-3.7,73.7-7.7,110.6-12.1
		c3.4-0.4,5.8-1.4,7.1-3c1.4-1.6,2.1-3.6,2.1-6c1.5-0.2,2.9-0.4,4.4-0.5v43.3C1590.5,450.6,1589,450.8,1587.6,450.9"/>
	<path class="st0" d="M210.4,466.1l-4.9-2c0.1-1.9,0.2-2.5,0.1-3.3c-0.5-3.3-1.6-5.2-4.6-7.8s-6.8-4.9-11.4-6.7
		c-4.6-1.9-9.6-3.2-15.1-4.1c-5.4-0.9-10.6-1-15.4-1c-6,0-12,1.1-17.9,3.4c-5.9,2.3-11.2,5.9-15.8,10.7c-4.6,4.8-8.3,11.1-11.2,18.7
		c-2.8,7.7-4.3,17-4.3,27.9c0,10.7,1.4,20,4.3,27.7c2.8,7.8,6.6,14.1,11.2,18.9c4.6,4.8,9.9,8.4,15.8,10.7
		c5.9,2.3,11.9,3.4,17.9,3.4c9.2,0,17.5-1,24.9-3.1c7.4-2.1,13.7-4.3,18.8-6.7v-28.2h-31.1c-2.3,0-4,0.7-5.1,2
		c-1.1,1.3-1.9,4.2-2.2,8.5H160v-42h4.4c0.3,3.7,1,6.1,2.2,7.1c1.1,1,2.8,1.5,5.1,1.5h60.8v5.9c-3.2,0.7-5.3,1.4-6.1,2.3
		c-0.8,0.9-1.2,2.7-1.2,5.6v37.1c0,2.2,0.5,3.6,1.5,4.3c1,0.7,2.1,1.4,3.4,2.3v5.3c-5.4,5-11,9.2-16.9,12.5
		c-5.9,3.3-11.9,5.9-18,7.7c-6.1,1.9-12.2,3-18.2,3.4c-6.1,0.4-12,0.7-17.9,0.7c-11.3,0-21.7-1.9-31-5.7c-9.3-3.8-17.3-9.5-24-17.1
		c-6.6-7.5-11.8-16.7-15.4-27.6c-3.6-10.8-5.5-23.1-5.5-36.9c0-13.8,1.8-26.1,5.5-36.9c3.6-10.8,8.8-20.1,15.4-27.7
		c6.6-7.7,14.6-13.5,24-17.6c9.3-4,19.7-6.1,31-6.1c7.1,0,13.9,0.7,20.4,2c6.5,1.3,12.2,2.8,17.3,4.4c5,1.6,9.2,3.2,12.5,4.6
		c3.3,1.4,5.4,2.1,6.2,2.1c1.5,0,2.6-0.4,3.4-1.3c0.8-0.9,1.6-1.6,2.4-2.3l2.9,2.3L210.4,466.1z"/>
	<path class="st1" d="M81.5,357.4c0-3.1,3.5-5.1,9-5.1h363.3v-7.9H90.5c-5.5,0-9-2-9-5.1v-0.8H78v19.7h3.4V357.4z"/>
	<path class="st1" d="M1587.7,357.4v0.8h3.4v-19.7h-3.4v0.8c0,3.1-3.5,5.1-9,5.1h-361.8v7.9h361.8
		C1584.1,352.3,1587.7,354.3,1587.7,357.4"/>
</g>
</svg>
