<?xml version="1.0" encoding="utf-8"?>
<!-- Generator: Adobe Illustrator 19.0.0, SVG Export Plug-In . SVG Version: 6.00 Build 0)  -->
<svg version="1.1" id="Layer_1" xmlns="http://www.w3.org/2000/svg" xmlns:xlink="http://www.w3.org/1999/xlink" x="0px" y="0px"
	 viewBox="579 -404.9 457 250" style="enable-background:new 579 -404.9 457 250;" xml:space="preserve">
<style type="text/css">
	.st0{stroke:#000000;stroke-miterlimit:10;}
</style>
<path class="st0" d="M652.6-389.8c-4.2,1-6.2,4.2-6.2,9.7v26.5c0,5.6,2.1,8.8,6.2,9.7c0.4,0.1,0.6,0.3,0.6,0.6v8
	c0,0.4-0.2,0.6-0.6,0.6c-10.5-1.4-15.8-7.9-15.8-19.4v-25.6c0-5.5,1.3-10,4-13.4c2.7-3.4,6.6-5.4,11.7-6c0.4-0.1,0.6,0.1,0.6,0.6v8
	C653.2-390.1,653-389.9,652.6-389.8z M658.1-343.9c2-0.4,3.5-1.5,4.6-3.1c1.1-1.7,1.6-3.6,1.6-5.9v-9.1h-8.4c-0.4,0-0.6-0.2-0.6-0.5
	v-7.6c0-0.4,0.2-0.5,0.6-0.5h17.5c0.3,0,0.5,0.2,0.5,0.6v17.4c0,4.7-1.3,8.7-3.8,12c-2.8,3.5-6.8,5.6-11.9,6.2
	c-0.4,0.1-0.6-0.1-0.6-0.6v-8C657.4-343.6,657.6-343.8,658.1-343.9z M658.1-389.8c-0.4-0.1-0.6-0.3-0.6-0.6v-8
	c0-0.4,0.2-0.6,0.6-0.5c5.1,0.6,9.1,2.7,11.9,6.1c2.6,3.2,3.8,7.2,3.8,11.9c0,0.4-0.2,0.6-0.6,0.6h-8.3c-0.4,0-0.6-0.2-0.6-0.6
	C664.2-386,662.1-389,658.1-389.8z"/>
<path class="st0" d="M696.8-334.6h-8.2c-0.4,0-0.6-0.2-0.6-0.6v-63.2c0-0.4,0.2-0.6,0.6-0.6h8.4c0.4,0,0.5,0.2,0.5,0.5v63.3
	C697.5-334.8,697.3-334.6,696.8-334.6z M705.9-389.7h-3.6c-0.4,0-0.6-0.2-0.6-0.6v-8c0-0.4,0.2-0.6,0.6-0.6h3.7
	c5.3,0,9.7,1.6,13.3,4.7c3.7,3.4,5.6,7.8,5.6,13.4c0,4.2-1.1,7.9-3.2,11.1c-1.8,2.8-4.3,4.8-7.4,6.2l10.6,28
	c0.3,0.6,0.1,0.9-0.5,0.9h-9.2c-0.2,0-0.3-0.1-0.4-0.4l-9.1-26.8h-3.4c-0.4,0-0.6-0.2-0.6-0.6v-7.9c0-0.4,0.2-0.6,0.6-0.6h3.6
	c2.7,0,5-0.9,6.8-2.8s2.7-4.2,2.7-6.8c0-2.6-0.9-4.7-2.6-6.5C711.2-388.8,708.8-389.7,705.9-389.7z"/>
<path class="st0" d="M746.7-334.6H738c-0.4,0-0.6-0.2-0.6-0.6l15.5-54.8c0.1-0.2,0.2-0.3,0.4-0.3s0.3,0.1,0.4,0.3l4.4,16l-4.6,16.4
	h9.6c0.1,0,0.2,0.1,0.3,0.2l2.4,9.1c0.1,0.2,0,0.4-0.3,0.4h-14.8l-3.5,13.2C747-334.7,746.9-334.6,746.7-334.6z M784-334.6h-9.8
	c-0.1-0.1-0.2-0.2-0.3-0.4l-18.1-63.3c-0.1-0.5,0-0.7,0.3-0.7h8.9c0.1,0,0.2,0.1,0.4,0.4l18.7,63.5
	C784.2-334.8,784.1-334.6,784-334.6z"/>
<path class="st0" d="M806.2-334.6h-8.1c-0.4,0-0.6-0.2-0.6-0.6v-48.6c0-0.4,0.1-0.7,0.4-0.7c0.2,0,0.4,0.2,0.5,0.5l8.4,22.2v26.5
	C806.8-334.8,806.6-334.6,806.2-334.6z M825.9-345.9h-8.7c-0.1-0.1-0.2-0.2-0.3-0.4l-19.3-52.1c-0.2-0.4-0.1-0.6,0.4-0.6h9.1
	c0.2,0,0.4,0.1,0.5,0.4l19.1,51.1l-0.3,1C826.2-346.1,826.1-345.9,825.9-345.9z M836.1-399h9.2c0.4,0,0.5,0.2,0.4,0.6l-16.4,43.9
	c-0.2,0.5-0.4,0.5-0.5,0l-4.8-12.6l11.8-31.4C835.8-398.8,836-399,836.1-399z M837-334.6c-0.4,0-0.6-0.2-0.6-0.6v-26.5l8.4-22.2
	c0.1-0.3,0.3-0.5,0.5-0.5c0.2,0.1,0.4,0.3,0.4,0.7v48.6c0,0.4-0.2,0.6-0.6,0.6H837V-334.6z"/>
<path class="st0" d="M869.3-334.6h-8.2c-0.4,0-0.6-0.2-0.6-0.6v-63.2c0-0.4,0.2-0.6,0.5-0.6h8.4c0.4,0,0.5,0.2,0.5,0.5v63.3
	C870-334.8,869.7-334.6,869.3-334.6z M878.4-389.7h-3.6c-0.4,0-0.6-0.2-0.6-0.6v-8c0-0.4,0.2-0.6,0.6-0.6h4.1c5.3,0,9.6,1.6,13,4.8
	c3.6,3.4,5.4,7.9,5.4,13.5s-1.9,10.1-5.7,13.6c-3.5,3.2-7.8,4.9-12.7,4.9h-4.1c-0.4,0-0.6-0.2-0.6-0.6v-7.9c0-0.4,0.2-0.6,0.6-0.6
	h3.6c2.8,0,5.1-0.9,6.9-2.6c1.8-1.7,2.7-3.9,2.7-6.6c0-2.6-0.9-4.7-2.6-6.5C883.7-388.8,881.3-389.7,878.4-389.7z"/>
<path class="st0" d="M920-334.6h-8.2c-0.4,0-0.6-0.2-0.6-0.6v-63.2c0-0.4,0.2-0.6,0.5-0.6h8.4c0.4,0,0.5,0.2,0.5,0.5v63.3
	C920.6-334.8,920.4-334.6,920-334.6z"/>
<path class="st0" d="M943.3-334.6h-8.7c-0.4,0-0.6-0.2-0.6-0.6l15.5-54.8c0.1-0.2,0.2-0.3,0.4-0.3s0.3,0.1,0.4,0.3l4.4,16l-4.6,16.4
	h9.6c0.1,0,0.2,0.1,0.3,0.2l2.4,9.1c0.1,0.2,0,0.4-0.3,0.4h-14.8l-3.5,13.2C943.6-334.7,943.5-334.6,943.3-334.6z M980.6-334.6h-9.8
	c-0.1-0.1-0.2-0.2-0.3-0.4l-18.1-63.3c-0.1-0.5,0-0.7,0.3-0.7h8.9c0.1,0,0.2,0.1,0.4,0.4l18.7,63.5
	C980.7-334.8,980.7-334.6,980.6-334.6z"/>
<path class="st0" d="M1030.4-334.6h-9.3c-0.1-0.1-0.2-0.2-0.3-0.4L994-398.3c-0.2-0.4-0.1-0.6,0.4-0.6h9.1c0.2,0,0.4,0.1,0.5,0.4
	l26.8,63.4C1031.1-334.8,1030.9-334.6,1030.4-334.6z M1002.5-334.6h-7.7c-0.4,0-0.6-0.2-0.6-0.6v-49.3c0-0.4,0.1-0.7,0.4-0.7
	c0.2,0,0.4,0.2,0.5,0.5l8.1,19.1v30.3C1003.1-334.9,1002.9-334.6,1002.5-334.6z M1022.4-399h7.7c0.4,0,0.6,0.2,0.6,0.6v49.3
	c0,0.4-0.1,0.7-0.4,0.7c-0.2,0-0.4-0.2-0.5-0.5l-8.1-19v-30.3C1021.7-398.7,1022-399,1022.4-399z"/>
<path class="st0" d="M604.5-247.6h-8.2c-0.4,0-0.6-0.2-0.6-0.6v-54.5H585c-0.4,0-0.6-0.2-0.6-0.6v-8.1c0-0.4,0.2-0.6,0.5-0.6h31.3
	c0.4,0,0.5,0.2,0.5,0.5v8.1c0,0.4-0.2,0.6-0.6,0.6h-10.8v54.5C605.1-247.8,604.9-247.6,604.5-247.6z"/>
<path class="st0" d="M639.9-247.6h-8.2c-0.4,0-0.6-0.2-0.6-0.6v-63.2c0-0.4,0.2-0.6,0.6-0.6h8.4c0.4,0,0.5,0.2,0.5,0.5v63.3
	C640.6-247.8,640.4-247.6,639.9-247.6z M649-302.7h-3.6c-0.4,0-0.6-0.2-0.6-0.6v-8c0-0.4,0.2-0.6,0.6-0.6h3.7
	c5.3,0,9.7,1.6,13.3,4.7c3.7,3.4,5.6,7.8,5.6,13.4c0,4.2-1.1,7.9-3.2,11.1c-1.8,2.8-4.3,4.8-7.4,6.2l10.6,28
	c0.3,0.6,0.1,0.9-0.5,0.9h-9.2c-0.2,0-0.3-0.1-0.4-0.4l-9.1-26.8h-3.4c-0.4,0-0.6-0.2-0.6-0.6v-7.9c0-0.4,0.2-0.6,0.6-0.6h3.6
	c2.7,0,5-0.9,6.8-2.8s2.7-4.2,2.7-6.8c0-2.6-0.9-4.7-2.6-6.5C654.3-301.8,651.9-302.7,649-302.7z"/>
<path class="st0" d="M691-247.6h-8.7c-0.4,0-0.6-0.2-0.6-0.6l15.5-54.8c0.1-0.2,0.2-0.3,0.4-0.3c0.2,0,0.3,0.1,0.4,0.3l4.4,16
	l-4.6,16.4h9.6c0.1,0,0.2,0.1,0.3,0.2l2.4,9.1c0.1,0.2,0,0.4-0.3,0.4H695l-3.5,13.2C691.3-247.7,691.2-247.6,691-247.6z
	 M728.3-247.6h-9.8c-0.1-0.1-0.2-0.2-0.3-0.4l-18.1-63.3c-0.1-0.5,0-0.7,0.3-0.7h8.9c0.1,0,0.2,0.1,0.4,0.4l18.7,63.5
	C728.4-247.8,728.4-247.6,728.3-247.6z"/>
<path class="st0" d="M779.3-247.6H770c-0.1-0.1-0.2-0.2-0.3-0.4l-26.8-63.3c-0.2-0.4-0.1-0.6,0.4-0.6h9.1c0.2,0,0.4,0.1,0.5,0.4
	l26.8,63.4C780-247.8,779.8-247.6,779.3-247.6z M751.4-247.6h-7.7c-0.4,0-0.6-0.2-0.6-0.6v-49.3c0-0.4,0.1-0.7,0.4-0.7
	c0.2,0,0.4,0.2,0.5,0.5l8.1,19.1v30.3C752-247.9,751.8-247.6,751.4-247.6z M771.3-312h7.7c0.4,0,0.6,0.2,0.6,0.6v49.3
	c0,0.4-0.1,0.7-0.4,0.7c-0.2,0-0.4-0.2-0.5-0.5l-8.1-19.1v-30.3C770.6-311.7,770.8-312,771.3-312z"/>
<path class="st0" d="M809.8-247.6c-6.7-0.5-11.8-3.4-15.5-8.7c-0.1-0.1-0.1-0.2-0.1-0.3c0-0.1,0-0.2,0.1-0.3l6.4-5.2
	c0.2-0.1,0.3-0.1,0.5,0c2.2,2.8,5,4.5,8.5,5c0.4,0,0.6,0.2,0.6,0.7v8.4C810.4-247.7,810.2-247.6,809.8-247.6z M831.2-266.2
	c0,5.1-1.8,9.6-5.4,13.4c-3.3,3.4-6.8,5.1-10.5,5.1c-0.3,0-0.5-0.1-0.5-0.3v-8.4c0-0.5,0.2-0.7,0.5-0.7c1.8-0.4,3.4-1.4,4.7-2.8
	c1.5-1.7,2.2-3.9,2.2-6.4c0-4.5-3.3-7.4-10-8.9c-5.1-0.6-9.3-2.5-12.6-5.7c-3.5-3.4-5.2-7.7-5.2-12.9c0-5.8,2-10.4,6-14
	c3.2-2.8,6.4-4.2,9.8-4.2c0.4,0,0.6,0.1,0.6,0.4v8.5c0,0.3-0.2,0.5-0.5,0.5c-1.4,0.3-2.7,1.1-4,2.3c-1.8,1.7-2.7,3.9-2.7,6.5
	c0,2.9,1,5.1,3.1,6.7c1.5,1.2,4,2.3,7.3,3.1c4.8,0.7,8.7,2.4,11.7,5.1C829.4-275.8,831.2-271.5,831.2-266.2z M815.4-312
	c6.7,0.6,11.8,3.4,15.5,8.5c0.2,0.2,0.2,0.4,0,0.6l-6.3,5.4c-0.3,0.1-0.5,0.1-0.6,0c-2-2.9-4.8-4.6-8.4-5.2c-0.4,0-0.6-0.2-0.6-0.7
	v-8.2C814.9-311.9,815.1-312,815.4-312z"/>
<path class="st0" d="M854.6-247.6h-8.2c-0.4,0-0.6-0.2-0.6-0.6v-63.2c0-0.4,0.2-0.6,0.5-0.6h8.4c0.4,0,0.5,0.2,0.5,0.5v63.3
	C855.2-247.8,855-247.6,854.6-247.6z M863.6-302.7H860c-0.4,0-0.6-0.2-0.6-0.6v-8c0-0.4,0.2-0.6,0.6-0.6h4.1c5.3,0,9.6,1.6,13,4.8
	c3.6,3.4,5.4,7.9,5.4,13.5s-1.9,10.1-5.7,13.6c-3.5,3.2-7.8,4.9-12.7,4.9H860c-0.4,0-0.6-0.2-0.6-0.6v-7.9c0-0.4,0.2-0.6,0.6-0.6
	h3.6c2.8,0,5.1-0.9,6.9-2.6c1.8-1.7,2.7-3.9,2.7-6.6c0-2.6-0.9-4.7-2.6-6.5C868.9-301.8,866.6-302.7,863.6-302.7z"/>
<path class="st0" d="M912.8-302.8c-4.2,1-6.2,4.2-6.2,9.7v26.5c0,5.6,2.1,8.8,6.2,9.7c0.4,0.1,0.6,0.3,0.6,0.6v8
	c0,0.4-0.2,0.6-0.6,0.6c-10.5-1.4-15.8-7.9-15.8-19.4v-25.6c0-5.5,1.3-10,4-13.4s6.6-5.4,11.7-6c0.4-0.1,0.6,0.1,0.6,0.6v8
	C913.4-303.1,913.2-302.9,912.8-302.8z M918.3-302.8c-0.4-0.1-0.6-0.3-0.6-0.6v-8c0-0.4,0.2-0.6,0.6-0.6c5.1,0.6,9,2.6,11.7,6
	s4,7.9,4,13.4v25.6c0,11.5-5.3,18-15.8,19.4c-0.4,0.1-0.6-0.1-0.6-0.6v-8c0-0.3,0.2-0.5,0.6-0.6c4.2-0.9,6.2-4.2,6.2-9.7V-293
	C924.5-298.6,922.4-301.8,918.3-302.8z"/>
<path class="st0" d="M958.2-247.6H950c-0.4,0-0.6-0.2-0.6-0.6v-63.2c0-0.4,0.2-0.6,0.5-0.6h8.4c0.4,0,0.5,0.2,0.5,0.5v63.3
	C958.9-247.8,958.7-247.6,958.2-247.6z M967.3-302.7h-3.6c-0.4,0-0.6-0.2-0.6-0.6v-8c0-0.4,0.2-0.6,0.6-0.6h3.7
	c5.3,0,9.7,1.6,13.3,4.7c3.7,3.4,5.6,7.8,5.6,13.4c0,4.2-1.1,7.9-3.2,11.1c-1.8,2.8-4.3,4.8-7.4,6.2l10.6,28
	c0.3,0.6,0.1,0.9-0.5,0.9h-9.2c-0.2,0-0.3-0.1-0.4-0.4l-9.1-26.8h-3.4c-0.4,0-0.6-0.2-0.6-0.6v-7.9c0-0.4,0.2-0.6,0.6-0.6h3.6
	c2.8,0,5-0.9,6.8-2.8s2.7-4.2,2.7-6.8c0-2.6-0.9-4.7-2.6-6.5C972.6-301.8,970.2-302.7,967.3-302.7z"/>
<path class="st0" d="M1020.2-247.6h-8.2c-0.4,0-0.6-0.2-0.6-0.6v-54.5h-10.7c-0.4,0-0.6-0.2-0.6-0.6v-8.1c0-0.4,0.2-0.6,0.5-0.6
	h31.1c0.4,0,0.5,0.2,0.5,0.5v8.1c0,0.4-0.2,0.6-0.6,0.6h-10.8v54.5C1020.8-247.8,1020.6-247.6,1020.2-247.6z"/>
<path class="st0" d="M728.7-160.6h-8c-0.4,0-0.6-0.2-0.6-0.6v-48.6c0-0.4,0.1-0.7,0.4-0.7c0.2,0,0.4,0.2,0.5,0.5l8.4,22.2v26.5
	C729.4-160.8,729.2-160.6,728.7-160.6z M748.4-171.9h-8.7c-0.1-0.1-0.2-0.2-0.3-0.4l-19.3-52.1c-0.2-0.4-0.1-0.6,0.4-0.6h9.1
	c0.2,0,0.4,0.1,0.5,0.4l19.1,51.1l-0.3,1C748.8-172.1,748.6-171.9,748.4-171.9z M758.7-225h9.2c0.4,0,0.5,0.2,0.4,0.6l-16.4,43.9
	c-0.2,0.5-0.4,0.5-0.5,0l-4.8-12.6l11.8-31.4C758.4-224.8,758.5-225,758.7-225z M759.5-160.6c-0.4,0-0.6-0.2-0.6-0.6v-26.5l8.4-22.2
	c0.1-0.3,0.3-0.5,0.5-0.5c0.2,0.1,0.4,0.3,0.4,0.7v48.6c0,0.4-0.2,0.6-0.6,0.6L759.5-160.6L759.5-160.6z"/>
<path class="st0" d="M791.6-224.4v44.8c0,5.5,2.2,8.8,6.6,9.7c0.4,0.1,0.6,0.3,0.6,0.6v8.1c0,0.4-0.2,0.6-0.6,0.6
	c-5.1-0.7-9-2.7-11.7-6.1s-4-7.8-4-13.4v-44.3c0-0.4,0.2-0.6,0.5-0.6h8.1C791.4-225,791.6-224.8,791.6-224.4z M810.1-224.4
	c0-0.4,0.2-0.6,0.6-0.6h8.1c0.4,0,0.5,0.2,0.5,0.6v44.3c0,5.5-1.3,10-4,13.4s-6.6,5.4-11.7,6.1c-0.4,0.1-0.6-0.1-0.6-0.6v-8.1
	c0-0.3,0.2-0.5,0.6-0.6c4.4-1,6.6-4.2,6.6-9.7L810.1-224.4L810.1-224.4z"/>
<path class="st0" d="M847.6-160.6c-6.7-0.5-11.8-3.4-15.5-8.7c-0.1-0.1-0.1-0.2-0.1-0.3c0-0.1,0-0.2,0.1-0.3l6.4-5.2
	c0.2-0.1,0.3-0.1,0.5,0c2.2,2.8,5,4.5,8.5,5c0.4,0,0.6,0.2,0.6,0.7v8.4C848.2-160.7,848-160.6,847.6-160.6z M869-179.2
	c0,5.1-1.8,9.6-5.4,13.4c-3.3,3.4-6.8,5.1-10.5,5.1c-0.3,0-0.5-0.1-0.5-0.3v-8.4c0-0.5,0.2-0.7,0.5-0.7c1.8-0.4,3.4-1.4,4.7-2.8
	c1.5-1.7,2.2-3.9,2.2-6.4c0-4.5-3.3-7.4-10-8.9c-5.1-0.6-9.3-2.5-12.6-5.7c-3.5-3.4-5.2-7.7-5.2-12.9c0-5.8,2-10.4,6-14
	c3.2-2.8,6.4-4.2,9.8-4.2c0.4,0,0.6,0.1,0.6,0.4v8.5c0,0.3-0.2,0.5-0.5,0.5c-1.4,0.3-2.8,1.1-4,2.3c-1.8,1.7-2.7,3.9-2.7,6.5
	c0,2.9,1,5.1,3.1,6.7c1.5,1.2,4,2.3,7.3,3.1c4.8,0.7,8.7,2.4,11.7,5.1C867.1-188.8,869-184.5,869-179.2z M853.2-225
	c6.7,0.6,11.8,3.4,15.5,8.5c0.2,0.2,0.2,0.4,0,0.6l-6.3,5.4c-0.3,0.1-0.5,0.1-0.6,0c-2-2.9-4.8-4.6-8.4-5.2c-0.4,0-0.6-0.2-0.6-0.7
	v-8.2C852.6-224.9,852.8-225,853.2-225z"/>
<path class="st0" d="M891.1-160.6h-8.2c-0.4,0-0.6-0.2-0.6-0.6v-63.2c0-0.4,0.2-0.6,0.5-0.6h8.4c0.4,0,0.5,0.2,0.5,0.5v63.3
	C891.8-160.8,891.6-160.6,891.1-160.6z M895.8-216.5v-7.9c0-0.4,0.2-0.6,0.6-0.6h21.9c0.4,0,0.6,0.2,0.6,0.6v8.1
	c0,0.4-0.2,0.6-0.5,0.6h-22.1C896-215.8,895.8-216,895.8-216.5z M895.8-188.8v-7.8c0-0.4,0.2-0.6,0.6-0.6h14.8
	c0.4,0,0.6,0.2,0.6,0.5v8c0,0.4-0.2,0.5-0.5,0.5h-14.9C896-188.1,895.8-188.3,895.8-188.8z M895.8-161.3v-7.9c0-0.4,0.2-0.6,0.6-0.6
	h21.9c0.4,0,0.6,0.2,0.6,0.6v8.1c0,0.4-0.2,0.6-0.5,0.6h-22.1C896-160.6,895.8-160.8,895.8-161.3z"/>
<path class="st0" d="M940.8-224.4v44.8c0,5.5,2.2,8.8,6.6,9.7c0.4,0.1,0.6,0.3,0.6,0.6v8.1c0,0.4-0.2,0.6-0.6,0.6
	c-5.1-0.7-9-2.7-11.7-6.1s-4-7.8-4-13.4v-44.3c0-0.4,0.2-0.6,0.5-0.6h8.1C940.6-225,940.8-224.8,940.8-224.4z M959.3-224.4
	c0-0.4,0.2-0.6,0.5-0.6h8.1c0.4,0,0.5,0.2,0.5,0.6v44.3c0,5.5-1.3,10-4,13.4s-6.6,5.4-11.7,6.1c-0.4,0.1-0.6-0.1-0.6-0.6v-8.1
	c0-0.3,0.2-0.5,0.6-0.6c4.4-1,6.6-4.2,6.6-9.7L959.3-224.4L959.3-224.4z"/>
<path class="st0" d="M991.3-160.6h-8.1c-0.4,0-0.6-0.2-0.6-0.6v-48.6c0-0.4,0.1-0.7,0.4-0.7c0.2,0,0.4,0.2,0.5,0.5l8.4,22.2v26.5
	C992-160.8,991.7-160.6,991.3-160.6z M1011-171.9h-8.7c-0.1-0.1-0.2-0.2-0.3-0.4l-19.3-52c-0.2-0.4-0.1-0.6,0.4-0.6h9.1
	c0.2,0,0.4,0.1,0.5,0.4l19.1,51.1l-0.3,1C1011.3-172.1,1011.2-171.9,1011-171.9z M1021.3-225h9.2c0.4,0,0.5,0.2,0.4,0.6l-16.4,43.9
	c-0.2,0.5-0.4,0.5-0.5,0l-4.8-12.6l11.8-31.4C1021-224.8,1021.1-225,1021.3-225z M1022.1-160.6c-0.4,0-0.6-0.2-0.6-0.6v-26.5
	l8.4-22.2c0.1-0.3,0.3-0.5,0.5-0.5c0.2,0.1,0.4,0.3,0.4,0.7v48.6c0,0.4-0.2,0.6-0.6,0.6L1022.1-160.6L1022.1-160.6z"/>
<path d="M590.3-334h-2.6c-0.1,0-0.2-0.1-0.2-0.2v-17.3h-3.4c-0.1,0-0.2-0.1-0.2-0.2v-2.5c0-0.1,0.1-0.2,0.2-0.2h9.9
	c0.1,0,0.2,0,0.2,0.1v2.6c0,0.1-0.1,0.2-0.2,0.2h-3.4v17.2C590.5-334.1,590.4-334,590.3-334z"/>
<path d="M602-334h-2.6c-0.1,0-0.2-0.1-0.2-0.2v-20c0-0.1,0.1-0.2,0.2-0.2h2.7c0.1,0,0.2,0,0.2,0.1v20C602.2-334.1,602.2-334,602-334
	z M603.4-342.9v-2.5c0-0.1,0.1-0.2,0.2-0.2h2.8c0.1,0,0.2,0.1,0.2,0.2v2.5c0,0.1,0,0.2-0.1,0.2h-2.8
	C603.4-342.7,603.4-342.7,603.4-342.9z M610.6-334H608c-0.1,0-0.2-0.1-0.2-0.2v-20c0-0.1,0.1-0.2,0.2-0.2h2.7c0.1,0,0.2,0,0.2,0.1
	v20C610.8-334.1,610.7-334,610.6-334z"/>
<path d="M619.1-334h-2.6c-0.1,0-0.2-0.1-0.2-0.2v-20c0-0.1,0.1-0.2,0.2-0.2h2.7c0.1,0,0.2,0,0.2,0.1v20
	C619.3-334.1,619.2-334,619.1-334z M620.6-351.7v-2.5c0-0.1,0.1-0.2,0.2-0.2h6.9c0.1,0,0.2,0.1,0.2,0.2v2.5c0,0.1,0,0.2-0.1,0.2h-7
	C620.6-351.5,620.6-351.5,620.6-351.7z M620.6-342.9v-2.5c0-0.1,0.1-0.2,0.2-0.2h4.7c0.1,0,0.2,0.1,0.2,0.2v2.5c0,0.1,0,0.2-0.1,0.2
	h-4.7C620.6-342.7,620.6-342.8,620.6-342.9z M620.6-334.2v-2.5c0-0.1,0.1-0.2,0.2-0.2h6.9c0.1,0,0.2,0.1,0.2,0.2v2.5
	c0,0.1,0,0.2-0.1,0.2h-7C620.6-334,620.6-334.1,620.6-334.2z"/>
</svg>
