<?xml version="1.0" encoding="UTF-8"?>
<svg xmlns="http://www.w3.org/2000/svg" version="1.1" viewBox="0 0 507.5 207">
  <defs>
    <style>
      .cls-1 {
        fill: #e2e2d9;
      }
    </style>
  </defs>
  <!-- Generator: Adobe Illustrator 28.6.0, SVG Export Plug-In . SVG Version: 1.2.0 Build 709)  -->
  <g>
    <g id="Layer_8">
      <g>
        <path class="cls-1" d="M230.3,113.3h0c0,0,0,0,0,0Z"/>
        <path class="cls-1" d="M300.9,70.2c-.3-.6-2.1-.9-3-.6-.9.2-2.3.4-3.6,1.1-1.7.9-4.1,2.3-7.2,5.3s-5.2,6.1-6,7-1.5,1-1.9,1.9-1.6,2.1-2.3,3-2.4,2.5-2.3,2.9c.1.4-.2.4-.4.5s-.2.4-.4.7-2.1,3-3.5,4.7-.2.6-.6,1.3c-.4.8-.9.6-.9.6,0,0-1.6,2.1-1.6,2.1s-2.4-1.4-4.8-1c-2.6.4-3.3.1-5.7,1.9-1.2.9-2.6,1.1-3.3,2.8-.2.4-.8.4-1.1.9-.3.6-.7.6-.8.7-.3.2-.7,1.1-1.1,2,0,0,0,0,0,0-.2.2-1.7,1.2-2.2,1.4-.2.1-.5.9-.8.7,0,0-1.4.8-1.7,1.1-.3.3,0,.9-.4.9-1,0-1,.5-1.8,1.2-.3.2-.8.3-1.1.8-.2.3-.6.1-.2-.5.5-.8.6-.6.8-.8.2-.4-.2-1.3,0-1.3s.6.4,1.1-.3c.6-.9,1.6-1.9,1.8-2.8.1-.6,0-.8.2-.8s.8-.8.9-1.1c.2-.2-.3-.4-.3-.4.2,0,.8-.5,1-.6.4-.4,1.1-2.1,1.1-2.2,1.1-3-.8-4.5-4.3-2.8-1.4.6-2.9,1.4-3.4,1.9s-1,.2-2.4,1.7c-.6.7-2.3,1.9-3.3,2.8-1,.9-1.6,1.7-2.2,2.1-.6.5-.6,0-.2-.3.3-.4.4-.4.5-.4,0,0,.4-.8.5-.9.1,0,.1-1,.3-.9.2,0,.4.1.7-.4.3-.6.7-1.1.9-1.3.2-.3,0-.4.4-.8,1.3-1.3.2-.3,1.2-1.6,1.5-2.1.6-3.5-1.4-2.7-3.7,1.5-4.2,1.3-4.2,1.3-.3,0-1,.1-.2.8.8.6.6.6,2,0,.2-.1,1.3-.6.5.4-.3.4-.2.3-.2.9,0,1.1-.5.3-.9.8-.3.3-1.4,2-2.3,3.4-1,.4-1.8,1-2.2,1.2s-1.9,1.1-2,1.4c-.1.3-.6.3-.9.3s-.7.5-1.3,1c-.6.5-1.6,1.3-1.6,1.3,0,0,0,.5-.2.5s-.2-.2-.6,0-1.1.7-1.5,1.1-.5.5-.6.4c0-.1,0-.6.4-.9.3-.4.5-.8.1-1.1-.5-.4.8-.5.9-.7.2-.2,0-.8.4-1.2s-.1-1.1.1-.9c.2.2.6,0,1.2-.9s.6-1.4.6-1.4c0,0-.9-.7-.4-.7.9,0,1.8-.7,1.8-.8,0-.2.2-.2.4-.5s0-1.4.2-1.3.3.9.7.6c.4-.4.3-1,.8-1.5.4-.5.8-.6,1.3-1,.6-.6,1.4-1.6,1.3-1.9-.2-.6-1.6-.2-2-.1-.3,0-1.3,0-1.3,0-.3.3-.6.6-.9,1,0,0-.6-.2-1.1-.5s-2.5-.6-3.7-.4c-2.5.2-4.2,1-6.5,2.2-1.2.6-3.1,2.5-3.1,2.8,0,.4-.2.8-.4.8-1.5-.8-3.8,5.7-3.9,7.2-.1,1.9,0,2.8.6,3.7s2,.4,2.6,0c1.9-1.1,2.8-1.9,4.5-3.5,1.1-.9.8-1.3,1-1.3s.5,0,.7-.6c.2-.5.8-.8.8-.8.2.6,1.1-.9,1.5-1.4l1.2-1.1c.6-.6.8,0,.4.3-.2.2-.6.8-.8,1.1-.9,1.5-2.1,3.1-2.5,4.5-.2.9-.2,1.9.6,2.6,1.2,1.1,1.4.8,1.8.2.7-1.1.5-.7,1.2-1.6.9-1.1,1.1-1.1,2-1.7l1.5-1.1s1-1.3,1.7-1.2c.2,0,.2,0,1-.6.8-.5.8-.6,1.3-1l1.3-.8c.2-.1.3-.1.5-.2,0,0,0,0,0,0-1,1.4-1,1.9-1.3,2.2-.3.2-.4.2-.3.4.3.8-.4.6-.5.4,0,0-.2.9-.2.9,0,0-1,1.6-1,1.6s-.9.6-.2,1.4c.4.4.4.3.5.6.1.3,1.2,1.4,1.6.8s.4-1.4.7-1.6c.3-.2.4,0,.5-.4.1-.3,0-1,.2-.9.8.2.2,0,.7-.5,0,0,.6-.8.6-.8.6-.2.5-.4.6-.8.1-.4,0-.9.2-1,.2,0,.1.4.6,0,.4-.4.2-.7,1-1.3.8-.7.8-.9,1-1.2.2-.2,1.1-.6,1.2-.8.2-.2.3-.7.5-.6,0-.3,2-1.4,2.2-1.7.3-.3-.7-.2,2.8-1.9,0,0,1.8-1.2,2.5-1.6s1.4-.7,1.9-.4c.8.4.1,1.5-1.1,3.1,0,0-.2.3-.6.8-.1.2,0,.6-.2.9-.1.1-.5.2-.6.4l-2.8,4.2c-1.1,1.5-1.1,2.5-1.3,3,0,.4,0,1.2.6,2.1.5.9,1.2,1.3,1.9.2.3-.5.9-1.1,1.5-1.5,0,0,.6-.6,1.6-1.4,1-.8,2-1.2,2.2-1.4s0-.2.4-.5,1.8-.7,2.4-1.4c.2-.2,0-.1.4-.4,0,0,0,.2,0,.2-.6,1.6-1.3,5.7.6,7.1.6.5,2.1,0,2.5-.2s1.9-1.3,2.5-1.8c.6-.4.8-.9,1-.7s.6-.9,1.2-1.3c1.3-.8,3.8-3.6,4.8-4.8.5-.6.6,0,0,.9-.6.8-1.3,1.8-1.7,2.8,0,.2,0,.8-.1,1,0,.2-.6.5-.6.6-.4,1.5-.8,1.3.2,2.6.4.5,1.3,1.4,1.9.7s1.4-1.5,2.2-2.1,1.2-1.1,2-1.6c.7-.5,2.5-1.3,2.7-1.4.2-.2.3-1.1.6-.8.3.3.2-.2.6-.3.4,0,.8,0,1.1-.4.4-.3,1-.7,1.3-.8,2.5-1.1,3.3-.5,3.1-.9-1-1.4-2-1.1-2.5-.9-1.1.3-4.5,2.6-6.2,3.9-3,2.3-3.7,2.8-4,2.6-.2-.2,0-.5.4-1.1s.3-.8.9-1.5c.4-.4-.4-.9-.4-.9s.7,0,1.1-.4c.9-1.2,1.1-1.3.2-1.4-.4,0,1-.3,1.4-.9,1.2-1.4,1.5-2.3,2.3-3.6.2-.2-.4-.9-.3-1,0,0,.9.2,1.1,0,.7-.9,2.1-3,2.5-3.3.5-.5,1.8-2.8,1.8-2.8,0,0-.5-.2,0-.4.4-.2.4-.2.9-.6s.4-.6.7-.8c.3-.2.5-.6.6-.4,0,.1,0-.9,0-1.1s-.6-1,0-.9.6.6,1.1,0c.6-.6.6-.8,1-1.3.4-.6.8-.9.7-1,0,0-.7-.4,0-.5s1-.6,1-.9.2-.2.6-.6,0-.8.6-1.3-.7-.7,0-.8c.6,0,.9-.2,1.2-.5.2-.2.3-.4.5-.4s.6-1.4.8-1.1c.2.2.7,0,.8-.3,0-.4,0-.2.5-.9.6-.7.4-1.3.9-1.5s.6-.2.8-.4-.2-.2.4-.8,1.1-.5,1.8-1.4-.1-.6.3-1.1.6-.9,1.2-1.3.7-.8.8-1.1.2-.7.4-.6.5-.2.9-.8c.2-.4.8-.8,1.1-1s.6-.2,1.3-.8.7-1.1,1.1-.9c.4.1,0,0,1.3-.5s2.8-.5,3.7.1c.6.4.8-.1.5-.8h0ZM218.2,107.8c-.5.6-.4.8-.7.8s-1.3,1.2-1.5,1.3-1.3,1.6-1.6,1.6c-.3,0-.8.6-.8.6,0,0,0,.3-.2.3s-.4.2-.8.5l-1.7,1.4c-.6.5-1.2.1-1.3-.3-.1-.9,0-.8.2-1.5.1-.4,0-.8.4-1.2.3-.4-.5-.4-.3-.9s1.1-.6,1.5-.9c.2-.2.6-1.3,1-1.8.2-.3-.6-.8-.4-1s.9.2,1.1,0,.7-.6.8-.9c.2-.5.2-1.2.8-1.3.4,0,.5-1.1.4-1.1.5-.6.4.8,1.7-.9.8-.9,3-1.8,4.2-1.9,1.1,0,1.6.2,2,.4.2,0,.8.7.8.7,0,0-1.6,1.9-2.3,2.7-1,1.2-2.8,2.8-3.3,3.3h0ZM264.6,104.2c-1.6,2.4-2.8,2.9-4,4.3-.2.2-.8.9-1.8,1.8-1,.9,0,.3-.2.7s-.6.1-.8,0c-.1,0-1.3,1.7-2,2.1-.6.3-.8.3-1.5,1-.4.4-1.6,1.1-1.9,1-.6-.2-.6-1.2-.3-2,.2-.5.6-.9,0-1.3-.4-.2.3-.8.3-.8l.2-.8s.4-.5.8-1.1-.3-.5-.4-.8c0,0,0-.1,0-.2.3,0,.6,0,.8-.1,0,0,.1-.1.1-.2,0,0,0,0,0,0,.2-.1.5-.9.4-1.2,0-.3.8-.3,1.5-1.3.7-.9,1.8-1.1,1.8-1.6,0-.6,0-.7.4-.9s.5.2.6-.2,2.6-2,3.8-2.1c1.7,0,3.3.6,3.4.8,0,.3-1,1.8-1.6,2.8h0Z"/>
      </g>
      <g>
        <path class="cls-1" d="M63.7,37.4c.2-.2.1-.8.3-1,.2-.3.6-.2.8-.5.2-.4.3-.8.6-1.1.6-1,2.1-1.3,2.6-2.4,1-2,.6-1.1,2.1-3.2.8-1.1.7-2.7,1.8-3.5.5-.4.3.7,1.3-1.1,1.5-2.8-.8-1.4-.3-1.8,1.4-1.4,2-3,3.1-4.6.3-.4-.4-1.5-.4-1.6.4-1.5.6-.8.7-1.1.4-2.9.4-6.2-.3-9.1,0-.2-.8-.4-.8-.7s.5-.6.4-.9c-.2-.6-.7-1.7-1.2-2.1-1-.8-.6-1.3-1.6-2.1-.4-.3-1.5-.8-1.3-.3.1.4.1.2,1.1,2.3.5,1,.6,2.7.9,3.8.8,3,.1,6.7-.8,9.6,0,.2.4.6.4,1.1-.2,1.3-3.1,6-3.7,7.4-.4.9-.4,2.1-1.3,2.7-.2.1-.8,1.7-.8,1.5-1.3,3.7-5,6.9-7,10.3-1.6,2.6-2.5,3.6-4.3,5.7-2,2.3-3.5,5.1-5.1,6.6-.1.1-.2.9-.6.7-.2,0,1.1-3.7,1.5-5.9,0-.3-.2-.4-.2-.7s.4-.7.4-.9c.1-1-.2-1.9-.2-3.1,0-1.6-.6-1.3-.6-1.5,0-1.3.6-.1.8-1.9,0-.4-.4-.5-.4-.9,0-1.4.6-1.3.7-1.7.3-1.4.7-2.5.3-3.8-.3-1.1.1-1.4.2-2.1.3-2.8,1.3-4.6,2.7-5,.4-.8-1.1-2.1-1.8-1.7-1.5.8-3.3,3-3.9,4.2-.4.9-1.3,1.4-1.5,1.9,0,.1.3.5.2.6s-.6,0-.7.2c-1.3,2.3-7.2,8.9-8.8,10.6-2.1,2.2-4.7,6.1-7.1,7.8,0,0,0,.4-.1.5-.1.1-.8-.2-.9-.1-1.5,1.1-1.8,1.8-3.8,3.3-.2.2-.7,0-.8,0,.9-2,1.4-2.1,2.5-4.4,3.3-6.6.6-4,1.5-5.8.2-.6.9-.4,1.1-.8.4-1.1.9-3.1.8-4.4,0-.8.8,0,1.3-2,.6-2.8,0-2.1.2-3.2.3-1.4-1.1-1.4-1.1-1.4.4-.4,1.2-.1,1.5-.5.5-.8,0-1.5.4-2.3.2-.3.6.3.8-.2.5-2.1,1.3-4.2,1.5-6.3,0-.2-.3-.3-.3-.4,0-.2.4-.4.4-.6.2-1,.6-2,1-2.9.5-1.6,1-3,3-4.8,1-.2,1.6-1.1,1-3.3-.4-1.8-1.1-1.3-1.6-.6-.8,1.1-2,1.6-3,1.9-4.2,1.1-6.1,1.3-9.6,1.4-.2,0-.6.7-.9.7-.4.1-.7-.6-1.1-.6-4.8.2-8.7.5-11.2,1.3-1.1.2-1.3.9-1.3,1.1-.8.3-1.5-.1-2.4.2C6.8,15.5,1.3,19.9.4,25.6c0,.2.4.3.3.8-.2,1.1-.8.8-.7,1.1,0,.3.1,2.4.2,3.2.8,5.9,4.4,7.6,4.7,8,.5.3,1-.6.7-.7-.2-.1-.8-.7-1.3-1.3-.4-.4-.6-.9-.8-1.9s-.3-1.3-.3-1.5.2-.8.1-1.3c-.2-.4-.3-2.3-.3-2.3,0,0,.4-1.2.2-1.3-.6-.1,0-1.8.6-2,.6-.2.4-1.3.4-1.6s-.3-1.4.2-1.6.9-.9.8-1.1c0-.3,0-1.3.4-1.4.3-.1,1.2-.8,1.7-1.6.6-.8.9-1.4,1-1.3,0,.1.6.1.9-.5.1-.6,1.2-1.3,2.4-1.9,4.5-2.9,9.9-1.6,10.5-1.6,2.7.2,3.5-.3,3.8,0,.4.5,1.5.3,2.5.4,1,0,2.7-.5,3.3-.5.4,0,3.4-.5,5.4-1.2-1.1.9-2,2.1-2.5,3.3-1.4,3.1-3.4,8.6-4.1,12-.3,1.3.2.3,0,1.5-.3,1.4-.4.7-.7,2.3-.8,3.9-2.6,10.5-3.8,14.2,0,.2.2,1.1.1,1.4,0,.2-.6-.2-.8,0-.8,1.7-.8,2.1-1.7,3.6l-2.8,3.4c-1.6,1.9-2.2,2.3-1.7,2.8l1.9,2.5c.1.2,1.1-.9,1.3-1.1.1-.2,0-1.4.2-1.3,1.3.9,3.2-3.4,6.2-4.8.5-.2.5-1.1,1.1-1.3.3-.1.3.5.6.3,3.6-2.4,2-2.6,7.9-7.8.8-.8.3-1.4.7-1.4.9,0,4.3-3.6,5.7-5.5.2-.2.1-.8.4-.8.9,0,3.8-4.4,3.9-4.4.1-.2.3,2.1.3,2.5,0,1.6-.4,3.1-.4,4.7-.1,1.8.1,3.7,0,5.5,0,.4.4,1.1.3,1.5,0,.2-.5-.3-.4.2.2,1.8-.4,3.6-.7,5.5,0,.2.2.6.2.9,0,.2-.4.2-.4.4-.2,1.3-1.7,2.9-1.7,4.1s2.5,2.8,2.5,2.8c1.7-2.1,2.5-4.8,4.1-6.6.2-.2-.4-.7-.2-.9,1.4-1.9,1.1-.6,1.5-1,.9-1,.8-2.4,1.6-3.5,1.1-1.6,2.5-2.9,3.6-4.5,0,0,1-1.1,1.1-1.1,1.3-2,1.7-2.6,2.3-3.1.3-.3.7-.6,1.3-1.3h0Z"/>
        <path class="cls-1" d="M74.1,45.6c-.1.2-.7.6-1,1.1-1.5,2.1-1.6.8-1.8,1.6-.5.9-.2-.3-1.8,1.2-.6.5-1.5,1.1-2.5.9-.5,0-1-.6-1-1.4,0-.4,0-.4.2-.9.3-1.1-.2-.8,0-1.1l.5-1c.2-.4.5-.4-.4-.7-.4-.1.2-.3.6-.6.3-.2.3-.6.6-1,.1-.2,1.7,0,2,0,1.4-.2,1.6-.1,2-.3.5-.2,2.1-.5,1.8-.9,0-.1,2.8-1,2.9-1.4.1-.3.9,0,1.1-.2s1.4-1.3,1.3-1.6c-.3-.8.6-.2.8-.5.8-.9.8-.7.3-1.1-.2-.2.4-.5.4-.7,0-.6,0-.9-.4-1.4-.9-1.1-2.3-1.8-4-1.2-2.1.7-4.9,1.8-7.1,3.6-.2.2-.2.6-.4.8-.3.3-.6-.2-.8,0-.5.4-.9,1-1.2,1.4-.5.8-1.3,1.7-1.3,1.8-.8,0-1.1-.4-1.8.5-.6.7.4.9,1,.8-.8,1.8-.7,1.6-1,2.6,0,.2-.3.8,0,.9.4.3-.3.6-.4,1v1.5c0,1.3,1.1,2.2,1.9,2.7.7.4,2.6.1,3.3-.2,1.3-.6,1.5-.4,2.6-1.6.8-.6,2.2-1.3,2.6-2,.4-.7,1-.6,1.6-1.3.4-.4.2-1.1.3-1.8,0-.5-.6,0-.9.7h0ZM69.3,41.6c.4-.4,0-.2.2-.6,1-1.1,1.4-1,1.3-1.4s.4-.6.6-.4.5-.1.7-.3c.4-.4.6-1,1-1.3.6-.3,1.3-.2,1.6-.8.2-.4.7,0,1-.1,1.9-.8,2.1-.6,2.1-.6.7,0,.2,1-.9,2.5-.5.8-1.5,1.7-2.6,2.5-1.8,1.2-4.2,1.8-6.4,1.4,0-.4.8-.4,1.3-.7h0Z"/>
        <path class="cls-1" d="M105,40.5c.4-1.1.6-1.2.7-2.3.1-1-.3-2.1-1-2.8-1.7-1.6-5.7-.6-7.9.6-.8.4-2.1,1.2-2.8,1.8-.9.6-1.8,1.9-1.8,2.5,0,.6-.3.6-.7.5s-.4.5-1.5,1.8c0,0-.1.1-.2.2-.2,0-.5.2-.7.3-1,.5-1.1.8-2.1,1.4-1.1.6-1.3.8-2.1,1.3l-2.2,1.6c-.4.2-.4.8-1.3,1.1s-1.5,1-2,1.3c-.2,0-.3-.2-.3-.4s.3-1.3,1.3-2.2.2-.2.2-.3c0-.2-.3-.1-.3-.5s.2-.3.4-.3h.2l1.1-1.6c.2-.2.2-.4.2-.4s-.1,0-.1-.1c0-.3.5-.9.6-.9.2,0,.2.2.2.2.2,0,1.1-1.7,1.1-2.4s1.6-1.4,1.6-2.1c0,0-.2-.3-.2-.4s0,0,.1,0c.1,0,.2.2.4.2s.4-.4.5-.7c.3,0,2-1.4,2-2.5s-.2-.4-.2-.9,0-.2.2-.2c.2,0,.8.3.8.3.4.1,1.8-3.8,2.3-3.2l.4-1c.3-.8.5-.4.5-1.4s.8-.6.8-.6,1.3-1.5,2.6-3.2c1.5-1.8,1-1.8,1.4-2.3,1.3-2.1,3.8-5.1,3.8-5.5s0-.4.1-.4.2.2.4.2c.6,0,1.4-2.3,1.4-2.3v-.2c0,.1,1.9-1.6,1.7-1.4l.8-.9s0-.1,0-.3,1.2-.6,1.2-1,0-.1,0-.3,0-.1.1-.1c.1,0,.3,0,.4,0,.1,0,.4-1.3,1.6-1.6.1,0,.2-.1.2-.3v-.2c0,0,2.5-2,3-2.3.1,0,2-.9,3.2-.9s1.8,1,2.2,1,.3-.2.3-.6,0-.5,0-.8c0-.1-1-.7-2.2-.7s-3.8.5-6.6,2.3c-2.4,1.5-5.2,4.5-5.2,4.5l-1.1,1.1c-.5.4-.6,1.4-1.1,1.4-1,0-3.4,3.6-7.4,8.9-.5.7-1.2,1-1.5,1.9-.5,1.8-.4.7-.8,1.3-1.6,2.5-3.4,4.7-4.2,5.9s-1.8,3.4-2.9,4.6c-1,1.1-2.5,2.6-2.8,3.5-.6,1.6-2.3,3.8-2.7,4.2,0,0-2.8,4-2.8,5.5s.8,2.7,1.8,2.7,1.1-.2,2.5-1.3c1.5-1.1,1.5-1.4,2.5-2.2.1-.1,0-.3.2-.4l.7-.2c1.1-.8.9-.9,1.8-1.4.9-.6,2.9-1.6,2.9-1.6,0,0,.2-.4.6-.5-.3,1-.5,1.8-.4,2,.2.3.2.5,0,.5s-.4.4-.4.9-.3,1.7.8,3c.8.9,2,1.2,2.6,1.1.5,0,2.1-.4,2.7-.7.6-.4,1.8-.3,2.5-1,.3-.3,0-.1,2.1-1.1.7-1.4.6-2.8,0-2.1-.8.9-2.9,2.3-3.8,2.8-2.1,1.1-3.2,1.1-3.7.4-.4-.5-.3-1.4,0-2.1.2-.5.9-.8,1-.8,0,0,0-.4-.3-.8-.3-.3,0-.7.2-.7.8,0,.7-.8,1.1-1.5,0-.1,0-.3-.1-.5h.2c.8,0,.4-.3,0-.7.4,0,.4.3.5,0,.2-.7.6-.6,1.2-1.3.4-.5.2-.6.8-1.1s.4-.6.6-1c.1-.3-.2-1.3.2-1.2s0,1.1.9.3c.7-.6.8-.9,1.3-1.1.6-.2.4-.5.8-.4.6.1,1.4-1.1,2-1.4,1.1-.4,1.8-.4,2.1,0,.9,1.1.2,2.4-.4,3-.9.9-.6,1.5-1.6,2.1-.9.6-.9,1.2.2.9,1.3-.2,3-.8,3.3-1.5h0Z"/>
        <path class="cls-1" d="M116.8,44.8c.4,0,1.1.4,1.6-.6,0,0,.6-.6.8-.8s0-1.3.2-1.3c.2,0,.6,0,.6-.2s-.3-.6,0-.8,0-.6.1-1.1.2-.5.2-.9,0-1.4-.2-1.6-1.5-1.2-2.1-1.3c-.3,0-.2.2,0,1,.1.4-.2,2-1,4.2,0,0-1,2-.8,1.8,0,0,.4,0-1,1.4-.4.4-1.1,1.6-2,2.5,0,0-.1.5-.2.6-.1.1-.3-.1-.4,0-.9.9-1.8,1.8-3.2,2.5-1.2.6-2.6.6-3.1.2-.3-.2-.4-1.1,0-1.9,0-.2,0-.8.1-.9.9-1.3.7-1.4,1-1.9.2-.4.2-1.1.1-1.4,0-.4.4-.5.6-.2.2.3.2-.6.7-1.2l.8-.9s0-.4.2-.9c.4-1.8.8-.8,1-.7s.4,0,.6-.5.4-.8.8-1.1.5-.4.8-1c.3-.6.7-.8,1-.8s.6-.5.7-.6.5-.1.6-.1.2-.5.9-.8c.7-.2.9-.1,1.1-.2s.4-.1.9,0,.5.3,1,.4c.5,0,1.1,1.5,1.3,1.1.2-.9,0-1.2-.4-1.6s-.8-.6-2.1-.7c-2.1-.2-3.5.4-3.5.4,0,0-2.4.1-2.5.8s-1,.2-1.6.7c-1.5,1.1-2.3,2.2-3.4,3.4-.1.2.4.4.2.6s-1,.2-1.1.4c-.7.9-2.5,3.6-2.7,6.2s.3,3.5,1,4.2,2.5,1.4,4,.6,2.3-.6,2.6-.8c.3-.2,1.5-1.3,1.6-1.6,0-.3.3.5.7,0s1-.9,1.3-1.2,2.6-2.4,2.6-2.5-.8-.9-.4-.9h0Z"/>
        <path class="cls-1" d="M126.8,43.3s0,0,0,0c0,0,0,0,0,0Z"/>
        <path class="cls-1" d="M168.3,36.7c0-.6,0-.9-.4-1.4-.9-1.1-2.3-1.8-4-1.2-2.1.7-4.9,1.8-7.1,3.6-.2.2-.2.6-.4.8-.3.3-.6-.2-.8,0-.5.4-.9,1-1.2,1.4-.5.8-1.3,1.7-1.3,1.8-.8,0-1.1-.4-1.8.5-.4.4-.1.7.2.8-.3.2-1.2.7-1.7.9-.5.2-.4.6-.4.6,0,0-.3.1-.4,0,0,0-1.6,1.1-2,1.4s-.4.7-.7.8c-.9.4-1.6,1.3-2.3,1.9-.8.7-1,0-.5-.4.2-.2.4-.4.4-.6s0-.6.3-.6.6-.2.5-.2.2-.9.3-.9c0,0-.2-.9.1-.8s.8-.6.9-.7-.4-.9,0-1,.5,0,.5,0c1-1.4,1.6-2.5,1.8-2.6,1-1.1,0-1.1,0-1.2.5-.2.9-.4,1-.7.9-2,1-1.8.6-3-.3-1.1-2.1-1.8-3.8-.9-1.4.8-3,1.6-4.2,2.8-.2.2-.2.6-.2.7s-.7-.2-.9.1-.7.8-2.2,2.3c-1.3,1.2-1.6,1.6-2,1.9-.3.2.3-1.3.5-1.3s.8-1,.8-1.3-.2-1.2,0-.9.2.5.4,0c.3-.5.7-.9.9-1.4,1.1-2.3-.8-4.5-3.2-3.2l-2.5,1.3c-2.1,1.5-4,2.8-4,3.1s-.6.8-.9.8c-.2,0-.4.8-.4.8,0,0-.6-.1-2.6,1.9-.4.4-2.5,2.3-1.5,1,.2-.2.6-.8.8-1.1.1-.3-.2-.4,0-.4.2,0,.6-.5.7-.6,0,0,0-.6.1-.5.1,0,0,0,.4-.4.2-.4.4-1,.5-1.1,0,0-.1-.5.2-.4.3,0,.1.3.6-.5.4-.8.3-.5.7-1.1.6-1,.8-1.8.6-2.7-.2-.9-3.1,0-4,.4-.9.4-1.5.6-2.1.6-.9,0-1.3.3-.6.6l.4.2c.4.2,1.1,0,1.5,0,.8-.2,1.8-.7,1.2,0-.1.2-.1.3-.2.4-.1,0-.2.5-.2.4s-.2-.1-.4.2c-.1.2,0,.5-.1.6s-1,1.6-1.4,2.1c-.4.6-.6,1.2-.6,1.2,0,0-.2,0-.5.4-.2.4-.3.8-.3.8,0,0,0,0-.2.4-.3.4-.2.2-.4.6l-1.1,2-1,2s-.9,1.1-.5,2.1c.1.4,1.8,2.5,2.1,1.6.3-.8.2-1.4.9-2,.3-.2.5-1.1.6-1.2,1.1-2.1.9-1.2,1.1-1.4s-.2-.5.1-.5.6-.1.7-.3c.1-.2.8-.9,1.1-1.1.3-.2,2-1.5,2.1-1.8,0,0,.1-.6,0-.6.1-.1.5-.1.9-.1s1.3-1.5,1.9-2.1,1.3-1.1,1.8-1.5c.5-.4,1.2-.6,1.7-1s1.3-.8,1.7-.9c.6-.2,1.7-.4,1.3.8-.1.4-.5.6-.5.9s0,.1-.2.4c-.2.3-.8,1.6-1.2,1.9-.4.3-.8,1.5-.9,1.6,0,0-.8.8-1.2,1.4-.4.6-.8,1.3-.8,1.3,0,0-.5.9-.8,1.4-.9,1.6-1.3,1.8-1,3,.2.8,1.1,1.7,1.2,1.8.6.4.6-.4.9-.9.8-1.3,0-1.8.5-1.8s.6-.4.8-.8.6-.9.6-.9c0,0-.6.1-.4-.1.4-.4,1.1-.6,1.5-1.1.8-1.2,1-1.2,1.5-1.6.9-.8,1.5-1,1.7-1.9,0-.2.4,0,.6,0,1-.7,2.5-2.3,3.1-3,1.6-1.5,2-1.5,3.1-2.3.7-.4,2.1-.8,1.9-.2,0,.1,0,.8-.1.9-.1.1,0,0-.4.5-.4.6-.5.9-.5,1s-.1.7-.4.7,0-.1-.4.4-1.8,2.6-1.7,2.6.3.3,0,.5c-.3.2,0,.1-.6.7-.5.6-1.1,2.1-1.5,2.5s-.8,1.4-1,1.9c0,.4,0,1.2.6,2.1.5.9,1.2,1.3,1.9.2.2-.3,1.8-1.8,3.1-3,1-.8,1.5-1,1.7-1.3s1.3-1.2,1.7-1.4.4,0,1-.8c.2-.3.1.2,1-.3.1,0,.3-.1.4-.2-.2.6-.3.7-.4,1.4,0,.2-.3.8,0,.9.4.3-.3.6-.4,1v1.5c0,1.3,1.1,2.2,1.9,2.7.7.4,2.6.1,3.3-.2,1.3-.6,1.5-.4,2.6-1.6.8-.6,2.2-1.3,2.6-2,.4-.7,1-.6,1.6-1.3.4-.4.2-1.1.3-1.8,0-.5-.6,0-.9.7-.1.2-.7.6-1,1.1-1.5,2.1-1.6.8-1.8,1.6-.5.9-.2-.3-1.8,1.2-.6.5-1.5,1.1-2.5.9-.5,0-1-.6-1-1.4,0-.4,0-.4.2-.9.3-1.1-.2-.8,0-1.1l.5-1c.2-.4.5-.4-.4-.7-.4-.1.2-.3.6-.6.3-.2.3-.6.6-1,.1-.2,1.7,0,2,0,1.4-.2,1.6-.1,2-.3.5-.2,2.1-.5,1.8-.9,0-.1,2.8-1,2.9-1.4.1-.3.9,0,1.1-.2s1.4-1.3,1.3-1.6c-.3-.8.6-.2.8-.5.8-.9.8-.7.3-1.1-.2-.2.4-.5.4-.7h0ZM165.3,38.4c-.5.8-1.5,1.7-2.6,2.5-1.8,1.2-4.2,1.8-6.4,1.4,0-.4.8-.4,1.3-.7.4-.4,0-.2.2-.6,1-1.1,1.4-1,1.3-1.4,0-.4.4-.6.6-.4s.5-.1.7-.3c.4-.4.6-1,1-1.3.6-.3,1.3-.2,1.6-.8.2-.4.7,0,1-.1,1.9-.8,2.1-.6,2.1-.6.7,0,.2,1-.9,2.5h0Z"/>
        <path class="cls-1" d="M204.8,29.4c-1.3-.2-.2,0-4.4.3-.6,0-.4.2-1,.3-.2,0-.4-.3-.6-.2-3,.6-4.8.4-5.2.6.6-.8-.2-.4.2-1.1.5-.5.4.3.8-.2.1-.1,0-.9,0-1,.2-.2.6,0,.8-.1.3-.4.3-.7.5-.9.9-.8.8-.9,0-1-1.5-.2-2.8.8-4.1,1.3-.9,1.2-.7,1-1.3,2-.6,1.1-.4,1.1-.9,1.1,0,0-.2.7-1,.8-.8,0-2.6.2-3.3-.1-.4-.2-1-.4-1.6-.8-.6-.4-1.7-1.1-1,.2.2.6.6.8,1.1,1.5.3.5,1.4.5,2.4.6.4,0,.4-.2.6-.2s.5.2.7.2c.6,0,1.1-.2,1-.1l-.4.6c-.7.9-2,2.6-3.3,4.5-.5.8-1,.8-1.6,2.4-.1.4,0,1-.2,1.3-.2.2-.8.2-1,.5-1.1,1.6-2.1,2.9-2.7,3.8-.8,1.2-3.6,7-2.6,9.4.1.2.6,0,.7.2.3.2-.1.6,0,.9.6,2,2.5,2.4,3.3,1.9.4-.2-1.8.2-2.2-2.2-.4-2.4.6-4.8,1.3-5.4-.8-.6-.6-.9,0-.9.1,0,.2.2.7-.3,1.4-1.6,1-1.8,2.2-2.8.3-.2-.6-.2-1-.6s1.5-.4,1.5-.4c.4-.3,1.4-2.3,2.1-2.5.6-.1,1-2.1,1.5-2.8.3-.4,1.3-1.1,1.5-1.3s.8-1.3,1-1.6-.2-.4-.4-.8c-.2-.4,1.1-.4,1.1-.4,0,0,.8-1,.9-1.1s-.2-.2-.6-.4,1.2-.6,1.1-.6.6-.7.8-.9c.2-.2,0-.9.2-1,0,0,3.2-.6,7.7-.6s.3-.4.6-.4c2.8-.2,1.6-.1,2.7-.1s1.8-.3,3.4,1c.8.7,1,.6,1,.4s0-.4-.1-1.2c-.4-1.3-.2-1.3-2.7-1.7h0Z"/>
        <path class="cls-1" d="M202.4,34.4c-2.1-.2-3.5.4-3.5.4,0,0-2.4.1-2.5.8,0,.7-1,.2-1.6.7-1.5,1.1-2.3,2.2-3.4,3.4-.1.2.4.4.2.6s-1,.2-1.1.4c-.7.9-2.5,3.6-2.7,6.2s.3,3.5,1,4.2,2.5,1.4,4,.6,2.3-.6,2.6-.8c.3-.2,1.5-1.3,1.6-1.6,0-.3.3.5.7,0s1-.9,1.3-1.2,2.6-2.4,2.6-2.5-.8-.9-.4-.9c.4,0,1.1.4,1.6-.6,0,0,.6-.6.8-.8.2-.2,0-1.3.2-1.3.2,0,.6,0,.6-.2s-.3-.6,0-.8c.3-.1,0-.6.1-1.1s.2-.5.2-.9,0-1.4-.2-1.6-1.5-1.2-2.1-1.3c-.3,0-.2.2,0,1,.1.4-.2,2-1,4.2,0,0-1,2-.8,1.8,0,0,.4,0-1,1.4-.4.4-1.1,1.6-2,2.5,0,0-.1.5-.2.6-.1.1-.3-.1-.4,0-1,.9-1.8,1.8-3.2,2.5-1.2.6-2.6.6-3.1.2-.3-.2-.4-1.1,0-1.9,0-.2,0-.8.1-.9.9-1.3.7-1.4,1-1.9.2-.4.2-1.1.1-1.4,0-.4.4-.5.6-.2.2.3.2-.6.7-1.2l.8-.9s0-.4.2-.9c.4-1.8.8-.8,1-.7s.4,0,.6-.5.4-.8.8-1.1.5-.4.8-1c.3-.6.7-.8,1-.8s.6-.5.7-.6c.1-.1.5-.1.6-.1s.2-.5.9-.8,1-.1,1.1-.2c.2,0,.4-.1.9,0s.5.3,1,.4c.5,0,1.1,1.5,1.3,1.1.2-.9,0-1.2-.4-1.6s-.8-.6-2.1-.7h0Z"/>
        <path class="cls-1" d="M257.6,5.7c-3.2,1.6-5,3.5-7.2,5.5-1.9,1.7-4.1,4-5.5,6.1l-.2.6c-.2.2-.4.1-.5.3-1.4,1.8-6.9,9.4-8.6,11.7-2.7.5-4.3.4-4.7.5.6-.8-.2-.4.2-1.1.5-.5.4.3.8-.2.1-.1,0-.9,0-1,.2-.2.6,0,.8-.1.3-.4.3-.7.5-.9.9-.8.8-.9,0-1-1.5-.2-2.8.8-4.1,1.3-.9,1.2-.7,1-1.3,2-.6,1.1-.4,1.1-.9,1.1,0,0-.2.7-1,.8-.8,0-2.6.2-3.3-.1-.4-.2-1-.4-1.6-.8-.6-.4-1.7-1.1-1,.2.2.6.6.8,1.1,1.5.3.5,1.4.5,2.4.6.4,0,.4-.2.6-.2s.5.2.7.2c.6,0,1.1-.2,1-.1l-.4.6c-.7.9-2,2.6-3.3,4.5-.5.8-1,.8-1.6,2.4-.1.4,0,1-.2,1.3-.2.2-.8.2-1,.5-1.1,1.6-2.1,2.9-2.7,3.8-.8,1.2-3.6,7-2.6,9.4.1.2.6,0,.7.2.3.2-.1.6,0,.9.6,2,2.5,2.4,3.3,1.9.4-.2-1.8.2-2.2-2.2-.4-2.4.6-4.8,1.3-5.4-.8-.6-.6-.9,0-.9.1,0,.2.2.7-.3,1.4-1.6,1-1.8,2.2-2.8.3-.2-.6-.2-1-.6s1.5-.4,1.5-.4c.4-.3,1.4-2.3,2.1-2.5.6-.1,1-2.1,1.5-2.8.3-.4,1.3-1.1,1.5-1.3s.8-1.3,1-1.6-.2-.4-.4-.8c-.2-.4,1.1-.4,1.1-.4,0,0,.8-1,.9-1.1s-.2-.2-.6-.4,1.2-.6,1.1-.6.6-.7.8-.9c.2-.2,0-.9.2-1,0,0,2-.4,4.9-.6-1.1,1.8-3.4,6.1-5,7.8-.8.8-1.2,1.9-1.9,3,0,.1.1.5,0,.6-.1.2-.5.1-.6.3l-1.6,2.6c-.6.8-1,1.8-1.4,2.6-.8,1.6-.6,1.9,0,2.8s1.5,1.3,1.8.2c.2-.5.2-1.1.5-1.3s.3-.5.7-1.1c.4-.6-.8-.3-.7-.4.2-.4,1.6-.6,1.6-.8s.4-.6.6-.9-.1-.2.4-.6c.5-.4.6-1.3.6-1.3s.5.2.8-.3c.2-.6.8-.8,1.3-1.3s3.1-2.5,3.7-3,2.3-1.5,2.3-1.5c0,0,.3-.2.4-.7s1.1-.2,1.1-.2,2.9-2.1,3.3-1.4c.4.8-.5,2.2-.5,2.2-1.2,1.9-2.1,3-3,4.5-.1.1.2.4.1.6,0,.1-.6.1-.7.2-.3.6-.8,1.2-1.1,1.9-.8,1.6-1,2.1-1.1,2.6-.2,1.5.2,2,.8,2.6.4.4,1.1.8,1.5.2s.1-.6.9-1.2c.8-.6.8-.8,1.4-1.4.6-.6.5-.8,1.8-1.8,1.3-1,1.9-1.1,2-1.1.6-.1.2-.6.8-1,.6-.4.9-.2,1-.3.8-.5,0-.3.5-.7-.2.5-.2.7-.4,1.3,0,.2-.3.8,0,.9.4.3-.3.6-.4,1v1.5c0,1.3,1.1,2.2,1.9,2.7.7.4,2.7.1,3.3-.2,1.3-.6,1.5-.4,2.7-1.6.8-.6,2.2-1.3,2.7-2,.4-.7,1-.6,1.6-1.3.4-.4.2-1.1.3-1.8,0-.5-.6,0-.9.7-.1.2-.7.6-1,1.1-1.5,2.1-1.6.8-1.8,1.6-.5.9-.2-.3-1.8,1.2-.6.5-1.5,1.1-2.5.9-.5,0-1-.6-1-1.4,0-.4,0-.4.2-.9.3-1.1-.2-.8,0-1.1l.5-1c.2-.4.5-.4-.4-.7-.4-.1.2-.3.6-.6.3-.2.3-.6.6-1,.1-.2,1.7,0,2,0,1.4-.2,1.6-.1,2-.3.5-.2,2.1-.5,1.8-.9,0-.1,2.8-1,2.9-1.4.1-.3.9,0,1.1-.2s1.4-1.3,1.3-1.6c-.3-.8.6-.2.8-.5.8-.9.8-.7.3-1.1-.2-.2.4-.5.4-.7,0-.6,0-.9-.4-1.4-.9-1.1-2.3-1.8-4-1.2-2.1.7-4.9,1.8-7.1,3.6-.2.2-.2.6-.4.8-.3.3-.6-.2-.8,0-.5.4-.9,1-1.2,1.4-.5.8-1.3,1.7-1.3,1.8-.8,0-1.1-.4-1.8.5-.5.7.3.9.9.8-1.7.9-3.6,2.3-4.9,3.3-1,.7-2.1,1.7-2.6,2.3s-.6,0-.4-.2,1-1.8,1.3-2.2c.3-.4,0-.5,0-.9s.9-.5,1.1-.8c.2-.2.9-1.4.8-1.6-.1-.2-.2-.8.4-.5.3.1.6-.8.6-.8,0,0,1-.6,1.1-1,1.1-2.2.4-1.6.4-1.8.2-.6.8-1,1-2.1s-.1-1.6-1.1-1.9c-1-.4-1.8,0-3.3.8-1.6.7-4.1,2.7-6.2,4.1-2.1,1.4-3.4,3-4.4,3.2,0,0,0-.2,0-.4.8-1.1,3.2-4.9,4.1-6.3.7-1.1,1.1-2.1,1.1-2.1s1.2-1.3,1.1-1.2c0,0-.2,0-.4-.3-.2-.3.8-.3.8-.3,0,0,.4-.4,1.1-1.3,1.7-.2.9,0,1.9,0s1.8-.3,3.4,1c.8.7,1,.6,1,.4s0-.4-.1-1.2c-.4-1.3-.2-1.3-2.7-1.7-1.2-.2-.4,0-3.7.3.2-.4,2-.5,2.3-.9.4-.4.2-.6.2-1.1s.6-.7,1.1-1.3-.2-.2-.5-.3c-.3,0,1.1-.9,1.2-1.1s.7-.6,1-.9-.4-.4-.4-.8.8-.1.8-.2,1.5-1.6,1.5-2.1.4-1,1.4-1.6c1.1-.8-.8-.2-.4-.8s1.5-.4,1.7-.9,1.5-1.4,1.8-1.8c.3-.4,0-.6,0-.6,0,0,.6-.2.6-.2s.3-.5.4-.9.4-.8.9-1.3,1.2-.7,1.1-1c0-.2.6-1.5,1.6-1.8,1.2-.4,1.8-1.6,1.8-1.6,0,0,0-.6,2.7-1.8,1.9-.8,4.7-.1,5.3,0,.6,0-.6-.9-.9-1.4s-2.9-.8-5.9.8h0ZM252.6,41.6c.4-.4,0-.2.2-.6,1-1.1,1.4-1,1.3-1.4,0-.4.4-.6.6-.4s.5-.1.7-.3c.4-.4.6-1,1-1.3.6-.3,1.3-.2,1.6-.8.2-.4.7,0,1-.1,1.9-.8,2.1-.6,2.1-.6.7,0,.2,1-.9,2.5-.5.8-1.5,1.7-2.7,2.5-1.8,1.2-4.2,1.8-6.4,1.4,0-.4.8-.4,1.3-.7h0Z"/>
        <path class="cls-1" d="M330,53.3c2.2,3.8,5,5.5,6.7,5.5s2.4.3,3.5-.6c.8-.7-.1-1.3-.2-1.4-.2-.2-.8,1.3-2.4,1.1-1.7-.2-2.7-.9-2.7-.9s.1-.7-.4-1.1c-.6-.4-.4-.5-.7-1.1-1.1-2.3-1.3-3.5-1-3.1,0,0-1-1.8-1.6-2.6s-1.1-2.8-1.2-2.9-.4-2.3-1.1-1.9c-.6.3,0-.6-.2-1-.2-.4-.2-1.3-.7-1.7s0,0-.6-1.8-.6-2-.9-2.3-.7,0-1-.2-.2-.9-.4-1.5-.4-.7-1.2-1.6c-.7-.7-1.5-1.3-1.9-1.4.6-.1,2.3-.8,2.5-.8.2,0,1.1-.2,1.5-.2s.1-.4.4-.7,1.1.2,1.6.2,3.2-.8,3.9-1.1c.7-.2,1.6-1.3,2.6-1.6,1-.3.8-.4.8-1.1s.8.4,1.5-.1c.6-.5,1.9-1.3,2-1.6.1-.3,1.2-.6,1.3-.6.1,0,.4-.8.7-.8s1.3-1,1.3-1c0,0,.7-.1,0-.4-.8-.3,1-.7,1-.8s.8-1,.9-.8,1-.5,1.7-1.2c.8-.7.9-1,.8-1.3s-.6-.7-.4-.6c.2,0,1.8-.6,2-.6.1,0,1.8-2.7,1.5-2.8-.3,0,.4-.4.4-1s.9-1.6.8-1.4c-.5,2.5,1.1-1.1,1.8-1.4s1.3-.8,1-1.2c-.2-.4.4-1,.5-1.3s1.1-.8,1.3-.9.5-.6.7-1.1,1-.4,1.4-.4c.4,0,1.6,0,1.3-.5s-.8-.6-.8-.6c-2.8.6-4.6,1.7-7.2,4.3-1.9,1.9-3,3.5-4.6,5.4l-2.9,3.5c-1.6,1.9-3.3,4-5.7,5.9-1,.8-2.3,1.1-3.5,2.4-.2.2-.4.6-.8.8-.1,0-.5-.1-.6,0-6.6,3.4-9.6,3.5-9.6,3.5,0,0,1.6-1.6,1.6-2,0-1.1,2-3.1,2-3.1,0-.2-.2-1.4.1-1s.9-1.3,1-1.3.8-1.3.8-1.4-.3-.1-.8-.2,1.5-.6,1.6-.6.3-.8.8-.7c.4.1,1-.7,1.5-1.3s1.4-1.8,1.5-2.1c0-.2-.2-.2-.3-.3.3-.1,2-2.1,2.3-2.3.3-.2.9-.6,1.1-.6s.6-.5.6-1,2.3-1.3,2.3-1.3c.9-.2,1.6-1.1,1-3.3-.4-1.8-1.1-1.3-1.6-.6-.8,1.1-2.6,1.7-3.5,1.9-4.2,1.1-4.3.9-7.8.9-.2,0-.6.7-.9.7-.4.1-.7-.6-1.1-.6-4.8.2-8.7.5-11.2,1.3-1.1.2-1.3.9-1.3,1.1-.8.3-1.5-.1-2.4.2-4,1.9-9.5,6.2-10.4,11.9,0,.2.4.3.3.8-.2,1.1-.8.8-.7,1.1,0,.3.1,2.4.2,3.2.8,5.9,4.3,7.6,4.7,8,.5.3.9-.6.7-.7-.2-.1-.8-.7-1.3-1.3-.4-.4-.6-.9-.8-1.9s-.3-1.3-.3-1.5.2-.8.1-1.3c-.2-.4-.3-2.3-.3-2.3,0,0,.4-1.2.2-1.3-.6-.1,0-1.8.6-2,.6-.2.4-1.3.4-1.6s-.3-1.4.2-1.6.9-.9.8-1.1c0-.3,0-1.3.4-1.4s1.2-.8,1.7-1.6c.6-.8.9-1.4,1-1.3,0,.1.6.1.9-.5.1-.6,1.2-1.3,2.4-1.9,4.5-2.9,9.9-1.6,10.5-1.6,2.7.2,3.5-.3,3.8,0,.4.5,1.5.3,2.5.4,1,0,2.7-.5,3.3-.5.4,0,1.2,0,3.2-.7-2.2,1.3-4.2,2.8-4.4,3.4s-.7,1.3-1,1.1-3.2,3.3-4.6,5.7c-.1.2,0,.7-.1.9,0,.1-.6,0-.6,0-2.4,3.3-3.9,6.1-4.7,6.8-.8.8-2.1.7-2.5.6-.4-.1-.1-.5-1.1-.2-1,.2-3.7,1.3-1.8,1.8s3.8.5,4,.6c.2,0-2.3,3.6-3.4,5.2s-3.5,5.7-3.7,5.5c-.2-.2-3,3.3-4,4.7-1,1.3-3.5,3.5-3.8,4s-.1,2.1-1,1.3-1.9,1.3-3.5,2.3c-1.4.9-1.9,1.3-4.5,1.5-4.7.3-7-1.4-7-1.6s-.8-.1-1.1-.3c-.4-.2-.8-.9-1.2-.6-.4.3-.6-.2-.6-.4s-.8-.9-1.3-1.4c-1.3-1.4-.5-.6-.9-1.5-.3-.9-1-2.6-1.4-3-.4-.4-1-1.4-.6-1.8.4-.3,0-.4-.3-.9-.4-.4-.2-.7,0-.7s.5-.6.5-.9,0-2.6-.2-3.1c-.1-.5-.1-2,.6-2.2.7-.2.4-.6.6-1.4,0-.8,0-1.8.5-2,.6-.2.2-.9.4-1.3.2-.4.6-.9.8-1.3s1.5-1.8,2.1-2.3c1.4-1.1.7-1.6,2.1-1.6s1.1-.8,2.1-.9c1-.1,3.2,0,2.8-.4s-1.6-.8-2.7-.6c-1.8.4-5,1.2-7.7,3.8-2,1.9-4.2,5-4.8,8,0,.3.6.8.4,1.1-.3,1.4-1-.1-1,1.1-.4,7.7,3.2,11.7,5.2,13.4.4.4.9-.2,1.2,0,.2.2.2,1.2.5,1.3,5.2,3.3,5.3,1.8,5.9,1.9.8.2.5.6,4.1.9,3.6.3,5.8-.9,6.2-.9s.9-.9,2-1.1c1.1-.1,1.4-.8,2-1.1.6-.4,1.6-.9,2.2-1.8s.8,0,.9,0,.6.1,1.9-1.6c1.3-1.7,1.1-1.8,1.6-1.8s1.1-1.2,1.7-1.7,0-1,.2-1.4.2,0,1-.3c.7-.2,1.9-2.1,2.3-2.6s.8-.5,1-1.6c.2-1.1.7-.4.7-.4,0,0,.9-1.3,1.3-1.9s.1-.9.1-1,1.5-2.5,1.5-2.5.6-.8.9-.8.6-1.6.7-1.6c1.1.2,1.5,1.8,2,2.8s1.1,1.5.7,1.6c-.4,0,1.1,2.1,1.7,4s2.2,5.5,3,6.4c.8.9,0,.2,2.1,4h0Z"/>
        <path class="cls-1" d="M352.6,26.5c.6-.8.6-.3.7-.6,0-.3.2-.2.4-.6.8-1.2-.5-1.4-1.2-2.3-.2-.3-.4-1.1-.8-1.1s-.5.1-.6.5-.4.9-.6,1.6c-.4,1.4-.6.9-1.4,2.2-.8,1.3-1.3,1.2-1.6,1.6-.4.6.9.8,1.3.6s1-.2,1.2-.2.8-.2.8-.2c0,0-.1-.3,0-.3.1,0,1.1,0,1.8-1.1h0Z"/>
        <path class="cls-1" d="M354.2,35.9c-1,1.1-2.5,2.6-2.8,3.5-.4.9-1,2-1.7,2.9-.6-.2-1.5,0-2.4.6-1.3.7-.3.2-2,1.3-1.6,1.1-3.9,2.8-4.5,3.4-.7.6-2,1.5-2,.8s-.1-.9.2-1c.4-.1.7-1.2,1.4-2.4,1.1-1.9,1.8-2.5,1.8-2.5,0,0-.9-.5-.4-.6,1.1-.2,1.2-.4,1.8-1.2.6-.9.2-1.1.4-1.3.4-.6.4,1.1,1.8-1.6.2-.4,1.6-3.2.8-3.1-1.2,0-2.3.2-4.4,1.1-2.3,1-4,.3-3.3.9.7.6,1.1.9,1.6.6.5-.3,1-.4,1.5-.7.4-.2.8-.2.1.7l-2.4,3.5c-1,1.6-.2-1.1-1.6,2.3-.5,1.3-1.8,3.3-2.1,4-.6,1.2-.7,1.8-.4,2.9.2.9.5,1.1.8,1.5s.9.7,1.8-.6c1.1-1.4,1.6-1.4,2-1.9s1.1-.4,1.5-.9c.4-.5,1-1,1.1-.9.1,0,.8-1.1.8-1.1s.3.3.8-.1c.5-.4.8-.7,1.1-.8.4-.2-.4-.4.4-.5s.9-.6,1.6-.8c.8-.3.6.2,1-.1,0,0,0,0,0,0-.5.7-2.7,4-2.7,5.4s.8,2.7,1.8,2.7,1.1-.2,2.5-1.3c1.5-1.1,1.5-1.4,2.5-2.2.1-.1,0-.3.2-.4l.7-.2c1.1-.8.9-.9,1.8-1.4.9-.6,2.9-1.6,2.9-1.6,0,0,.2-.4.7-.5,0,0,.2,0,.3,0,0,.1,0,.3-.1.4-.6,1.6-1.3,5.7.6,7.1.6.5,2.1,0,2.5-.2s1.9-1.3,2.5-1.8c.6-.4.8-.9,1-.7s.6-.9,1.2-1.3c1.3-.8,3.8-3.6,4.8-4.8.5-.6.6,0,0,.9-.6.8-1.3,1.8-1.7,2.8,0,.2,0,.8-.1,1,0,.2-.6.5-.6.6-.4,1.5-.8,1.3.2,2.6.4.5,1.3,1.4,1.9.7s1.4-1.5,2.2-2.1,1.2-1.1,2-1.6c.7-.5,2.5-1.3,2.7-1.4.2-.2.3-1.1.6-.8s.2-.2.6-.3c.4,0,.8,0,1.1-.4.3-.3.8-.6,1.2-.8-.1.1-.3.3-.4.6-.2.6-1,2.5-1.5,2.8-.2.1-.3.8-.5,1.1s.2,1.1.6,1.7c.7,1.3.9,1.7,1.4,1.1l1.1-1.3c.7-.9-.4-.6.7-1.3.6-.3.9-1.1.9-1.1,0,0-.6-1-.2-.8.6.3.7-.1,1.3-.8s1.9-1.8,2-1.8c0,0,.8-.9.9-.9.1,0,0-.8.2-.8.2,0,.5.1.8-.2.3-.3,1.6-2.1,2.2-2.5.6-.4,1.6-1.4,2.1-1.8s2.3-1.6,2.6-1.4.1,1.1-.1,1.4.3.6-.6,1.5c0-.1-.8,1.5-1.1,1.8-.4.4-.8,1.1,0,.9s1-.1,2.1-.6,2-1.3,1.5-1.4c-.4-.1,0-.4.1-.6.2-.4.4.2.6,0,.8-1.1.2-.9.5-1.4.6-1.1.7-1.9.2-3.3-.3-.9-1.5-1.2-3-.3-.8.4-2,1.4-5.4,4.6,0,0-1,1.1-1.9,1.9-.1.1,0,.4-.2.4-.2.2-.5.1-.5.1,0,0-1.6,1.4-2.1,1.9-.5.6-.8.5-.6.1.4-.8,1.1-1.6,1.2-1.7s-.8-.3-.4-.5c.4-.2.8,0,.9-.2.1-.2,1.1-1.4,1.3-1.7.3-.4,0-.5.4-1,.3-.4.4,0,.7-.6.7-1.4.6-1.3.5-2.6,0-1,0-2.3-2.3-.8-1.3.9-1.5.5-2.2.8-.8.2-1.5.9-2.4,1-.4,0,.9,1,1.6.7.4-.2,1.2-.9,1.5-.9.5-.2.9,0,.2.7-.6.7-1.1,1.6-1.2,1.6-.6.3-.1.5-.2.8-.2.4-.6.5-.8.6s-.4.9-.7,1.3c-.2.3-.3.6-.3.8-.4,0-.7,0-.9.1-1.1.3-4.5,2.6-6.2,3.9-3,2.3-3.7,2.8-4,2.6-.2-.2,0-.5.4-1.1s.3-.8.9-1.5c.4-.4-.4-.9-.4-.9s.7,0,1.1-.4c.9-1.2,1.1-1.3.2-1.4-.4,0,.9-.3,1.4-.9,1.2-1.4,1.5-2.3,2.3-3.6.2-.2-.4-.9-.3-1,0,0,.9.2,1.1,0,.7-.9,2.1-3,2.5-3.3.5-.5,1.8-2.8,1.8-2.8,0,0-.5-.2,0-.4.4-.2.4-.2.9-.6s.4-.6.7-.8.5-.6.6-.4,0-.9,0-1.1-.6-1,0-.9.6.6,1.1,0c.6-.6.6-.8,1-1.3.4-.6.8-.9.7-1s-.7-.4,0-.5,1-.6,1-.9.2-.2.6-.6,0-.8.6-1.3-.7-.7,0-.8c.6,0,.9-.2,1.2-.5s.3-.4.5-.4.6-1.4.8-1.1c.2.2.7,0,.8-.3s0-.2.5-.9c.6-.7.4-1.3.9-1.5s.6-.2.8-.4c.2-.2-.2-.2.4-.8s1.1-.5,1.8-1.4-.1-.6.3-1.1.6-.9,1.2-1.3.7-.8.8-1.1.2-.7.4-.6c.2.1.5-.2.9-.8.2-.4.8-.8,1.1-1,.4-.2.6-.2,1.3-.8s.7-1.1,1.1-.9,0,0,1.3-.5,2.8-.5,3.7.1c.6.4.8-.1.5-.8-.3-.6-2.1-.9-3-.6-.9.2-2.3.4-3.6,1.1-1.7.9-4.1,2.3-7.2,5.3-3.2,3-5.2,6.1-6,7s-1.5,1-1.9,1.9-1.6,2.1-2.3,3-2.4,2.5-2.3,2.9c.1.4-.2.4-.4.5s-.2.4-.4.7-2.1,3-3.5,4.7-.2.6-.6,1.3c-.4.8-.9.6-.9.6,0,0-1.6,2.1-1.6,2.1s-2.4-1.4-4.8-1c-2.6.4-3.3.1-5.7,1.9-1.2.9-2.6,1.1-3.3,2.8-.2.4-.8.4-1.1.9-.3.6-.7.6-.8.7-.3.2-.7,1-1.1,1.8-.3.1-.6.2-.9.4-1,.5-1.1.8-2.1,1.4-1.1.6-1.3.8-2.1,1.3l-2.2,1.6c-.4.2-.4.8-1.3,1.1-.8.4-1.5,1-2,1.3-.2,0-.3-.2-.3-.4s.3-1.3,1.3-2.2.2-.2.2-.3c0-.2-.3-.1-.3-.5s.2-.3.4-.3h.2l1.1-1.6c.2-.2.2-.4.2-.4s-.1,0-.1-.1c0-.3.5-.9.6-.9.2,0,.2.2.2.2.2,0,1.1-1.7,1.1-2.4s1.6-1.4,1.6-2.1c0,0-.2-.3-.2-.4s0,0,.1,0c.1,0,.2.2.4.2s.4-.4.5-.7c.3,0,2-1.4,2-2.5s-.2-.4-.2-.9,0-.2.2-.2c.2,0,.8.3.8.3.4.1,1.8-3.8,2.3-3.2l.4-1c.3-.8.5-.4.5-1.4s.8-.6.8-.6,1.3-1.5,2.7-3.2c1.5-1.8,1-1.8,1.4-2.3,1.3-2.1,3.8-5.1,3.8-5.5s0-.4.1-.4.2.2.4.2c.6,0,1.4-2.3,1.4-2.3v-.2c0,.1,1.9-1.6,1.7-1.4l.8-.9s0-.1,0-.3,1.2-.6,1.2-1,0-.1,0-.3,0-.1.1-.1c.1,0,.3,0,.4,0,.1,0,.4-1.3,1.6-1.6.1,0,.2-.1.2-.3v-.2c0,0,2.5-2,3-2.3.1,0,2-.9,3.2-.9s1.8,1,2.2,1,.3-.2.3-.6,0-.5,0-.8c0-.1-1-.7-2.2-.7s-3.8.5-6.6,2.3c-2.4,1.5-5.2,4.5-5.2,4.5l-1.1,1.1c-.5.4-.6,1.4-1.1,1.4-1,0-3.4,3.6-7.4,8.9-.5.7-1.2,1-1.5,1.9-.5,1.8-.4.7-.8,1.3-1.6,2.5-3.4,4.7-4.2,5.9-.8,1.3-1.8,3.4-2.9,4.6h0ZM363.8,42.9c.2-.1.5-.9.4-1.2s.8-.3,1.5-1.3c.7-.9,1.8-1.1,1.8-1.6,0-.6,0-.7.4-.9s.5.2.6-.2,2.6-2,3.8-2.1c1.7,0,3.3.6,3.4.8,0,.3-1,1.8-1.6,2.8-1.6,2.4-2.8,2.9-4,4.3-.2.2-.8.9-1.8,1.8-1,.9,0,.3-.2.7-.1.4-.6.1-.8,0-.1,0-1.3,1.7-2,2.1-.6.3-.8.3-1.5,1-.4.4-1.6,1.1-1.9,1-.6-.2-.6-1.2-.3-2,.2-.5.6-.9,0-1.3-.4-.2.3-.8.3-.8l.2-.8s.4-.5.8-1.1c.2-.4,0-.5,0-.6.5,0,.4-.2,0-.5.3,0,.6-.1.7-.2h0Z"/>
        <path class="cls-1" d="M427.2,43.2s0,0,0,0c0,0,0,0,0,0Z"/>
        <path class="cls-1" d="M459.4,43.2s0,0,0,0c0,0,0,0,0,0Z"/>
        <path class="cls-1" d="M507.4,34.8c-.4-.4-2.7,0-3.5.3-.5.2-.8.2-1.5.8-.1.1,0,.6-.2.7-.2.2-.8.1-1,.4-1.6,1.8-1.5,2.3-2.8,3.5-.8.7-3,2.8-4.3,4-.1.1,0,.5-.1.6-.1.1-.5,0-.7,0-1.6,1.2-4.7,3.3-5.4,3.8-1,.8-1.6,1.4-2.2.8s0-1.1.4-1.8c.9-1.3,1.5-2.6,1.5-3.4,0-.4.3-.2.4-.2l1.2-1.3c.3-.3-.2-1.1-.2-1.6s.9,0,1,0c1.1-1.1.9-.9,2.3-3.2,2.2-3.6-.6-3.6-1.6-3.1-.9.4-.6.2-2.3,1.1-.8.4-.9.2-2.2.4-.4,0,.3,1,.8.9.9,0,1.6-.5,1.9-.6.9-.4-.1,1.1-.8,2.1-.4.6-1.5,2-2.4,3.4-.1,0-.2,0-.3,0-.4.2-1.1.4-1.4.6s-1.2.7-1.7.9-.4.6-.4.6c0,0-.3.1-.4,0,0,0-1.6,1.1-2,1.4s-.4.7-.7.8c-.9.4-1.6,1.3-2.3,1.9-.8.7-1,0-.5-.4.2-.2.4-.4.4-.6s0-.6.3-.6.6-.2.5-.2.2-.9.3-.9c0,0-.2-.9.1-.8s.8-.6.9-.7-.4-.9,0-1,.5,0,.5,0c1-1.4,1.6-2.5,1.8-2.6,1-1.1,0-1.1,0-1.2.5-.2.9-.4,1-.7.9-2,1-1.8.6-3-.3-1.1-2.1-1.8-3.8-.9-1.4.8-3,1.6-4.2,2.8-.2.2-.2.6-.2.7s-.7-.2-.9.1-.7.8-2.2,2.3c-1.3,1.2-1.6,1.6-2,1.9-.3.2.3-1.3.5-1.3s.8-1,.8-1.3-.2-1.2,0-.9.2.5.4,0c.3-.5.7-.9.9-1.4,1.1-2.3-.8-4.5-3.2-3.2l-2.5,1.3c-2.1,1.5-4,2.8-4,3.1s-.6.8-.9.8c-.2,0-.4.8-.4.8,0,0-.6-.1-2.6,1.9-.4.4-2.5,2.3-1.5,1,.2-.2.6-.8.8-1.1.1-.3-.2-.4,0-.4.2,0,.6-.5.7-.6s0-.6.1-.5c.1,0,0,0,.4-.4.2-.4.4-1,.5-1.1s-.1-.5.2-.4.1.3.6-.5c.4-.8.3-.5.7-1.1.6-1,.8-1.8.6-2.7-.2-.9-3.2,0-4,.4-.9.4-1.5.6-2.1.6-1,0-1.3.3-.6.6l.4.2c.4.2,1.1,0,1.5,0,.8-.2,1.8-.7,1.2,0-.1.2-.1.3-.2.4-.1,0-.2.5-.2.4s-.2-.1-.4.2c-.1.2,0,.5-.1.6s-1,1.6-1.4,2.1c-.4.6-.6,1.2-.6,1.2,0,0-.2,0-.5.4,0,0,0,0,0,.1-.4,0-.7,0-1,0-.4.2-1.1.4-1.4.6s-1.2.7-1.7.9-.4.6-.4.6c0,0-.3.1-.4,0s-1.6,1.1-2,1.4c-.3.3-.4.7-.7.8-.9.4-1.6,1.3-2.3,1.9-.8.7-.9,0-.5-.4.2-.2.4-.4.4-.6s0-.6.3-.6c.4,0,.6-.2.5-.2s.2-.9.3-.9-.2-.9.1-.8.8-.6.9-.7-.4-.9,0-1,.5,0,.5,0c1-1.4,1.6-2.5,1.8-2.6,1-1.1,0-1.1,0-1.2.5-.2.9-.4,1-.7.9-2,.9-1.8.6-3-.3-1.1-2.1-1.8-3.8-.9-1.4.8-3,1.6-4.2,2.8-.2.2-.2.6-.2.7s-.7-.2-.9.1-.7.8-2.2,2.3c-1.3,1.2-1.6,1.6-2,1.9-.3.2.3-1.3.5-1.3s.8-1,.8-1.3-.2-1.2,0-.9c.3.2.2.5.4,0,.3-.5.7-.9.9-1.4,1.1-2.3-.8-4.5-3.2-3.2l-2.5,1.3c-2.1,1.5-4,2.8-4,3.1s-.6.8-.9.8c-.2,0-.4.8-.4.8,0,0-.6-.1-2.6,1.9-.4.4-2.5,2.3-1.5,1,.2-.2.6-.8.8-1.1.1-.3-.2-.4,0-.4.2,0,.6-.5.7-.6,0,0,0-.6.1-.5.1,0,0,0,.4-.4.2-.4.4-1,.5-1.1,0,0-.1-.5.2-.4.3,0,.1.3.6-.5.4-.8.3-.5.7-1.1.6-1,.8-1.8.6-2.7-.2-.9-3.2,0-4,.4-.9.4-1.5.6-2.1.6-.9,0-1.3.3-.6.6l.4.2c.4.2,1.1,0,1.5,0,.8-.2,1.8-.7,1.2,0-.1.2-.1.3-.2.4-.1,0-.2.5-.2.4s-.2-.1-.4.2c-.1.2,0,.5-.1.6s-1,1.6-1.4,2.1c-.4.6-.6,1.2-.6,1.2,0,0-.2,0-.5.4,0,.1-.1.2-.2.4-1.7.8-4.1,2.9-4.1,2.9,0,0-1.7,1.6-2.4,2.1-.6.5-1.6,1.3-2.1,1.6s-.8.2-.3-.5l.9-1.5c.1-.2-.4-.9.1-1.1s.6,0,.8-.2l.5-1s-.3-1.3.1-1.1c.4.2.2.2.6-.2s1.2-1.4,1.2-1.4c0,0,.1-.7.2-.9.1-.2-.7-.7-.2-.6s.7-.2,1.2-.7c.5-.5.9-1,1-1.1s-.2-.2-.2-.6.5-.2.8-.5c.8-.8,2.2-3.2,1.3-3-1.2.3-3.2.3-4.1,1.3-.5.5-1.3,1.7-1.5,1.9-2.5,2.5-2.6,2.6-3.2,3.2-.6.6-3.5,3.1-4.3,4-.8.9-.6-.1-.9.4-.6.8-1.5,1.3-1.8,1.4s-2.3,1.8-2.5,1.9c-.8.4-2.1,1.3-2.3.8-.3-.5-.4-.6,0-1.5.4-.9,1.6-2.9,2.1-3.5,0,0-.8-.8-.4-.8.4,0,.8.2.8-.1.1-.4.6-1,.8-.9.2.1.2.2.8-.5.6-.6.8-1.1.8-1.1,0,0-.3-.6.1-.8.7-.3.3-1.4,1.2-1.3.2,0,.8-.9.9-1.1,1.1-1.3,3.1-4.1.4-3.5-.7.2-2.1.2-3.9,1-2.7,1.1-3.3.8-3.6.8-.2,0-.3.2.1.6.3.3.6.7,1.5.5.6-.1.7-.3.8-.4,0,0,.3-.6.8-.4.2,0,.9-.6.9-.4.2.4,0,.4-.5.9-.4.4-1.4,1.8-1.4,1.8,0,0,0,.6-.2,1.1,0,.1-.4,0-.7.4l-2.9,4.1c-.3.4-.8.6-.8,1.1s.2.7.1.8c0,.1-.4-.2-.5,0-.6,1.3-.9,3,0,4.2s1.6,1.6,3.4.4c.8-.6.4-.7,1.5-1.1,1.7-.8,1.3-.6,3.3-2.5.4-.4,2-1.5,2.7-2.1l2.8-2.4c.6-.5,2.1-1.9,2.3-1.9.5.2-.9,1.8-1.5,2.7-.1.2,0,.5,0,.6-.2.2-.6.2-.7.4-.8,1.1-1.5,2.5-2,3.6-.3.7-.3,1.2,1.1,3,.4.5.8.7,2.1-.5,1.1-1.1.7-1,1.1-1s.6-.6,1.2-.9c.7-.4,1.1-1.3,1.8-1.8.8-.5.9-.9,1.6-1.3.7-.3,1.8-1,2.2-1.3l-.6,1.1-1,2s-.9,1.1-.5,2.1c.1.4,1.8,2.5,2.1,1.6.3-.8.2-1.4.9-2,.3-.2.5-1.1.6-1.2,1.1-2.1.9-1.2,1.1-1.4s-.2-.5.1-.5.6-.1.7-.3c.1-.2.8-.9,1.1-1.1.3-.2,2-1.5,2.1-1.8,0,0,.1-.6,0-.6.1-.1.5-.1.9-.1s1.3-1.5,1.9-2.1,1.3-1.1,1.8-1.5,1.2-.6,1.7-1,1.3-.8,1.7-.9c.6-.2,1.7-.4,1.3.8-.1.4-.5.6-.5.9s0,.1-.2.4c-.2.3-.8,1.6-1.2,1.9-.4.3-.8,1.5-.9,1.6s-.8.8-1.2,1.4-.8,1.3-.8,1.3c0,0-.5.9-.8,1.4-1,1.6-1.3,1.8-1,3,.2.8,1.1,1.7,1.2,1.8.6.4.6-.4,1-.9.8-1.3,0-1.8.5-1.8s.6-.4.8-.8.6-.9.6-.9c0,0-.6.1-.4-.1.4-.4,1.1-.6,1.5-1.1.8-1.2,1-1.2,1.5-1.6.9-.8,1.5-1,1.7-1.9,0-.2.4,0,.6,0,1-.7,2.5-2.3,3.2-3,1.6-1.5,2-1.5,3.2-2.3.7-.4,2.1-.8,1.9-.2,0,.1,0,.8-.1.9s0,0-.4.5c-.4.6-.5.9-.5,1s-.1.7-.4.7,0-.1-.4.4-1.8,2.6-1.7,2.6.3.3,0,.5c-.3.2,0,.1-.6.7-.5.6-1.1,2.1-1.5,2.5s-.8,1.4-1,1.9c0,.4,0,1.2.6,2.1.5.9,1.2,1.3,1.9.2.2-.3,1.8-1.8,3.2-3,1-.8,1.5-1,1.7-1.3s1.3-1.2,1.7-1.4.4,0,1-.8c.2-.3.1.2,1-.3.6-.4,1.2-.6,1.8-.8,0,0,0,.1-.1.3l-1.1,2-1,2s-1,1.1-.5,2.1c.1.4,1.8,2.5,2.1,1.6.3-.8.2-1.4,1-2,.3-.2.5-1.1.6-1.2,1.1-2.1.9-1.2,1.1-1.4s-.2-.5.1-.5.6-.1.7-.3c.1-.2.8-.9,1.1-1.1.3-.2,2-1.5,2.1-1.8,0,0,.1-.6,0-.6.1-.1.5-.1.9-.1s1.3-1.5,1.9-2.1,1.3-1.1,1.8-1.5,1.2-.6,1.7-1,1.3-.8,1.7-.9c.6-.2,1.7-.4,1.3.8-.1.4-.5.6-.5.9s0,.1-.2.4c-.2.3-.8,1.6-1.2,1.9-.4.3-.8,1.5-.9,1.6,0,0-.8.8-1.2,1.4-.4.6-.8,1.3-.8,1.3,0,0-.5.9-.8,1.4-1,1.6-1.3,1.8-1,3,.2.8,1.1,1.7,1.2,1.8.6.4.6-.4.9-.9.8-1.3,0-1.8.5-1.8s.6-.4.8-.8.6-.9.6-.9c0,0-.6.1-.4-.1.4-.4,1.1-.6,1.5-1.1.8-1.2,1-1.2,1.5-1.6.9-.8,1.5-1,1.7-1.9,0-.2.4,0,.6,0,1-.7,2.5-2.3,3.2-3,1.6-1.5,2-1.5,3.2-2.3.7-.4,2.1-.8,1.9-.2,0,.1,0,.8-.1.9-.1.1,0,0-.4.5-.4.6-.5.9-.5,1s-.1.7-.4.7,0-.1-.4.4-1.8,2.6-1.7,2.6.3.3,0,.5c-.3.2,0,.1-.6.7-.5.6-1.1,2.1-1.5,2.5s-.8,1.4-1,1.9c0,.4,0,1.2.6,2.1.5.9,1.2,1.3,1.9.2.2-.3,1.8-1.8,3.2-3,1-.8,1.5-1,1.7-1.3s1.3-1.2,1.7-1.4.4,0,1-.8c.2-.3.1.2,1-.3.4-.2.8-.4,1.2-.6.1.1.3.3.2.6,0,.1-.7-.2-.8,0-.8,1.4-1.5,2.7-1.6,3.6,0,1.2-1,1.5.7,3.5,1.1,1.2,3.6-.6,4.2-1,.6-.4,1.8-1.2,1.9-1.5s.6-.3.6-.3l.8-.6s1-.4.8-.7c-.2-.5,1.1-.8,1.2-.9,1-.4,3-2.1,3.9-2.8.9-.8.6,0,.6,0,0,0-2.7,4.5-3.7,6.2-.2.3-.2,2.1-.2,2.1,0,0-.7-.7-.8-.4-.8,1.2-3.2,4.9-3.3,4.9-.9,1.3-3.5,4.7-3.8,5.6,0,.1.2.3-.2.9-.3.4-.6,0-.7.2-.9.9-1.3,1.8-2.6,3s-3.1,3.3-3.8,4.1c-.7.8.1,1.1-.2,1.4s-.9-.4-1.8,1c-.6.9-1.2,1.1-1.8,1.7-.6.6-1.5,1.8-1.8,1.7s-1.5.9-1.8,1.4c-1.2,1.7-3.6,3-5.5,3.7-3.8,1.4-4.1.6-4.8,1.1-.5.4-2.5.1-3.3,0s-2.1-1.1-3-2.1-1.4-.8-1.3.4.4,1.5,3,2.3,5.4.4,6.2.4c3.8-.3,7.2-2.8,10.1-4.4,1.1-.6,5.8-3.8,5.9-4.6,0-1.3,1-.8,1-.8l2-1.8c1.1-.9.2-1.4.4-1.8s.6.9,1.1.5c.4-.4.6-.6.9-1.1s1.8-1.7,2-1.8-.1-.8.4-1.1c0,0,.6.1,3.1-3,2.1-2.6.5-1.6,2-3.2.4-.5.4-1.2.2-1.2s1.3-.7,1.3-.8.8-1,1-1.3c1.1-1.7,1.3-2,1.8-2.7,0,0,.3-1.4.7-2.1.2-.4.7-.3.7-.3l.7-.9s.3-.9.4-1.5c0-.6.4-.1.4-.2.6-.6.7-1.1,1.3-1.7.3-.4-.2-.8-.6-.9l1.1-.2c3-3.6,1.5-2.7,1.8-3.5s.4,0,.8-.2c.8-.8,1.3-1.6.9-1.9-.4-.4.3-.2.5-.4,2.3-2.5.5-2.1,1.1-2.6,0-.1.8.1,1-.2.6-1.6,1.9-2.1,1.6-2.4h0ZM420.9,44.1h0l-.2.4c0-.1-.1-.3.2-.4h0Z"/>
      </g>
      <g>
        <path class="cls-1" d="M126.9,168.2c0-.2,1.8-.9,1.8-.9,0,0,.6-1.3,1-1.9.4-.6,2.6-2.1,4-3,1.4-.8,2.5-1.1,2.5-1.1,0,0-1.6-1.5-2.7-1.8-1.6-.4-3.1,1.3-5.1,2.8-.7.5-.6,1.3-1.4,1.8-.9.6-.9,1.2-1.5,1.7-.2.2-.1.6-.3.8-.2.2-.8.2-1.1.4-3,2.6-3.8,3.8-3.8,3.8,0,0-3,2.3-4.2,2.6-1.5.5-1.1,1.5-1.1,1.5,0,0-.5.2-2.9,2-.6.4-1.1,0-1.6,1.4-.6,1.3-.9,0-1.6.9-1,1.3-3.8,1.3-4.4,1.6-.6.3-1.7-.8-2.2-.6s-2.1-.4-2.1-.4-.8-1.3-.8-1.3c0,0,.3-1.3-.2-1.4-.4-.1-.2-1.6-.2-1.5s.6-1.5.4-1.8.3-.7-.6-.6c-.9.1,1.5-2.3,1.8-2.3s-.2-.4,0-1.5c.4-.9,1.1-1.1,1.1-1.1,0-1,1.5-3.9,2.6-4.6,0-.4,1-.2,1.2-1.6.2-1.5.2,0,.7-.3.5-.4.2-.4.2-.8s1.3-1.1,1.3-1.3.7-.4.2-1.3c-.4-.8,1.3-.4,1.3-.2,0,.2.4-.4.8-1.4.4-1.1,1-.7,1-.7l1.3-.8s.3-.1.9-.9c.6-.9,2.2-.4,2.2-.4,0,0,6.4.4,13.5-1.1.2,0,0-.4.2-.4.2,0,.8.2,1.1.1,2.1-.6,6.7-2.1,6.7-2.1,0,0-.5-.9.3-1.1.9-.2,2.6,0,3-.7.3-.6.4-.5.9-.1.5.3,3-1.4,3-1.4,0,0,.5-1.1,1-1,.5.2,1.3-1.4,1.3-1.6,0-.2.2-.7.7-1.1.4-.3.3-.6-.2-1.1s.5-.7.2-1.6c-.4-.8-1.5-2.1-4.4-2.6-1.5-.3-3.8-.1-7,.5-.3,0-.6.4-1,.5-.3,0-.6-.2-.9-.1-2.3.6-4.9,1.4-7.9,2.5-.3.1-.6.7-1,.8-.1,0-.4-.2-.5-.2-1.8.2-1.5.6-2.1,1-2,1-4,2.2-5.7,3.3-.5.3-.7.9-1.1,1.3-.2.1-.7,0-.9.1-3.8,2.7-6.2,5.1-6.4,5.1s-9.5-.5-9.9.4c-.4.8-.3.2-1.4,0-1-.2-6.7.6-11.5,1.9-2.7.8-4.4,1.8-7.2,4.7-.2.2.2.6.2.8-.3.2-1.3.4-1.6.6-1.3,1.6-2.5,3.5-2.8,5.5,0,.2,0,.7,0,.9,0,.3-.4.1-.4.4-.2,4.5,2.5,6.8,2.9,7.2.8.6.8-.4.3-1.3-.4-1-.1-2.6-.1-2.9,0-1.6-.1-2-.2-2-.6-.2.5-.6.8-.9.2-.2.4-.4.7-1.1.4-.8,0-.8,0-.8-.9-.7.2-1.6.1-1.6-.2-.1.4-.7.8-1.1.3-.4.8.3,1-.4.2-.6.6-.7,0-.8-.6-.2.3-.6.4-1.2.1-.6.8-.4,3.3-2.6,2.4-2,2.5-1.3,2.8-1.7.3-.4.8-.7,1-.6.2.1,1.2,0,1.3,0s1.1.2,1-.7c-.1-.8.6-.3.8.1s1.1,0,1.1-.2c0-.7.9-.4.9-.4,0,0,3.1-.6,7.1-.7,4,0,7.6-.2,7.6-.2-.2.1-2,1-5.9,6-.3.4-.7.4-1.1,1.5-.1.4.4.8.1,1.3-.4.7-2,1.2-2.4,2-1.9,3.1-2.6,5.9-2.8,8.3,0,.4.4,1,.4,1.3s-.5.4-.5.7c.4,4.6,3.3,7.4,6.1,7.6,1.9.2,4.6-.2,6.7-1.1,2.8-1.3,4.9-3.1,4.9-3s.5-.2.7-1.1c.1-.8.6,0,.6,0,0,0,1.9-1.2,3.2-2.3,1.2-1.2,1.1-.5,1.1-.5,0,0-3.5,4.9-6.9,9.3-.5.6-.8.2-1.5,1.8-.3.8-.9,1.3-1.3,1.9-1.6,2.1-3.2,3.5-3.7,3.8-.2,0-.4,1.9-.5,2.1-.2.2-1.1,0-1.3.3-1.8,2.3-3.6,4.1-4.8,5.2-2,1.9-4,3.2-6,4.2-.2,0,0,.6-.2.7s-.6-.3-.8-.2c-2.6,1.6-5.4,1.8-7.1,1.8-5.4.2-9.3-2.1-10.6-5-.4-.9-1.6-3.1-1.1-3.8,0-.2,0-1.8-.6-2.5-.8-.8.8-1.8.8-2.1,0-.4,1.1-2.8,1.1-3,.6-1.8,1.8-2.6,2.3-3.5.3-.5-.2-1.1-.2-2.8,0-1.4-.4-1.8-1.8-.5-.3.3-.8,1.5-1.2,1.9-.8.9-1.2,1.6-1.8,3.2,0,.1.8,1.6.8,1.8-.1.2-1.5,0-1.5.1-.9,2.8-.7,8,.4,9.3.2.1,1,.4,1.1.6,0,.1-.4.9-.4,1,1,1.6,2.6,3.6,3.8,4.2,2.1,2,6,2.8,8.8,2.8.1,0,.5-.2.6-.2.2,0,.1.2.3.2,2.3,0,4.3-.5,6.1-1,.4-.1.7,0,1.3-.2,1.1-.4,2.2-.7,3.1-1.1,2-1,3.2-2,3.4-2.4.3-1,1.6-.5,1.6-.5,0,0,2.1-1.3,2.6-2.4.6-1.1,3-2.2,3-2.1s.3-.9.6-.9,1.2-.7.9-1.4c-.2-.6.2-.8.7-1.2.5-.4,2.2-2.7,2.2-2.7,0,0,1.6-.2,1.8-1.1.1-1,1.7-1.9,1.5-2s1.7-1.7,2.3-2.8c.6-1.1.2-.4-.2-1.5-.4-1,0,0,.9-.4.9-.3.1-.2.2-.9,0-.8,0,0-.4-.8-.2-.7,1.8-.4,1.8-.4,0,.1,2.2-2.1,2.6-2.7.4-.6,1-.6.2-1.3-.6-.6,1.6-.6,1.6-.6,0,0,.9-2.3,1.1-2.5.1-.2.2-.4.1-1.2,0-.8,1.2,0,1.8-.3.5-.2.5-1.2.8-1.6.3-.4.6-1,.4-1.3-.2-.2.5-1,.4-1.3h0ZM116.6,150.9c.3.3,2-1.4,2.3-1.5.2-.2,3.5-2.5,3.8-2.6.4-.1,1.6-.4,2.1-1.4.5-1.1,2.7-1.8,2.7-1.8,0,0,1,.1,2.1-.8,1.1-.9,1.7-.9,2.3-1.4.6-.5,2.6-.5,2.9-.9.4-.2,5.4-2.6,8.6-1.2,3.1,1.4,1.5,5.8-3.5,7.9-2.2,1.1-4.7,1.6-6.6,2.3-.2,0-.4.8-.5.9-.4.2-1.6,0-2.1.1-3.1.9-5.7,1.3-8,1.6-.3,0,0,.4-1.2.6-.4,0-.5-.4-.9-.4-3.6.4-5.5.2-5.5.2s1.2-2.1,1.5-1.8h0Z"/>
        <path class="cls-1" d="M149.9,175.6c-.1.2-.7.6-1,1.1-1.5,2.1-1.6.8-1.8,1.6-.5.9-.2-.3-1.8,1.2-.6.5-1.5,1.1-2.5.9-.5,0-1-.6-1-1.5,0-.4,0-.4.2-.9.3-1.1-.2-.8,0-1.1l.5-1c.2-.4.5-.4-.4-.7-.4-.1.2-.3.6-.6.3-.2.3-.5.5-.8.3,0,.5,0,.8,0,.5,0,.5,0,.4-.3.4,0,.8,0,.9,0,1.4-.2,1.6-.1,2-.3.5-.2,2.1-.5,1.8-.9,0-.1,2.8-1,2.9-1.5.1-.3.9,0,1.1-.2s1.4-1.3,1.3-1.6c-.3-.8.6-.2.8-.5.8-1,.8-.7.3-1.1-.2-.2.4-.5.4-.7,0-.6,0-.9-.4-1.4-.9-1.1-2.3-1.8-4-1.2-2.1.7-4.9,1.8-7.1,3.6-.2.2-.2.6-.4.8-.3.3-.6-.2-.8,0-.5.4-.9,1-1.2,1.4-.5.8-1.3,1.7-1.3,1.8-.8,0-1.1-.4-1.8.5-.6.7.4.9,1,.8,0,0,0,.1,0,.2-.7.4-.9.7-1.8,1.3-1.1.6-1.3.8-2.1,1.3l-2.2,1.6c-.4.2-.4.8-1.3,1.1s-1.5,1-2,1.3c-.2,0-.3-.2-.3-.4s.3-1.3,1.3-2.2c.1-.1.2-.2.2-.3,0-.2-.3-.1-.3-.5s.2-.3.4-.3h.2l1.1-1.6c.2-.2.2-.4.2-.4s-.1,0-.1-.1c0-.3.5-.9.6-.9.2,0,.2.2.2.2.2,0,1.1-1.7,1.1-2.4s1.6-1.5,1.6-2.1c0,0-.2-.3-.2-.4s0,0,.1,0c.1,0,.2.2.4.2s.4-.4.5-.7c.3,0,2-1.5,2-2.5s-.2-.4-.2-.9,0-.2.2-.2c.2,0,.8.3.8.3.4.1,1.8-3.8,2.3-3.2l.4-1c.3-.8.5-.4.5-1.4s.8-.6.8-.6,1.3-1.5,2.6-3.2c1.5-1.8,1-1.8,1.4-2.3,1.3-2.1,3.8-5.1,3.8-5.5s0-.4.1-.4.2.2.4.2c.6,0,1.4-2.3,1.4-2.3v-.2c0,.1,1.9-1.6,1.7-1.4l.8-.9s0-.1,0-.3,1.2-.6,1.2-1,0-.1,0-.3,0-.1.1-.1c.1,0,.3,0,.4,0,.1,0,.4-1.3,1.6-1.6.1,0,.2-.1.2-.3v-.2c0,0,2.5-2,3-2.3.1,0,2-.9,3.2-.9s1.8,1,2.2,1,.3-.2.3-.6,0-.5,0-.8c0-.1-1-.7-2.2-.7s-3.8.5-6.6,2.3c-2.4,1.5-5.2,4.5-5.2,4.5l-1.1,1.1c-.5.4-.6,1.4-1.1,1.4-1,0-3.4,3.6-7.4,8.9-.5.7-1.2,1-1.5,1.9-.5,1.8-.4.7-.8,1.3-1.6,2.5-3.4,4.7-4.2,5.9s-1.8,3.4-2.9,4.6c-1,1.1-2.5,2.6-2.8,3.5-.6,1.6-2.3,3.8-2.7,4.2,0,0-2.8,4-2.8,5.5s.8,2.7,1.8,2.7,1.1-.2,2.5-1.3c1.5-1.1,1.5-1.5,2.5-2.2.1-.1,0-.3.2-.4l.7-.2c1.1-.8.9-.9,1.8-1.4.8-.5,2.1-1.2,2.7-1.5,0,.2,0,.4-.1.6,0,.2-.3.8,0,.9.4.3-.3.6-.4,1v1.5c0,1.3,1.1,2.2,1.9,2.7.7.4,2.6.1,3.3-.2,1.3-.6,1.5-.4,2.6-1.6.8-.6,2.2-1.3,2.6-2,.4-.7,1-.6,1.6-1.3.4-.4.2-1.1.3-1.8,0-.5-.6,0-.9.7h0ZM145.1,171.6c.4-.4,0-.2.2-.6,1-1.1,1.4-1,1.3-1.4s.4-.6.6-.4.5-.1.7-.3c.4-.4.6-1,1-1.3.6-.3,1.3-.2,1.6-.8.2-.4.7,0,1-.1,1.9-.8,2.1-.6,2.1-.6.7,0,.2,1-.9,2.5-.5.8-1.5,1.7-2.6,2.5-1.8,1.2-4.2,1.8-6.4,1.4,0-.4.8-.4,1.3-.7h0Z"/>
        <path class="cls-1" d="M179.2,172.3c-.6-.1-1.3-.3-1.7-.1s-1.1.4-1.4.6c-.2.2-1.7,1.2-2.2,1.5-.2.1-.5.9-.8.7,0,0-1.4.8-1.7,1.1-.3.3,0,1-.4,1-1,0-1,.5-1.8,1.2-.3.2-.8.3-1.1.8-.2.3-.6.1-.2-.5.5-.8.6-.6.8-.8.2-.4-.2-1.3,0-1.3s.6.4,1.1-.3c.6-.9,1.6-1.9,1.8-2.8.1-.6,0-.8.2-.8s.8-.8,1-1.1c.2-.2-.3-.4-.3-.4.2,0,.8-.5.9-.6.4-.4,1.1-2.1,1.1-2.2,1.1-3-.8-4.5-4.4-2.8-1.4.6-2.9,1.5-3.4,1.9s-1,.2-2.4,1.7c-.6.7-2.3,1.9-3.3,2.8-1,.9-1.6,1.7-2.2,2.1-.6.5-.6,0-.2-.3.3-.4.4-.4.5-.4,0,0,.4-.8.5-1,.1,0,.1-1,.3-.9.2,0,.4.1.7-.4.3-.6.7-1.1.9-1.3.2-.3,0-.4.4-.8,1.3-1.3.2-.3,1.2-1.6,1.5-2.1.6-3.5-1.4-2.7-3.7,1.5-4.2,1.3-4.2,1.3-.3,0-1,.1-.2.8.8.6.6.6,2,0,.2-.1,1.3-.6.5.4-.3.4-.2.3-.2.9,0,1.1-.5.3-.9.8-.4.5-2.5,3.8-3.4,5.2-.9,1.5-.9,2-1.3,2.2-.3.2-.4.2-.3.4.3.8-.4.6-.5.4,0,0-.2.9-.2.9,0,0-.9,1.6-.9,1.6s-.9.6-.2,1.4c.4.4.4.3.5.6.1.3,1.2,1.4,1.6.8.4-.6.4-1.5.7-1.6s.4,0,.5-.4c.1-.3,0-1,.2-1,.8.2.2,0,.7-.5,0,0,.6-.8.6-.8.6-.2.5-.4.6-.8.1-.4,0-1,.2-1,.2,0,.1.4.6,0,.4-.4.2-.7,1-1.3.8-.7.8-.9,1-1.2.2-.2,1.1-.6,1.2-.8.2-.2.3-.7.5-.6,0-.3,2-1.5,2.2-1.7.3-.3-.7-.2,2.8-2,0,0,1.8-1.2,2.5-1.6s1.4-.7,1.9-.4c.8.4.1,1.5-1.1,3.1,0,0-.2.3-.6.8-.1.2,0,.6-.2.9-.1.1-.5.2-.6.4l-2.8,4.2c-1.1,1.5-1.1,2.5-1.3,3,0,.4,0,1.2.6,2.1.5.9,1.2,1.3,1.9.2.3-.5.9-1.1,1.5-1.5,0,0,.6-.6,1.6-1.5.9-.8,2-1.2,2.2-1.5.2-.2,0-.2.4-.5s1.8-.7,2.4-1.5c.2-.3,0,0,.8-.6.8-.5,1.7-.8,2.5-1,.8-.2,1.3,0,1.7-.2s-.2-.7-.8-.8h0Z"/>
        <path class="cls-1" d="M156.3,178.4h0c0,0,0,0,0,0Z"/>
        <path class="cls-1" d="M235.1,135.8c-.3-.5-.8-.6-.8-.6-2.8.6-4.6,1.7-7.2,4.4-1.9,1.9-3,3.5-4.6,5.4l-2.9,3.5c-1.6,1.9-3.3,4-5.7,5.9-1,.8-2.3,1.1-3.5,2.4-.2.2-.4.6-.8.8-.1,0-.5-.1-.6,0-6.6,3.4-9.6,3.5-9.6,3.5,0,0,1.6-1.6,1.6-2,0-1.1,2-3.1,2-3.1,0-.2-.2-1.4.1-1s.9-1.3,1-1.3.8-1.3.8-1.4-.3-.1-.8-.2,1.5-.6,1.6-.6.3-.8.8-.7c.4.1,1-.7,1.5-1.3s1.4-1.8,1.5-2.1c0-.2-.2-.2-.3-.3.3-.1,2-2.1,2.3-2.3.3-.2.9-.6,1.1-.6s.6-.5.6-1,2.3-1.3,2.3-1.3c.9-.2,1.6-1.1,1-3.3-.4-1.8-1.1-1.3-1.6-.6-.8,1.1-2.6,1.7-3.5,1.9-4.2,1.1-4.3.9-7.8.9-.2,0-.6.7-.9.7-.4.1-.7-.6-1.1-.6-4.8.2-8.7.5-11.2,1.3-1.1.2-1.3.9-1.3,1.1-.8.3-1.5-.1-2.4.2-4,1.9-9.5,6.2-10.4,11.9,0,.2.4.3.3.8-.2,1.1-.8.8-.7,1.1,0,.3.1,2.4.2,3.2.8,5.9,4.4,7.6,4.7,8,.5.3.9-.6.7-.7-.2-.1-.8-.7-1.3-1.3-.4-.4-.6-.9-.8-1.9s-.3-1.3-.3-1.5.2-.8.1-1.3c-.2-.4-.3-2.3-.3-2.3,0,0,.4-1.2.2-1.3-.6-.1,0-1.8.6-2,.6-.2.4-1.3.4-1.6s-.3-1.4.2-1.6.9-.9.8-1.1c0-.3,0-1.3.4-1.4s1.2-.8,1.7-1.6c.6-.8.9-1.4,1-1.3,0,.1.6.1.9-.5.1-.6,1.2-1.3,2.4-1.9,4.5-2.9,9.9-1.6,10.5-1.6,2.7.2,3.5-.3,3.8,0,.4.5,1.5.3,2.5.4,1,0,2.7-.5,3.3-.5.4,0,1.2,0,3.1-.7-2.2,1.3-4.2,2.8-4.4,3.4s-.7,1.3-1,1.1-3.1,3.3-4.6,5.7c-.1.2,0,.7-.1.9,0,.1-.6,0-.6,0-2.4,3.3-3.9,6.1-4.7,6.8s-2.1.7-2.5.6c-.4-.1-.1-.5-1.1-.2-1,.2-3.7,1.3-1.8,1.8s3.8.5,4,.6c.2,0-2.3,3.6-3.4,5.2-1.1,1.6-3.5,5.7-3.7,5.5s-3,3.3-4,4.7-3.5,3.5-3.8,4c0,.2-.1.5-.2.8-.4.2-.6.4-.6.6,0,0,0,0-.1-.1v.2c0,.5-.5,1.5-.9,1.4-.5-.2-.4.2-.5.8-.1.6-.4.6-.5.4s-.8,0-1,.1-2.1,1.6-2.4,2c-.3.4-1.5,1.3-2.1.9s-.7,0-1.5.4c-.7.4-1.5,1.1-1.9.8-.5-.3-.9.3-1.3.5-.5.1-1,0-1.5.2-.4,0-2.4-.1-3.1-.2-1.7-.5-1.7.4-2.5-.8-.3-.4-1.3-.5-2-1.2-.7-.7-1.9-2.5-2-2-.1.5.3,1.8,1.1,2.5,1.4,1.2,4,3.3,7.7,3.8,2.7.4,6.6.3,9.3-1,.3-.1.3-.9.6-1,1.4-.6.5.9,1.5.2,4.1-3.1,6.2-5.5,6.3-7.2,0,0,0-.2.1-.4,0,0,0-.1.1-.2.6-.9.8,0,.9,0s.6.1,1.9-1.6c1.3-1.7,1.1-1.8,1.6-1.8s1.1-1.2,1.7-1.7,0-1,.2-1.5.2,0,1-.3c.7-.2,1.9-2.1,2.3-2.6.4-.4.8-.5,1-1.6.2-1.1.7-.4.7-.4,0,0,.9-1.3,1.3-2s.1-.9.1-1,1.5-2.5,1.5-2.5.6-.8.9-.8.6-1.6.7-1.6c1.1.2,1.5,1.8,2,2.8.6,1.1,1.1,1.5.7,1.6-.4,0,1.1,2.1,1.7,4s2.2,5.5,3,6.4c.8.9,0,.2,2.1,4,2.2,3.8,5,5.5,6.7,5.5s2.4.3,3.5-.6c.8-.7-.1-1.3-.2-1.4-.2-.2-.8,1.3-2.4,1.1-1.7-.2-2.7-.9-2.7-1s.1-.7-.4-1.1c-.6-.4-.4-.5-.7-1.1-1.1-2.3-1.3-3.5-1-3.1,0,0-1-1.8-1.6-2.6-.6-.8-1.1-2.8-1.2-2.9s-.4-2.3-1.1-2c-.6.3,0-.6-.2-1s-.2-1.3-.7-1.7,0,0-.6-1.8-.6-2-.9-2.3-.7,0-1-.2-.2-.9-.4-1.5-.4-.7-1.2-1.6c-.7-.7-1.5-1.3-1.9-1.5.6-.1,2.3-.8,2.5-.8s1.1-.2,1.5-.2.1-.4.4-.7,1.1.2,1.6.2,3.2-.8,3.9-1.1c.7-.2,1.6-1.3,2.6-1.6,1-.3.8-.4.8-1.1s.8.4,1.5-.1c.6-.5,1.9-1.3,2-1.6.1-.3,1.2-.6,1.3-.6.1,0,.4-.8.7-.8.2,0,1.3-1,1.3-1,0,0,.7-.1,0-.4-.8-.3,1-.7,1-.8s.8-1,.9-.8,1-.5,1.7-1.2c.8-.7.9-1,.8-1.3s-.6-.7-.4-.6,1.8-.6,2-.6c.1,0,1.8-2.7,1.5-2.8-.3,0,.4-.4.4-1s.9-1.6.8-1.4c-.5,2.5,1.1-1.1,1.8-1.4.7-.4,1.3-.8,1-1.2s.4-1,.5-1.3,1.1-.8,1.3-.9.5-.6.7-1.1,1-.4,1.4-.4,1.6,0,1.3-.5h0Z"/>
        <path class="cls-1" d="M225.2,158.5c.4-.2,1-.2,1.2-.2s.8-.2.8-.2c0,0-.1-.3,0-.3.1,0,1.1,0,1.8-1.1.6-.8.6-.3.7-.6,0-.3.2-.2.4-.6.8-1.2-.5-1.4-1.2-2.3-.2-.3-.4-1.1-.8-1.1s-.5.1-.6.5-.4.9-.6,1.6c-.4,1.4-.6.9-1.4,2.2-.8,1.3-1.3,1.2-1.6,1.6-.4.6.9.8,1.3.6h0Z"/>
        <path class="cls-1" d="M225.4,178.4h0c0,0,0,0,0,0Z"/>
        <path class="cls-1" d="M295.9,135.2c-.3-.6-2.1-.9-3-.6-.9.2-2.3.4-3.6,1.1-1.7.9-4.1,2.3-7.2,5.3s-5.2,6.1-6,7-1.5,1-1.9,1.9-1.6,2.1-2.3,3-2.4,2.5-2.3,2.9c.1.4-.2.4-.4.5s-.2.4-.4.7-2.1,3-3.5,4.7-.2.6-.6,1.3c-.4.8-.9.6-.9.6,0,0-1.6,2.1-1.6,2.1s-2.4-1.4-4.8-1c-2.6.4-3.3.1-5.7,1.9-1.2.9-2.6,1.1-3.3,2.8-.2.4-.8.4-1.1,1-.3.6-.7.6-.8.7-.3.2-.7,1-1.1,2,0,0,0,0,0,0-.2.2-1.7,1.2-2.2,1.5-.2.1-.5.9-.8.7,0,0-1.4.8-1.7,1.1-.3.3,0,1-.4,1-1,0-1,.5-1.8,1.2-.3.2-.8.3-1.1.8-.2.3-.6.1-.2-.5.5-.8.6-.6.8-.8.2-.4-.2-1.3,0-1.3s.6.4,1.1-.3c.6-.9,1.6-1.9,1.8-2.8.1-.6,0-.8.2-.8s.8-.8.9-1.1c.2-.2-.3-.4-.3-.4.2,0,.8-.5,1-.6.4-.4,1.1-2.1,1.1-2.2,1.1-3-.8-4.5-4.4-2.8-1.4.6-2.9,1.5-3.4,1.9s-1,.2-2.4,1.7c-.6.7-2.3,1.9-3.3,2.8-1,.9-1.6,1.7-2.2,2.1-.6.5-.6,0-.2-.3.3-.4.4-.4.5-.4,0,0,.4-.8.5-1,.1,0,.1-1,.3-.9.2,0,.4.1.7-.4.3-.6.7-1.1.9-1.3.2-.3,0-.4.4-.8,1.3-1.3.2-.3,1.2-1.6,1.5-2.1.6-3.5-1.4-2.7-3.7,1.5-4.2,1.3-4.2,1.3-.3,0-1,.1-.2.8.8.6.6.6,2,0,.2-.1,1.3-.6.5.4-.3.4-.2.3-.2.9,0,1.1-.5.3-.9.8-.3.4-1.7,2.5-2.7,4.1-.5,0-1,.3-1.5.6-1.3.7-.3.2-2,1.3-1.6,1.1-3.9,2.8-4.5,3.4-.7.6-2,1.5-2,.8s-.1-.9.2-1c.4-.1.7-1.2,1.4-2.4,1.1-1.9,1.8-2.5,1.8-2.5,0,0-.9-.5-.4-.6,1.1-.2,1.2-.4,1.8-1.2.6-.9.2-1.1.4-1.3.4-.6.4,1.1,1.8-1.6.2-.4,1.6-3.2.8-3.1-1.2,0-2.3.2-4.4,1.1-2.3,1-4,.3-3.3,1s1.1,1,1.6.6c.5-.3,1-.4,1.5-.7.4-.2.8-.2.1.7l-2.4,3.5c-1,1.6-.2-1.1-1.6,2.3-.5,1.3-1.8,3.3-2.1,4-.6,1.2-.7,1.8-.4,2.9.2.9.5,1.1.8,1.5s.9.7,1.8-.6c1.1-1.4,1.6-1.5,2-1.9s1.1-.4,1.5-.9c.4-.5,1-1,1.1-1,.1,0,.8-1.1.8-1.1s.3.3.8-.1c.5-.4.8-.7,1.1-.8.4-.2-.4-.4.4-.5s.9-.6,1.6-.8c.2,0,.4-.1.4-.1-.7,1.1-.7,1.6-1,1.8-.3.2-.4.2-.3.4.3.8-.4.6-.5.4,0,0-.2.9-.2.9,0,0-.9,1.6-.9,1.6s-.9.6-.2,1.4c.4.4.4.3.5.6.1.3,1.2,1.4,1.6.8.4-.6.4-1.5.7-1.6s.4,0,.5-.4c.1-.3,0-1,.2-1,.8.2.2,0,.7-.5,0,0,.6-.8.6-.8.6-.2.5-.4.6-.8.1-.4,0-1,.2-1,.2,0,.1.4.6,0,.4-.4.2-.7,1-1.3.8-.7.8-.9,1-1.2.2-.2,1.1-.6,1.2-.8.2-.2.3-.7.5-.6,0-.3,2-1.5,2.2-1.7.3-.3-.7-.2,2.8-2,0,0,1.8-1.2,2.5-1.6s1.4-.7,1.9-.4c.8.4.1,1.5-1.1,3.1,0,0-.2.3-.6.8-.1.2,0,.6-.2.9-.1.1-.5.2-.6.4l-2.8,4.2c-1.1,1.5-1.1,2.5-1.3,3,0,.4,0,1.2.6,2.1.5.9,1.2,1.3,1.9.2.3-.5.9-1.1,1.5-1.5,0,0,.6-.6,1.6-1.5,1-.8,2-1.2,2.2-1.5s0-.2.4-.5,1.8-.7,2.4-1.5c.2-.2,0-.1.4-.4,0,0,0,.2,0,.2-.6,1.6-1.3,5.7.6,7.1.6.5,2.1,0,2.5-.2s1.9-1.3,2.5-1.8.8-.9,1-.7.6-1,1.2-1.3c1.3-.8,3.8-3.6,4.8-4.8.5-.6.6,0,0,1-.6.8-1.3,1.8-1.7,2.8,0,.2,0,.8-.1,1,0,.2-.6.5-.6.6-.4,1.5-.8,1.3.2,2.6.4.5,1.3,1.5,1.9.7s1.4-1.5,2.2-2.1,1.2-1.1,2-1.6c.7-.5,2.5-1.3,2.7-1.5.2-.2.3-1.1.6-.8s.2-.2.6-.3c.4,0,.8,0,1.1-.4.4-.3,1-.7,1.3-.8.1,0,.3-.1.4-.2-.6,1.2-1.4,2.6-1.7,3.1-.6,1.2-.7,1.8-.4,2.9.2.9.5,1.1.8,1.5.3.4.9.7,1.8-.6,1.1-1.4,1.6-1.5,2-1.9.4-.4,1.1-.4,1.5-.9.4-.5,1-1,1.1-1,.1,0,.8-1.1.8-1.1s.3.3.8-.1c.5-.4.8-.7,1.1-.8.4-.2-.4-.4.4-.5.5,0,.7-.2.9-.4-.2.4-.2.6-.3,1.2,0,.2-.3.8,0,.9.4.3-.3.6-.4,1v1.5c0,1.3,1.1,2.2,1.9,2.7.7.4,2.7.1,3.3-.2,1.3-.6,1.5-.4,2.7-1.6.8-.6,2.2-1.3,2.7-2,.4-.7,1-.6,1.6-1.3.4-.4.2-1.1.3-1.8,0-.5-.6,0-.9.7-.1.2-.7.6-1,1.1-1.5,2.1-1.6.8-1.8,1.6-.5.9-.2-.3-1.8,1.2-.6.5-1.5,1.1-2.5.9-.5,0-1-.6-1-1.5,0-.4,0-.4.2-.9.3-1.1-.2-.8,0-1.1l.5-1c.2-.4.5-.4-.4-.7-.4-.1.2-.3.6-.6.3-.2.3-.6.6-1,.1-.2,1.7,0,2,0,1.4-.2,1.6-.1,2-.3.5-.2,2.1-.5,1.8-.9,0-.1,2.8-1,2.9-1.5.1-.3.9,0,1.1-.2s1.4-1.3,1.3-1.6c-.3-.8.6-.2.8-.5.8-1,.8-.7.3-1.1-.2-.2.4-.5.4-.7,0-.6,0-.9-.4-1.4-.9-1.1-2.3-1.8-4-1.2-2.1.7-4.9,1.8-7.1,3.6-.2.2-.2.6-.4.8-.3.3-.6-.2-.8,0-.5.4-.9,1-1.2,1.4-.5.8-1.3,1.7-1.3,1.8-.8,0-1.1-.4-1.8.5-.5.6.2.9.8.8-1.1.6-.2.2-1.8,1.2-1.6,1.1-3.9,2.8-4.5,3.4-.7.6-2,1.5-2,.8s-.1-.9.2-1c.4-.1.7-1.2,1.4-2.4,1.1-1.9,1.8-2.5,1.8-2.5,0,0-1-.5-.4-.6,1.1-.2,1.2-.4,1.8-1.2.6-.9.2-1.1.4-1.3.4-.6.4,1.1,1.8-1.6.2-.4,1.6-3.2.8-3.1-1.2,0-2.3.2-4.4,1.1-2.3,1-4,.3-3.3,1s1.1,1,1.6.6c.5-.3,1-.4,1.5-.7.4-.2.8-.2.1.7l-2.4,3.5c-.9,1.5-.4-.6-1.2,1.4-.2,0-.4,0-.5.1-1.1.3-4.5,2.6-6.2,3.9-3,2.3-3.7,2.8-4,2.6-.2-.2,0-.5.4-1.1s.3-.8.9-1.5c.4-.4-.4-1-.4-1s.7,0,1.1-.4c.9-1.2,1.1-1.3.2-1.4-.4,0,1-.3,1.4-.9,1.2-1.5,1.5-2.3,2.3-3.6.2-.2-.4-.9-.3-1,0,0,.9.2,1.1,0,.7-1,2.1-3,2.5-3.3s1.8-2.8,1.8-2.8c0,0-.5-.2,0-.4.4-.2.4-.2.9-.6s.4-.6.7-.8.5-.6.6-.4c0,.1,0-.9,0-1.1s-.6-1,0-.9.6.6,1.1,0c.6-.6.6-.8,1-1.3.4-.6.8-.9.7-1,0,0-.7-.4,0-.5s1-.6,1-.9.2-.2.6-.6,0-.8.6-1.3-.7-.7,0-.8c.6,0,.9-.2,1.2-.5.2-.2.3-.4.5-.4s.6-1.4.8-1.1c.2.2.7,0,.8-.3,0-.4,0-.2.5-.9.6-.7.4-1.3.9-1.5s.6-.2.8-.4-.2-.2.4-.8,1.1-.5,1.8-1.4-.1-.6.3-1.1.6-.9,1.2-1.3.7-.8.8-1.1.2-.7.4-.6.5-.2.9-.8c.2-.4.8-.8,1.1-1s.6-.2,1.3-.8.7-1.1,1.1-.9c.4.1,0,0,1.3-.5s2.8-.5,3.7.1c.6.4.8-.1.5-.8h0ZM282.7,171.6c.4-.4,0-.2.2-.6,1-1.1,1.4-1,1.3-1.4,0-.4.4-.6.6-.4s.5-.1.7-.3c.4-.4.6-1,1-1.3.6-.3,1.3-.2,1.6-.8.2-.4.7,0,1-.1,1.9-.8,2.1-.6,2.1-.6.7,0,.2,1-.9,2.5-.5.8-1.5,1.7-2.7,2.5-1.8,1.2-4.2,1.8-6.4,1.4,0-.4.8-.4,1.3-.7h0ZM259.6,169.3c-1.6,2.4-2.8,2.9-4,4.3-.2.2-.8,1-1.8,1.8-1,.9,0,.3-.2.7s-.6.1-.8,0c-.1,0-1.3,1.7-2,2.1-.6.3-.8.3-1.5,1-.4.4-1.6,1.1-1.9,1-.6-.2-.6-1.2-.3-2,.2-.5.6-1,0-1.3-.4-.2.3-.8.3-.8l.2-.8s.4-.5.8-1.1-.3-.5-.4-.8c0,0,0-.1,0-.2.3,0,.6,0,.8-.1,0,0,.1-.1.1-.2,0,0,0,0,0,0,.2-.1.5-.9.4-1.2s.8-.3,1.5-1.3c.7-1,1.8-1.1,1.8-1.6,0-.6,0-.7.4-.9s.5.2.6-.2,2.6-2,3.8-2.1c1.7,0,3.3.6,3.4.8,0,.3-1,1.8-1.6,2.8h0Z"/>
        <path class="cls-1" d="M282.6,156.6c.6-.8.6-.3.7-.6,0-.3.2-.2.4-.6.8-1.2-.5-1.4-1.2-2.3-.2-.3-.4-1.1-.8-1.1s-.5.1-.6.5-.4.9-.6,1.6c-.4,1.4-.6.9-1.4,2.2s-1.3,1.2-1.6,1.6c-.4.6.9.8,1.3.6s1-.2,1.2-.2.8-.2.8-.2c0,0-.1-.3,0-.3.1,0,1.1,0,1.8-1.1h0Z"/>
        <path class="cls-1" d="M351.7,169.3c-.4-.1-.5,1-.5.9s-.6.4-1.3,1.7c-.1.2-.6.2-.8.5-1,1.3-2.4,2.8-4.1,4.5-.2.2-.6,1.5-.9,1.7s-.4-.5-.6-.2c-2.9,2.6-6.7,5.2-12,7.4-.1,0-.3.8-.4.9-.2,0-.4-.6-.6-.5-5.5,2.1-8.2,2-10.2,1.5-2-.4-3-2.1-3.1-2.3,0,.2-.7-1.3,0-1.3-.1,0-.2-.3-.2-1.6s.3-2.6,1-4.5,2.1-3.1,2.1-3.1c0,0,.4.4,1-.6.4-.8-.1-.8-.2-1.2s1-.1,1.4-.4.6-.8,1.3-1.7.6-2.3,1.3-1.5c.1.2,0,.5,1-.3,1-.8,1.7-1.8,2-1.8s1.2-.9,1.3-.9,0-.7.6-.6c.5.1,1.3.1,1.1-.2s-.2-.7.2-.7.3.3.8-.1c.4-.4,2.2-1,3-1.3,3.1-1.2,1.5-1.2,1.8-1.6s1.8-.4,2.3-.8c.5-.3-.2.9.8.5s3.9-1.5,4.4-1.6,2.7-1.1,2.8-1.1,1.1,0,1.3-.2.9-.4,1.7-.6,1.9-.2,3.2-.3c1.3,0,.4-1.9-.2-2.5-.6-.5-.9-.6-1.3-.6s-1.5,0-1.6,0-1.1.3-1.3.2-3,.8-3,.9-1.2,0-4.6-.4c-.2,0-1.6-.4-2-.9-.3-.6.1-1.1.1-1.1,0,0-.1-1,0-1.1s.6-.5.6-.6,0-.5.2-.5.3-.2.5-.5c.4-.8,1-.6,3-.6s4,0,5.5-.2c1.5-.2,6.2-.7,6.7-.7s1.5-.6,1.8-.9c.3-.3,1.1.4,1.8.1s.6-1.1,1.1-1.4.9-.4.9-.3c.2.4,1.3,0,1.3,0,0-.4,1.2-.4,2.7-1.8.1-.1.7-.5.6-.8,0-.3,1,0,1,0,0,0,3.7-3.8,1.3-5.5s-11.4-.8-19.4,2.7c-2.1.9-3.8,1.8-5.3,2.8-.3.2.3.9,0,1.1s-1.8-.1-2.1,0c-2.2.8-3.7,3.6-3.7,3.6s-2-.2-5,0c-2.3.2-5.3.2-8.6,1.1-1.5.4-3.4,1.3-4.1,1.9-.3.3,0,.4-1,1.1-.2.1-.8-.1-1,0-2.8,1.8-4.6,3.9-5.2,5.7,0,.2.3.4.2.7,0,.2-.5.4-.5.6-.4,2.8.5,4.9,3,6.4,1.4.9,2.7.9,3,.7.3-.2-.2-.7-.9-.8-.8,0,0-.6-.6-.8s-.8-.9-.9-1-.2-1.1-.2-1.1c0,0,.2-.3-.6-.4s.3-.6.2-1c0-.3,0-.8,0-1.1s0-.6.3-.9.2-.4,0-.6-.1-.6.2-1c.3-.4.5-.6.6-.6,0,0,1-.6.9-.7s0-.3.2-.6c.3-.3.3-.8.6-.4s.4-.7.4-.7,0,0-.1-.2c0-.2.3-.4.5-.2.2.1,1.1-1.1,1.5-1.5.4-.4,1.7-.8,2.7-1.2s4-1.1,4.1-1.1c0,0,.5-.2,1.3-.2s0-.2,1.1-.4,2.5,0,2.9,0,.9.1,1.6-.2c.7-.4,1,.1,1,.1,0,0,1.6.1,1.5.2-.8,1-1.5,2.6-1.1,3.6.2.7.8.1,1.2.8,0,.1-.5.6-.2.9,1.5,1.9,5.1,1.6,5.2,1.6-.2,0-1.6.6-3.6,1.3-.4.1-.3.4-.8.6-.3.1-1.8-.2-2.1,0-2.2.9-4.7,2.2-6.6,3.4-1.5,1-2.7,1.8-4.2,3-.2.2.8.3-.6,1.5-.3.2-1.2.1-1.5.4-3.9,2.7-7.7,6.7-7.7,11.7s.5.5.5.8-.8.5-.8.8c0,3.4,1.6,5.9,2.9,7,2.4,2,7.4,1.8,9,1.6,1.5-.2,3.5-.7,4.3-.9s4.6-1.5,5.4-2,2.5-.8,3.4-1.2,1-.7,1.5-1.1,1,0,1,0c0,0,2.9-2.1,3.2-2.1s0-.4.3-.8,1.3-.2,1.3-.2c0,0,1.3-1.1,1.7-1.3s.9-1.1.9-1.3.7-.6.8-.6.4-.4.6-.7-.5-.4-.5-.4c0,0,.9-.6,1.2-.5-.2-.2.6-1.6,1-3.4.2-1.1,0-1.5.2-2.5.2-.6.1-.7-.3-.8h0ZM345.1,146.6c.7-.2,1.1,0,1.3-.6s-.2-.9.1-.8c.4.1.4-.2.6-.4s.2-.4.4-.4,0-.3.5,0,.9.8,1.2.1c.3-.6.9-1,1-1s1.4-.8,1.9-.7c.5,0,1.1-.2,1.6-.7.5-.4.6-1,1.2-1s1.9-.2,2-.4.6-.8,1-.8,1.1-.2,1.5-.4,6.5-.9,7.8-.1c2.5,1.5-4.6,6.1-9.4,7.4-.5.1-6.2,1.4-8.6,1.6-4.6.3-7,0-7.1,0-.2.1,2.3-1.8,3-2h0Z"/>
        <path class="cls-1" d="M363.9,166.3c.9-.2.4-.6.8-.8s1-.5,1.3-.5c.8,0,1.6.4,1.9.8s.6.8.3,1.9c-.2,1.2-.7,1.5-.8,1.6-.5.6-1,1-.6,1,1.2,0,2-.2,2.1-.6s0-.9.3-.4c.1.2.8-.2,1.3-.6s.5-2,.5-2.3c0-.8-.8-.8-1-1.3s-3.2-1.3-6-.4c-1.2.4-1.8,1-2.5,1.5-.1.1.1.2,0,.4s-.6.1-.8.2c-.4.5-.8,1.1-.9,1.6-.3,1.3.2,2.4,1.3,4.9.2.6.6,1.1.7,1.6,0,.1.5,0,.5.2,0,.2-.4.6-.4.8,0,1.3.2,2.4-.4,3.3-.6.9-1.3,1.6-2.1,1.8-.2,0-1.5.2-1.7.2-.2,0-.4-.2-.7-.2-1.6,0-1.8-.4-2.2-1.3-.2-.6-.3-1.1-.2-1.6,0-.5.1-.9.1-1.4s-.9-1-.4-.9c.4,0,.9-.2,1-.8.1-.5,0-.5.4-.9s0-.6.4-1.1,1.1-.6,1.3-.8.4-.6-.4-.4c-1.6.2-3.9,1.7-3.9,1.7-1.1,1.3-1.9,3.9,0,6.5,1.8,2.3,8.1,2.4,9.9.6,1.1-1,.7-.9.7-1.3s.6-.2,1-.6-.3-1.5.3-1.5-.6-.8-.2-1c.8-.4.1-1.1.2-1.2s-1-.1-1.1-.2c-.1,0,.6-.3.7-.6,0-.3,0-1.3-.2-1.8-.1-.3-.3-.5-.5-.6-.3-.1.2-.5-.2-.4s-1.3.1-1.2-.1c0-.2.6-.4.7-.6s0-.4-.2-.9-.6-.6-.6-1,.6.1.4-.5-.2-1.4.2-1.8.7-.6,1-.6h0Z"/>
        <path class="cls-1" d="M377.8,168.9c.2-.2.8-1.3,1-1.6s-.2-.4-.4-.8,1.1-.4,1.1-.4c0,0,.8-1,.9-1.1s-.2-.2-.6-.4,1.2-.6,1.1-.6.6-.7.8-1c.2-.2,0-.9.2-1s3.2-.6,7.7-.6.3-.4.6-.4c2.8-.2,1.6-.1,2.7-.1s1.8-.3,3.4,1c.8.7,1,.6,1,.4s0-.4-.1-1.2c-.4-1.3-.2-1.3-2.7-1.7-1.3-.2-.2,0-4.4.3-.6,0-.4.2-1,.3-.2,0-.4-.3-.6-.2-3,.6-4.8.4-5.2.6.6-.8-.2-.4.2-1.1.5-.5.4.3.8-.2.1-.1,0-.9,0-1,.2-.2.6,0,.8-.1.3-.4.3-.7.5-.9.9-.8.8-.9,0-1-1.5-.2-2.8.8-4.1,1.3-.9,1.2-.7,1-1.3,2-.6,1.1-.4,1.1-.9,1.1,0,0-.2.7-1,.8-.8,0-2.7.2-3.3-.1-.4-.2-1-.4-1.6-.8-.6-.4-1.7-1.1-1,.2.2.6.6.8,1.1,1.5.3.5,1.4.5,2.4.6.4,0,.4-.2.6-.2s.5.2.7.2c.6,0,1.1-.2,1-.1l-.4.6c-.7.9-2,2.6-3.3,4.5-.5.8-1,.8-1.6,2.4-.1.4,0,1-.2,1.3-.2.2-.8.2-1,.5-1.1,1.6-2.1,2.9-2.7,3.8-.8,1.2-3.7,7-2.6,9.4.1.2.6,0,.7.2.3.2-.1.6,0,1,.6,2,2.5,2.4,3.3,1.9.4-.2-1.8.2-2.2-2.2-.4-2.4.6-4.8,1.3-5.4-.8-.6-.6-1,0-1,.1,0,.2.2.7-.3,1.4-1.6,1-1.8,2.2-2.8.3-.2-.6-.2-1-.6s1.5-.4,1.5-.4c.4-.3,1.4-2.3,2.1-2.5.6-.1,1-2.1,1.5-2.8.3-.4,1.3-1.1,1.5-1.3h0Z"/>
        <path class="cls-1" d="M407,167.2c.2-.4-.2-.4-.4-.8s1.1-.4,1.1-.4c0,0,.8-1,.9-1.1s-.2-.2-.6-.4,1.2-.6,1.1-.6.6-.7.8-1c.2-.2,0-.9.2-1s3.2-.6,7.7-.6.3-.4.6-.4c2.8-.2,1.6-.1,2.7-.1s1.8-.3,3.4,1c.8.7,1,.6,1,.4s0-.4-.1-1.2c-.4-1.3-.2-1.3-2.7-1.7-1.3-.2-.2,0-4.4.3-.6,0-.4.2-1,.3-.2,0-.4-.3-.6-.2-3,.6-4.8.4-5.2.6.6-.8-.2-.4.2-1.1.5-.5.4.3.8-.2.1-.1,0-.9,0-1,.2-.2.6,0,.8-.1.3-.4.3-.7.5-.9.9-.8.8-.9,0-1-1.5-.2-2.8.8-4.1,1.3-.9,1.2-.7,1-1.3,2-.6,1.1-.4,1.1-.9,1.1,0,0-.2.7-1,.8-.8,0-2.7.2-3.3-.1-.4-.2-1-.4-1.6-.8-.6-.4-1.7-1.1-1,.2.2.6.6.8,1.1,1.5.3.5,1.4.5,2.4.6.4,0,.4-.2.6-.2s.5.2.7.2c.6,0,1.1-.2,1-.1l-.4.6c-.7.9-2,2.6-3.3,4.5-.5.8-1,.8-1.6,2.4-.1.4,0,1-.2,1.3-.2.2-.8.2-1,.5,0,.1-.2.2-.3.4-.6.3-1,.6-1.2.8-.4.2-1.9,1.1-2,1.5-.1.3-.6.3-.9.3s-.7.5-1.3,1c-.6.5-1.6,1.3-1.6,1.3,0,0,0,.5-.2.5s-.2-.2-.6,0-1.1.7-1.5,1.1-.5.5-.6.4c0-.1,0-.6.4-.9.3-.4.5-.8.1-1.1-.5-.4.8-.5.9-.7.2-.2,0-.8.4-1.2s-.1-1.1.1-.9c.2.2.6,0,1.2-.9s.6-1.5.6-1.5c0,0-.9-.7-.4-.7.9,0,1.8-.7,1.8-.8,0-.2.2-.2.4-.5s0-1.5.2-1.3.3,1,.7.6.3-1,.8-1.5c.4-.5.8-.6,1.3-1,.6-.6,1.4-1.6,1.3-2-.2-.6-1.6-.2-2-.1-.3,0-1.3,0-1.3,0-.3.3-.6.6-.9,1,0,0-.6-.2-1.1-.5s-2.5-.6-3.7-.4c-2.5.2-4.2,1-6.5,2.2-1.2.6-3.2,2.5-3.1,2.8,0,.4-.2.8-.4.8-1.5-.8-3.8,5.7-3.9,7.2-.1,2,0,2.8.6,3.7s2,.4,2.7,0c1.9-1.1,2.8-2,4.5-3.5,1.1-1,.8-1.3,1-1.3s.5,0,.7-.6c.2-.5.8-.8.8-.8.2.6,1.1-1,1.5-1.5l1.2-1.1c.6-.6.8,0,.4.3-.2.2-.6.8-.8,1.1-.9,1.5-2.1,3.1-2.5,4.5-.2,1-.2,1.9.6,2.6,1.2,1.1,1.4.8,1.8.2.7-1.1.5-.7,1.2-1.6.9-1.1,1.1-1.1,2-1.7l1.5-1.1s1-1.3,1.7-1.2c.2,0,.2,0,1-.6.8-.5.8-.6,1.3-1l.7-.4c-.4.6-.8,1.1-1.1,1.5-.8,1.2-3.7,7-2.6,9.4.1.2.6,0,.7.2.3.2-.1.6,0,1,.6,2,2.5,2.4,3.3,1.9.4-.2-1.8.2-2.2-2.2-.4-2.4.6-4.8,1.3-5.4-.8-.6-.6-1,0-1,.1,0,.2.2.7-.3,1.4-1.6,1-1.8,2.2-2.8.3-.2-.6-.2-1-.6s1.5-.4,1.5-.4c.4-.3,1.4-2.3,2.1-2.5.6-.1,1-2.1,1.5-2.8.3-.4,1.3-1.1,1.5-1.3s.8-1.3,1-1.6h0ZM388,172.9c-.5.6-.4.8-.7.8s-1.3,1.2-1.5,1.3-1.3,1.6-1.6,1.6c-.3,0-.8.6-.8.6,0,0,0,.3-.2.3s-.4.2-.8.5l-1.7,1.5c-.6.5-1.2.1-1.3-.3-.1-1,0-.8.2-1.5.1-.4,0-.8.4-1.2s-.5-.4-.3-.9,1.1-.6,1.5-.9c.2-.2.6-1.3,1-1.8.2-.3-.6-.8-.4-1s.9.2,1.1,0,.7-.6.8-.9c.2-.5.2-1.2.8-1.3.4,0,.5-1.1.4-1.1.5-.6.4.8,1.7-.9.8-1,3-1.8,4.2-1.9,1.1,0,1.6.2,2,.4.2,0,.8.7.8.7,0,0-1.6,1.9-2.3,2.7-1,1.2-2.8,2.8-3.3,3.3h0Z"/>
        <path class="cls-1" d="M417.3,175.6c-.1.2-.7.6-1,1.1-1.5,2.1-1.6.8-1.8,1.6-.5.9-.2-.3-1.8,1.2-.6.5-1.5,1.1-2.5.9-.5,0-1-.6-1-1.5,0-.4,0-.4.2-.9.3-1.1-.2-.8,0-1.1l.5-1c.2-.4.5-.4-.4-.7-.4-.1.2-.3.6-.6.3-.2.3-.6.6-1,.1-.2,1.7,0,2,0,1.4-.2,1.6-.1,2-.3.5-.2,2.1-.5,1.8-.9,0-.1,2.8-1,2.9-1.5.1-.3.9,0,1.1-.2s1.4-1.3,1.3-1.6c-.3-.8.6-.2.8-.5.8-1,.8-.7.3-1.1-.2-.2.4-.5.4-.7,0-.6,0-.9-.4-1.4-.9-1.1-2.3-1.8-4-1.2-2.1.7-4.9,1.8-7.1,3.6-.2.2-.2.6-.4.8-.3.3-.6-.2-.8,0-.5.4-.9,1-1.2,1.4-.5.8-1.3,1.7-1.3,1.8-.8,0-1.1-.4-1.8.5-.6.7.4.9,1,.8-.8,1.8-.7,1.6-1,2.6,0,.2-.3.8,0,.9.4.3-.3.6-.4,1v1.5c0,1.3,1.1,2.2,1.9,2.7.7.4,2.7.1,3.3-.2,1.3-.6,1.5-.4,2.7-1.6.8-.6,2.2-1.3,2.7-2,.4-.7,1-.6,1.6-1.3.4-.4.2-1.1.3-1.8,0-.5-.6,0-.9.7h0ZM412.5,171.6c.4-.4,0-.2.2-.6,1-1.1,1.4-1,1.3-1.4,0-.4.4-.6.6-.4s.5-.1.7-.3c.4-.4.6-1,1-1.3.6-.3,1.3-.2,1.6-.8.2-.4.7,0,1-.1,1.9-.8,2.1-.6,2.1-.6.7,0,.2,1-.9,2.5-.5.8-1.5,1.7-2.7,2.5-1.8,1.2-4.2,1.8-6.4,1.4,0-.4.8-.4,1.3-.7h0Z"/>
        <path class="cls-1" d="M437.2,165.2c-.2-.5-3.2-1.3-6-.4-1.2.4-1.8,1-2.5,1.5-.1.1.1.2,0,.4s-.6.1-.8.2c-.4.5-.8,1.1-.9,1.6-.3,1.3.2,2.4,1.3,4.9.2.6.6,1.1.7,1.6,0,.1.5,0,.5.2,0,.2-.4.6-.4.8,0,1.3.2,2.4-.4,3.3-.6.9-1.3,1.6-2.1,1.8-.2,0-1.5.2-1.7.2-.2,0-.4-.2-.7-.2-1.6,0-1.8-.4-2.2-1.3-.2-.6-.3-1.1-.2-1.6,0-.5.1-.9.1-1.4s-.9-1-.4-.9c.4,0,.9-.2,1-.8.1-.5,0-.5.4-.9s0-.6.4-1.1,1.1-.6,1.3-.8.4-.6-.4-.4c-1.6.2-3.9,1.7-3.9,1.7-1.1,1.3-1.9,3.9,0,6.5,1.8,2.3,8.1,2.4,9.9.6,1.1-1,.7-.9.7-1.3s.6-.2,1-.6-.3-1.5.3-1.5-.6-.8-.2-1c.8-.4.1-1.1.2-1.2s-1-.1-1.1-.2c-.1,0,.6-.3.7-.6,0-.3,0-1.3-.2-1.8-.1-.3-.3-.5-.5-.6-.3-.1.2-.5-.2-.4s-1.3.1-1.2-.1c0-.2.6-.4.7-.6s0-.4-.2-.9-.6-.6-.6-1,.6.1.4-.5-.2-1.4.2-1.8.7-.6,1-.6c.9-.2.4-.6.8-.8s1-.5,1.3-.5c.8,0,1.6.4,1.9.8s.6.8.3,1.9c-.2,1.2-.7,1.5-.8,1.6-.5.6-1,1-.6,1,1.2,0,2-.2,2.1-.6s0-.9.3-.4c.1.2.8-.2,1.3-.6s.5-2,.5-2.3c0-.8-.8-.8-1-1.3h0Z"/>
      </g>
    </g>
  </g>
</svg>