<?xml version="1.0" encoding="utf-8"?>
<!-- Generator: Adobe Illustrator 28.6.0, SVG Export Plug-In . SVG Version: 9.03 Build 54939)  -->
<svg version="1.0" xmlns="http://www.w3.org/2000/svg" xmlns:xlink="http://www.w3.org/1999/xlink" x="0px" y="0px"
	 viewBox="0 0 25.9 25.9" style="enable-background:new 0 0 25.9 25.9;" xml:space="preserve">
<style type="text/css">
	.st0{display:none;}
	.st1{display:inline;}
	.st2{clip-path:url(#SVGID_00000060720044189229781520000012924958770850721173_);}
	.st3{opacity:6.000000e-02;fill:#FFFFFF;}
	.st4{opacity:0.13;}
	.st5{display:inline;fill:#FFFFFF;}
	.st6{fill:#212B26;}
	.st7{fill:#E2E2D9;}
	.st8{fill:#F6BA4C;}
</style>
<g id="Layer_7">
</g>
<g id="Layer_1">
	<g id="Layer_3" class="st0">
	</g>
	<g id="Layer_2">
	</g>
</g>
<g id="Layer_4">
	<g id="Layer_5" class="st0">
	</g>
</g>
<g id="Layer_10">
</g>
<g id="Layer_8">
</g>
<g id="Layer_6">
</g>
<g id="Layer_9">
</g>
<g id="Layer_11">
	<path class="st7" d="M25.9,12.9c0,7.2-5.8,12.9-12.9,12.9h0C5.8,25.9,0,20.1,0,12.9v0C0,5.8,5.8,0,12.9,0h0
		C20.1,0,25.9,5.8,25.9,12.9L25.9,12.9z M16.5,6.2h-7c-1.8,0-3.3,1.5-3.3,3.3v7c0,1.8,1.5,3.3,3.3,3.3h7c1.8,0,3.3-1.5,3.3-3.3v-7
		C19.7,7.6,18.3,6.2,16.5,6.2z M18.6,16.2c0,1.3-1,2.3-2.3,2.3H9.7c-1.3,0-2.3-1-2.3-2.3V9.7c0-1.3,1-2.3,2.3-2.3h6.6
		c1.3,0,2.3,1,2.3,2.3V16.2z M13,9.4c-1.9,0-3.5,1.6-3.5,3.5c0,1.9,1.6,3.5,3.5,3.5s3.5-1.6,3.5-3.5C16.5,11,14.9,9.4,13,9.4z
		 M13,15.3c-1.3,0-2.3-1.1-2.3-2.3s1.1-2.3,2.3-2.3s2.3,1.1,2.3,2.3S14.2,15.3,13,15.3z M17.4,9.2c0-0.4-0.3-0.7-0.7-0.7
		c-0.4,0-0.7,0.3-0.7,0.7s0.3,0.7,0.7,0.7C17.1,9.9,17.4,9.6,17.4,9.2z"/>
</g>
</svg>
