<?xml version="1.0" encoding="utf-8"?>
<!-- Generator: Adobe Illustrator 28.6.0, SVG Export Plug-In . SVG Version: 9.03 Build 54939)  -->
<svg version="1.0" xmlns="http://www.w3.org/2000/svg" xmlns:xlink="http://www.w3.org/1999/xlink" x="0px" y="0px"
	 viewBox="0 0 25.9 25.9" style="enable-background:new 0 0 25.9 25.9;" xml:space="preserve">
<style type="text/css">
	.st0{display:none;}
	.st1{display:inline;}
	.st2{clip-path:url(#SVGID_00000075885103553548649590000001164010694596334741_);}
	.st3{opacity:6.000000e-02;fill:#FFFFFF;}
	.st4{opacity:0.13;}
	.st5{display:inline;fill:#FFFFFF;}
	.st6{fill:#212B26;}
	.st7{fill:#E2E2D9;}
	.st8{fill:#F6BA4C;}
</style>
<g id="Layer_7">
</g>
<g id="Layer_1">
	<g id="Layer_3" class="st0">
	</g>
	<g id="Layer_2">
	</g>
</g>
<g id="Layer_4">
	<g id="Layer_5" class="st0">
	</g>
</g>
<g id="Layer_10">
</g>
<g id="Layer_8">
</g>
<g id="Layer_6">
</g>
<g id="Layer_9">
</g>
<g id="Layer_11">
	<path class="st7" d="M25.9,12.9c0,7.2-5.8,12.9-12.9,12.9h0C5.8,25.9,0,20.1,0,12.9v0C0,5.8,5.8,0,12.9,0h0
		C20.1,0,25.9,5.8,25.9,12.9L25.9,12.9z M14.8,11.8l5.2-5.6h-2L14,10.6l-3.1-4.4H5.4l5.5,7.7l-5.5,5.9h2l4.4-4.7l3.4,4.7h5.4
		L14.8,11.8z M8.2,7.6h1.9l7.7,10.7h-1.9L8.2,7.6z"/>
</g>
</svg>
