<?xml version="1.0" encoding="utf-8"?>
<!-- Generator: Adobe Illustrator 28.6.0, SVG Export Plug-In . SVG Version: 9.03 Build 54939)  -->
<svg version="1.0" xmlns="http://www.w3.org/2000/svg" xmlns:xlink="http://www.w3.org/1999/xlink" x="0px" y="0px"
	 viewBox="0 0 25.9 25.9" style="enable-background:new 0 0 25.9 25.9;" xml:space="preserve">
<style type="text/css">
	.st0{display:none;}
	.st1{display:inline;}
	.st2{clip-path:url(#SVGID_00000020382136220037093140000008779594356248724411_);}
	.st3{opacity:6.000000e-02;fill:#FFFFFF;}
	.st4{opacity:0.13;}
	.st5{display:inline;fill:#FFFFFF;}
	.st6{fill:#212B26;}
	.st7{fill:#E2E2D9;}
	.st8{fill:#F6BA4C;}
</style>
<g id="Layer_7">
</g>
<g id="Layer_1">
	<g id="Layer_3" class="st0">
	</g>
	<g id="Layer_2">
	</g>
</g>
<g id="Layer_4">
	<g id="Layer_5" class="st0">
	</g>
</g>
<g id="Layer_10">
</g>
<g id="Layer_8">
</g>
<g id="Layer_6">
</g>
<g id="Layer_9">
</g>
<g id="Layer_11">
	<path class="st7" d="M25.9,12.9c0,7.2-5.8,12.9-12.9,12.9h0C5.8,25.9,0,20.1,0,12.9v0C0,5.8,5.8,0,12.9,0h0
		C20.1,0,25.9,5.8,25.9,12.9L25.9,12.9z M16.2,11.3h-3V8.8c0-0.8,0.6-1.4,1.4-1.4h1.8c0.2,0,0.4-0.2,0.4-0.4V4.8
		c0-0.2-0.2-0.4-0.4-0.4h-2.5c-2,0-3.6,1.6-3.6,3.6v3.3H8.2c-0.2,0-0.4,0.2-0.4,0.4v2.2c0,0.2,0.2,0.4,0.4,0.4h2.2v7.1
		c0.6,0.1,1.3,0.2,2,0.2c0.3,0,0.6,0,0.9,0v-7.2H16c0.3,0,0.5-0.2,0.6-0.5l0.2-1.7C16.8,11.6,16.6,11.3,16.2,11.3z"/>
</g>
</svg>
