<?xml version="1.0" encoding="utf-8"?>
<!-- Generator: Adobe Illustrator 28.6.0, SVG Export Plug-In . SVG Version: 9.03 Build 54939)  -->
<svg version="1.0" xmlns="http://www.w3.org/2000/svg" xmlns:xlink="http://www.w3.org/1999/xlink" x="0px" y="0px"
	 viewBox="0 0 93.9 54.8" style="enable-background:new 0 0 93.9 54.8;" xml:space="preserve">
<style type="text/css">
	.st0{display:none;}
	.st1{display:inline;}
	.st2{clip-path:url(#SVGID_00000129205729097045232700000013074889490174086068_);}
	.st3{opacity:6.000000e-02;fill:#FFFFFF;}
	.st4{opacity:0.13;}
	.st5{display:inline;fill:#FFFFFF;}
	.st6{fill:#212B26;}
	.st7{fill:#E2E2D9;}
	.st8{fill:#F6BA4C;}
</style>
<g id="Layer_7">
</g>
<g id="Layer_1">
	<g id="Layer_3" class="st0">
	</g>
	<g id="Layer_2">
	</g>
</g>
<g id="Layer_4">
	<g id="Layer_5" class="st0">
	</g>
</g>
<g id="Layer_10">
</g>
<g id="Layer_8">
</g>
<g id="Layer_6">
</g>
<g id="Layer_9">
	<g id="KGK_Logo_00000005242663101236479290000012341767348136420753_">
		<polygon class="st8" points="34.5,40 34.5,40 34.5,40 		"/>
		<path class="st8" d="M26.8,4.4c0.1-0.2,0.3-0.3,0.4-0.4C27.1,4.1,27,4.2,26.8,4.4z"/>
		<path class="st8" d="M90.4,33.1c-3.9,0.3-3.2,4.6-3.2,4.6c0.9-1.2,2.5-2,3.9-1.4c1.9,0.7,3,5.1-1.4,5.3C87.2,41.7,85,39.3,84,38
			l-0.6-0.9c-2.1-3.2-1.1-6.5-1.1-6.5c-1.6,2.2-3.3,0.3-3.6,0l-7.5-10.5c0.6-0.7,0.5-0.6,1.2-1.4c3.7-4.5,7.2-6.5,7.7-6.8
			c1.2-0.6,3.8-1.5,4.9,0.8c1.1,2.3-1.1,4.9-1.1,4.9c5.1-0.9,6.9-6.1,4.3-7.5c-3.1-1.6-7.7,0.7-9.6,1.9c-1.8,1.1-3.1,2.3-4.7,2.9
			c-1.5,0.6-4.1,0.5-4.3,0.5c2.8,0,2.2,1.9,1.6,2.6c-0.2,0.3-4.8,5.5-5.1,5.9V13.5c0.1-1.5,0.6-2.4,3.1-4.2c0,0-1.3,0.9-2.8,1.3
			c-1.4,0.4-4,0.3-5.3-0.3c-1.6-0.6-2.9-1.2-4.2-1.6c0,0.4,0,0.8,0,1.2c2.6,1.5,4.2,3.1,4.2,3.1v12.4c0,3.3-0.8,5.5-2,6.6
			c0,0,1.8-0.8,2,2.4v2.4c-1.3,1-3.2,2.2-5.3,3.2c0-0.3,0-0.6,0-0.9c0-7.5,0-14.2,0.1-15.3c0.1-1.1,0.7-2.1,1.3-3
			c0.9-1.4,0.9-2.8,1-3.8c0,0-1,1.8-2.3,2.7c-1.3,0.9-3.1,0.9-4.4,1.3c-1.3,0.4-4,1.4-5.1,4.2c0,0,2-1.5,3.9-1.5c0,0,0,7.4-0.3,8.7
			c-0.2,1.3-0.2,3.2-4.2,6.1c0,0,3.2-0.8,3.8-1.5c0,0-0.1,2.3,0,4.6c-2.5,0.1-5.5-0.4-8.6-2c-0.7-6-1-15.9-0.5-25.6
			c0.1-1.1,0.2-2.3,0.3-3.4c-1.4,0.9-5.3,3.8-7.4,6.4c0,0.6-0.1,1.2-0.1,1.8c0,4.9,0.1,10.2,0.3,14.6c0.1,2.3,0.3,5.3,0.6,6.7
			c0,0,0,0,0,0c0,0,0,0,0,0c1.1,5.8,6,10.2,10.1,9.5c1.8-0.3,3.4-1,5.9-3.7l0,0c0.9,1.5,2.3,2.3,4.3,2.3c2.2,0,4.1-1.7,5.4-3.2
			c0,0-3.3,1.3-4.1-3.6c-1,0.5-3.2,1.5-6.2,2.3c0.1,0.5,0.1,0.9,0.2,1.2l0,0c-0.2,1.2-6.3,4.4-8.3-2.3c2.6,0.4,5.3,0.4,8,0.1
			c3-0.2,6.2-1.7,6.2-1.7c1.8-0.7,3.9-1.8,5.9-3.4c0.9-0.7,4.4-3.2,6.8-1.3c0.9,0.7,1.7,3.6-2.6,3.8c0,0,1.7,1.8,4.2,1.3
			c2.5-0.5,2.9-2.8,2-4.7c-1.5-3-6.1-2.2-6.1-2.2v-8.6c0,0,0.2-0.2,1.6-1.7l12.2,15.8c0,0,1.5,1.8,1.7,3.8c0.2,2.7-2.1,3.8-3.5,3.7
			c-1.7-0.1-2.3-0.8-2.3-2c0.1-1.6,2.3-1.2,2.3-1.2c-0.5-0.9-1.6-1.3-2.4-1.3c-2,0-3.1,1.8-2.3,3.7c0.4,1,1.1,1.6,2.2,2
			c2.2,0.8,4.7,0.1,5.9-2.3c0.5-1,0.6-2.3,0.5-3.1c0,0,8.7,1.9,11.1-3C94.7,36.9,93.8,32.8,90.4,33.1z"/>
		<path class="st8" d="M26.8,21.4c3.2-3.1,6-5.7,7-6.6c1.5-1.4,6.1-4.6,7.4-5.1c2.4-1.2,5.2-2.1,8.2-2.1c1,0,2,0.1,2.9,0.3
			c-0.9,3.8-5.4,2.9-5.4,2.9s3.6,5,7.5,2.1c1-0.8,1.7-2,1.9-3.4c0.1-0.3,0.1-0.4,0.1-1c0.2-3.9-2.6-8.5-9-8.5
			c-7.2,0-11.5,5.3-13.1,12.1c-1.4,0.6-2.9,1.2-4.7,1.5c-1.3,0.3-3.3,0.2-4.3,0.1c-1-0.1-1.5,0.1-1.5,0.1c1.7,0.2,3.2,0.9,3.7,2.5
			c0.5,1.5,0,2.5-0.7,3.1c-0.4,0.4-6.4,5.6-6.4,5.6v-7.9c0-4.8,3.2-9.4,6.5-12.8c-3.6,3.6-10.1,9-13.5,10c-2.1,0.6-3.6,0.3-4.4-0.8
			c-0.8-1.1,0.1-2.8,0.1-2.8S5.2,13,6.6,16c1.6,3.6,8.4-0.5,8.4-0.5s0,7.9,0,9c0,1.1,0.1,2.4-1.2,2.4c-1.3,0-2.4-0.5-2.4-0.5
			S15,28,15,33.2c0,0,0,4.9,0,6.1c0,3.6-1.7,7.1-7.2,6.8c-5.4-0.4-5.9-4.2-5.9-5.7c0-1.5,0.6-4.8,4.3-4.9c3.3-0.1,3.3,4,1.8,5.5
			c0,0,4.2-1.9,4-5.2c-0.2-3.8-3.9-5-7.4-3.9c-3.3,1-5.5,5.4-4.3,9.2c1.5,4.7,5.1,5.6,7.6,5.5c2.4,0,3.5-0.3,6.1-1.7
			c0,0-4.1,2.8-2.1,7.1c1.3,2.9,4.5,3.3,6.7,2.4c1.3-0.6,1.9-1.1,2.3-2.1c0.8-2.1-0.3-3.9-2.4-3.9c-0.8,0-2,0.5-2.5,1.4
			c0,0,2.3-0.4,2.4,1.2c0,1.3-0.6,2-2.4,2.1c-1.5,0.1-3.9-0.8-4-3.7c0-1.2,0.4-2.7,2-3.8c1.5-1.2,2.9-0.8,3.7-0.7
			c0,0,0.5-3.5,5.3-6.1c0,0-2.7,0.1-2.7-2.2c0-0.8,0.1-9.2,0.1-9.2s0.5-0.5,1.3-1.2c0.6,1,5.6,9.1,11.1,12.7
			c0.3,0.2,0.6,0.4,0.9,0.5c-0.4-1.3-0.9-3.7-1.1-7.8C30.6,29,28.6,25.6,26.8,21.4z M46.9,1.1c4.2-0.3,5.5,2.8,5.5,5.3
			c0,0.3,0,0.7-0.1,1c-1.1-0.2-1.9-0.3-2.7-0.3C47,7,44.1,7.6,41.8,8.4c-0.2,0.1-0.3,0.1-0.5,0.2C42.2,4.6,43.9,1.3,46.9,1.1z"/>
		<line class="st8" x1="69.6" y1="15.5" x2="69.7" y2="15.5"/>
	</g>
</g>
<g id="Layer_11">
</g>
</svg>
