<?xml version="1.0" encoding="UTF-8"?>
<svg id="Layer_1" data-name="Layer 1" xmlns="http://www.w3.org/2000/svg" viewBox="0 0 330.66 78.88">
  <defs>
    <style>
      .cls-1 {
        fill: #e2e2d9;
      }
    </style>
  </defs>
  <g id="Explore">
    <path class="cls-1" d="M73.67,40.13c.69-.19.69-.06,1.2-.82s.76-1.32,1.13-1.89c.38-.57-.57-.5-.5-1.07.06-.57,1.07-.06,1.01-.69-.06-.63.5-1.58.5-2.02,0-.5.19-1.89-.57-2.71-.69-.69-1.83-.44-2.65-.13-.82.32-1.39.5-1.89.95s-1.2.63-1.39.82c-.95.95-2.39,1.95-3.28,2.83-.19.25-2.21,2.02-3.15,2.83-1.64,1.39-2.02,1.83-2.27,1.7-.31-.19.38-.82.82-1.51.44-.76,2.02-2.52,1.76-2.52-.13,0-1.01-.19-.76-.44.32-.32,1.13.13,1.58-.57.5-.76,1.13-1.89,1.39-2.27.69-1.2,1.26-2.27-.13-1.95-.69.19-2.58.32-3.47.69-1.7.76-1.95.82-2.39.95-.69.19-1.89.19-2.39.25-.57.06.38,1.39.95,1.26.57-.13,2.14-.63,2.65-.95,1.13-.57.5.5.32.69-.32.38-.69,1.2-1.32,1.89-.57.63-2.65,4.28-2.65,4.35s-.44.32-.31.5c.13.19.06.57-.38.44-.44-.06-.76,1.64-1.89,2.77-1.46,1.46-2.2,2.79-3.27,4.23,0,0,0-.01,0-.01-.76,0-1.83-.76-2.08-2.52-.06-.19-.44-2.08-.63-2.33.19.13-.13-.57-.19-.82-.06-.44.25-.63.19-.76-.06-.13-.44-.69-.76-.69-.25.06.32-.44.25-.57,0-.95-.25-1.26-.19-1.83.31-.25,1.32-1.45,1.7-2.02.44-.63,2.14-1.64,2.21-1.83-.06-.19-.38-.38,0-.44.31-.13.44,0,.88-.38.5-.63,1.13-.57,1.26-.63.19-.13.69-.69,1.2-1.13.32-.32,1.13-.95,1.45-.76.95.63.44-.76-1.01-1.07-1.32-.25-2.52.57-3.09,1.26-.63.69-1.07,1.2-1.51,1.58-.32.44-1.7,1.89-3.34,3.78,0,.06-.06-2.83-.44-2.46,0,.06-.06-1.2-.19-1.64-.13-.44-.25-1.2-.5-1.13.25-.44-2.33-1.64-4.03-.63,1.39.38,1.45,1.07,1.83,3.09.06.19.5-.13.57.06.06.25-.38.76-.32,1.01.25,1.76.63,4.22.57,4.22s-1.7,2.02-2.71,3.02c-.95.88-3.59,3.53-4.47,4.28-.82.76-2.08,1.76-4.28,2.77-2.34,1.08-4.47,1.46-7.23.9.14-.12.26-.25.42-.39.44-.38.95.06.95.06,0,0,2.9-2.08,3.21-2.08s.06-.44.32-.82,1.32-.19,1.32-.19c0,0,1.26-1.07,1.7-1.26.44-.19.95-1.13.95-1.26s.69-.63.76-.63.44-.44.63-.69c.19-.25-.5-.44-.5-.44,0,0,.95-.57,1.2-.5-.25-.19.63-1.64,1.01-3.4.25-1.13-.06-1.45.25-2.52.19-.57.13-.69-.31-.82-.44-.13-.5.95-.5.88s-.63.44-1.26,1.7c-.13.25-.57.19-.82.5-1.01,1.26-2.39,2.83-4.1,4.47-.25.25-.63,1.45-.88,1.7s-.38-.5-.63-.25c-2.9,2.58-6.68,5.23-12.03,7.37-.13.06-.31.82-.44.88-.19.06-.38-.57-.57-.5-5.54,2.08-8.25,1.95-10.21,1.51-1.95-.44-3.02-2.08-3.09-2.27-.06.25-.69-1.26.06-1.32-.13-.06-.25-.31-.25-1.64,0-1.64.31-2.65.94-4.47.63-1.83,2.14-3.09,2.14-3.09,0,0,.38.38.95-.63.44-.76-.13-.82-.19-1.2-.06-.38.95-.13,1.39-.38.44-.25.63-.82,1.32-1.7.69-.88.63-2.33,1.26-1.51.13.19-.06.5.94-.31,1.01-.82,1.7-1.76,1.95-1.76s1.2-.88,1.26-.88.06-.69.57-.57,1.26.13,1.07-.25c-.19-.38-.19-.69.19-.69s.31.31.76-.13c.44-.44,2.21-.95,2.96-1.26,3.09-1.2,1.45-1.2,1.83-1.57s1.83-.44,2.33-.76c.5-.31-.25.88.82.5,1.07-.38,3.91-1.51,4.41-1.64s2.65-1.13,2.83-1.13,1.07,0,1.26-.19c.19-.19.88-.38,1.7-.57.82-.19,1.89-.25,3.15-.32,1.26-.06.38-1.95-.19-2.46-.57-.5-.88-.63-1.26-.63s-1.45.06-1.58.06-1.07.32-1.26.19c-.19-.13-2.96.82-3.02.88-.06.06-1.2.06-4.6-.44-.19,0-1.64-.38-1.95-.94-.32-.57.13-1.13.13-1.13,0,0-.13-1.01,0-1.13s.63-.5.57-.63c-.06-.13.06-.5.25-.5s.32-.19.5-.5c.44-.76,1.01-.57,2.96-.57.95,0,4.03,0,5.54-.19,1.51-.19,6.24-.69,6.68-.69s1.51-.57,1.83-.88c.31-.32,1.07.38,1.76.13.69-.25.63-1.13,1.13-1.39.5-.25.88-.38.88-.31.19.44,1.32-.06,1.32-.06.06-.44,1.2-.38,2.71-1.76.13-.13.69-.5.63-.82-.06-.31,1.01-.06,1.01-.06,0,0,3.65-3.78,1.26-5.54-2.39-1.76-11.4-.76-19.4,2.71-2.08.88-3.84,1.83-5.29,2.77-.31.19.32.88.06,1.07-.25.19-1.76-.13-2.08,0-2.21.76-3.72,3.65-3.72,3.59s-1.95-.19-5.04.06c-2.33.19-5.29.25-8.63,1.07-1.51.38-3.4,1.26-4.1,1.95-.32.31.06.38-1.01,1.07-.25.13-.76-.13-1.01,0-2.83,1.76-4.6,3.91-5.23,5.67-.06.25.31.44.25.69-.06.19-.5.38-.5.57-.38,2.83.5,4.91,2.96,6.43,1.39.88,2.71.88,2.96.69.32-.25-.19-.69-.95-.76-.76-.06-.06-.57-.63-.82-.57-.25-.82-.88-.95-1.01-.13-.13-.25-1.07-.25-1.07,0,0,.25-.31-.57-.44-.82-.13.31-.63.25-.95-.06-.32,0-.82.06-1.07.06-.25,0-.63.32-.94.32-.32.19-.38,0-.63-.19-.25-.13-.57.19-1.01.32-.44.5-.63.57-.57.06.06,1.01-.63.88-.69-.13-.06-.06-.32.25-.63s.32-.82.57-.44.44-.69.38-.69-.06,0-.13-.25c-.06-.25.32-.38.5-.25.19.13,1.07-1.07,1.51-1.51.44-.44,1.7-.76,2.71-1.2,1.01-.44,4.03-1.13,4.09-1.07s.5-.25,1.26-.25c.57,0-.06-.25,1.07-.44,1.13-.19,2.46-.06,2.9-.06s.88.13,1.58-.25.95.13.95.13c0,0,1.58.13,1.45.25-.76,1.01-1.51,2.65-1.13,3.65.25.69.82.13,1.2.82.06.13-.5.57-.25.88,1.51,1.89,5.1,1.64,5.17,1.64-.19.06-1.64.57-3.59,1.32-.38.13-.32.38-.76.57-.32.13-1.76-.19-2.14-.06-2.21.88-4.66,2.21-6.62,3.4-1.51.95-2.71,1.83-4.22,3.02-.25.19.82.32-.63,1.45-.31.25-1.2.13-1.51.38-3.91,2.71-7.69,6.74-7.69,11.66,0,.25.5.5.5.76,0,.32-.82.5-.82.76,0,3.4,1.58,5.92,2.9,6.99,2.39,1.95,7.43,1.83,8.95,1.64,1.51-.19,3.53-.69,4.28-.94.76-.25,4.6-1.51,5.36-1.95.76-.44,2.52-.76,3.4-1.2.15-.07.27-.14.37-.2.17.53.73,1.3,1.58,1.78.31.19,1.32.06,1.64.06.5,0,1.2-.19,1.76-.25.57-.06.57-.31.57-.57-.06-.25.38.25.5.25.13-.06.76-.19,1.26-.57.38-.32,1.01-.44,1.07-.38.06,0,.38-.44.38-.44,0,0,.63.13.82,0,.19-.13.38-.19.69-.69.13-.32,1.07-.76,1.64-1.39.38-.38,1.07-.57,1.13-1.01.06-.44.57-.32.57-.32,0,0,.5-.25,1.01-.76.44-.44,1.26-1.45,1.26-1.45,0,0,.31-.31.5-.44.19-.13.19.19.25.06.06-.13,1.32-1.58,1.51-1.76s-.06-.5-.06-.5c.13-.13,1.32-1.01,1.51-1.45,0,.31.13,1.26.38,2.46.06.13.5.13.57.32.06.19-.38.44-.32.63.19.57.76,2.46,1.01,2.96.57,1.39,2.27,1.76,3.15,1.58.22-.03.39-.09.54-.17-.1.12-.19.23-.29.35-.38.44-1.32,2.39-1.39,2.71-.06.31-.32,1.45-.44,1.2s-.38-.19-.44-.19-3.78,5.04-4.47,5.86c-.5.63-3.4,4.41-4.85,5.92-1.45,1.51-2.39,2.77-3.53,4.1-1.13,1.32-7.12,6.8-10.52,8.25-3.4,1.45-7.25,1.39-8.44,1.13-1.2-.25-1.26-.5-1.7-.63-.44-.13-.69-.63-1.01-.82-.31-.19-.82-2.14-1.26,0-.19.94.13,1.26.76,1.64s3.65.82,4.85.82,3.09-.06,3.09-.06c0,0,.44-.76.76-.63.32.13.25.38.82.25l2.46-.63c.5-.13,1.32-.57,1.58-.63.25-.06.06-.88.5-.88s.19.13.76-.13c.57-.25,1.39-.5,1.95-.69.57-.19,1.2-.44,1.26-.5.06-.06-.06-.63.44-1.01.5-.38-.13.88.82,0,.95-.88,1.83-1.58,2.27-1.83.44-.25,1.64-1.45,1.64-1.51s-1.32-.06-.76-.25c.57-.19,1.01-.13,1.39-.31.38-.19.76-.57.88-.69s.06-.44.32-.44,1.45-1.07,1.64-1.32c.19-.25-.69-.25-.5-.57.19-.32-.13-.13.69-.32.82-.19.19.5,1.01-.38s1.26-1.64,1.83-2.21,1.01-1.01,1.07-1.01-.38-.82.06-.69c.44.13.06.63.63.06s1.01-1.26,1.01-1.26c.19-.19.19-1.2.57-1.07s.32,0,.76-.44c.44-.44,1.76-2.46,2.02-2.71s.25-.57.57-.57,1.32-1.83,1.32-1.89-.06-.25.38-.38c.44-.13.95-.82,1.39-1.39.44-.57.31-1.01.57-1.01s.38-.82.69-1.39c.32-.57.88-1.07,1.2-1.39.32-.31.69-1.51.95-1.45.94.19,1.01.44,3.02.38,2.02-.06,4.28-.38,4.92-.57.5-.13,1.39-.69,1.58-1.01.19-.38.25.06,1.07-.5l1.51-.95c-.13-.06-1.2-.76-.38-.76,1.51,0,1.13.06,1.64-.19.63-.31,1.32-1.45,1.89-1.51.44-.06.57-.19,1.13-.76,1.32-1.26.57-1.07.19-1.2s-.57-.19.13-.38ZM32.78,12.47c.69-.25,1.13,0,1.26-.57.13-.57-.25-.88.13-.76.38.13.44-.19.63-.44.19-.25.19-.38.44-.38s0-.32.5-.06c.5.25.88.76,1.2.13.32-.63.95-1.01,1.01-1.01s1.39-.76,1.89-.69c.5.06,1.13-.25,1.64-.69.5-.44.57-1.01,1.2-1.01s1.89-.25,2.02-.38.57-.76,1.01-.76,1.13-.25,1.45-.38c.31-.13,6.55-.88,7.81-.13,2.46,1.51-4.6,6.05-9.39,7.43-.5.13-6.17,1.45-8.63,1.64-4.6.32-6.99,0-7.12.06-.19.13,2.27-1.76,2.96-2.02ZM73.1,35.53c0,.06-.25,1.32-1.51,2.96-.69.88.13,1.45-.25,1.7s-.82-.31-1.2.06c-.38.38-2.14,2.96-4.16,4.35-2.08,1.45-4.72,2.39-6.24,2.33-1.51-.06-1.95-.5-1.89-.57.88-.44.44-.5.57-.69.19-.32-.44-1.13.5-1.13.88,0,0,.06.57-.63.76-.95.32-.69.63-1.07.38-.44,2.21-1.45,2.39-1.76.19-.31,1.01-1.07,1.32-1.2.31-.19.19-.44.69-.95.44-.44,1.64-1.2,1.83-1.51.13-.31.06-.76.25-.69.5.13.63-.38,1.01-.63,1.01-.76,2.58-1.7,3.02-2.08.44-.38,1.26-.69,1.7-.82.44-.13,1.01,0,1.01.82s-.25,1.45-.25,1.51Z"/>
    <path class="cls-1" d="M103.15,38.05c.25.06.57,0,.57-.25s-.32-.63,0-.76c.31-.13-.06-.57.13-1.07.19-.5.25-.5.25-.95s-.06-1.39-.25-1.64c-.19-.25-1.45-1.2-2.08-1.26-.32-.06-.25.19.06,1.01.13.38-.19,2.02-1.01,4.16,0,0-1.01,2.02-.76,1.76,0,0,.44,0-1.01,1.45-.38.38-1.07,1.64-2.02,2.52-.06.06-.13.5-.19.57-.13.13-.31-.13-.44,0-.95.88-1.83,1.83-3.21,2.46-1.2.57-2.65.63-3.15.25-.32-.25-.44-1.07-.06-1.95.06-.19,0-.76.13-.95.88-1.26.69-1.39,1.01-1.95.19-.38.19-1.07.13-1.45-.06-.38.44-.5.63-.19.09.16.16,0,.25-.27.13-.03.14-.11.08-.22.09-.23.2-.49.36-.7l.76-.88s.06-.44.19-.95c.38-1.83.82-.82,1.01-.69.19.13.38-.06.63-.5.25-.44.38-.82.76-1.07s.5-.44.82-1.01c.32-.57.69-.76.95-.76s.57-.5.69-.63.5-.13.63-.13.19-.5.88-.76.95-.13,1.13-.19c.19-.06.44-.13.88,0,.44.13.5.32,1.01.38.5.06,1.13,1.51,1.26,1.07.25-.88,0-1.2-.44-1.64-.5-.5-.82-.57-2.08-.69-2.14-.19-3.47.38-3.47.38,0,0-2.39.13-2.46.82-.06.69-.95.25-1.58.69-1.51,1.07-2.33,2.21-3.4,3.4-.13.19.38.44.25.63-.13.19-1.01.19-1.13.38-.3.39-.82,1.15-1.32,2.09-.26.09-.5.2-.7.3-.95.5-1.07.82-2.14,1.45s-1.32.76-2.08,1.26l-2.21,1.57c-.38.25-.44.76-1.26,1.13-.82.38-1.51,1.01-2.02,1.26-.19-.06-.31-.19-.31-.38,0-.06.31-1.26,1.26-2.21.13-.13.19-.25.19-.32,0-.19-.31-.13-.31-.5,0-.25.25-.31.44-.31h.25l1.13-1.58c.19-.25.25-.38.25-.44s-.13,0-.13-.13c0-.32.5-.88.57-.88.19,0,.25.25.25.25.19.06,1.07-1.7,1.07-2.39,0-.38,1.64-1.45,1.58-2.08-.06-.06-.19-.31-.19-.44,0-.06.06-.06.13-.06.13.06.25.19.38.19.06,0,.44-.44.5-.69.32,0,1.95-1.45,1.95-2.46,0-.25-.25-.44-.25-.88,0-.13.06-.19.19-.19.25,0,.76.32.76.32.44.13,1.76-3.78,2.27-3.21l.44-1.01c.31-.76.5-.38.5-1.39,0-.44.76-.57.76-.63s1.26-1.51,2.65-3.21c1.45-1.76,1.01-1.76,1.39-2.27,1.32-2.08,3.78-5.1,3.78-5.48,0-.32.06-.44.13-.44s.19.19.38.19c.57,0,1.39-2.33,1.39-2.27v-.19c0,.13,1.89-1.64,1.7-1.39l.76-.88s-.06-.13-.06-.31c0-.25,1.2-.57,1.2-1.01,0-.06-.06-.13-.06-.31,0-.13.06-.13.13-.13.13,0,.32.06.38.06.13,0,.44-1.26,1.57-1.64.13-.06.25-.13.25-.32v-.25c0-.06,2.46-2.02,2.96-2.33.13-.06,1.95-.88,3.21-.88,1.13,0,1.83,1.01,2.21,1.01.25,0,.32-.19.32-.57,0-.25,0-.5-.06-.82-.06-.13-1.01-.69-2.21-.69-1.32,0-3.84.5-6.62,2.27-2.39,1.51-5.17,4.47-5.17,4.47l-1.13,1.07c-.5.44-.63,1.39-1.07,1.39-.95,0-3.4,3.59-7.43,8.88-.5.69-1.2,1.01-1.45,1.95-.5,1.83-.44.69-.82,1.26-1.64,2.52-3.4,4.66-4.16,5.92s-1.83,3.4-2.9,4.6c-1.01,1.13-2.52,2.65-2.83,3.53-.63,1.58-2.27,3.84-2.71,4.22,0,0-2.77,3.97-2.77,5.54,0,.82.76,2.71,1.76,2.71s1.07-.19,2.52-1.26c1.45-1.07,1.45-1.45,2.46-2.21.13-.13,0-.31.19-.44l.69-.19c1.13-.76.88-.88,1.76-1.39.95-.57,2.9-1.58,2.9-1.58,0,0,.25-.44.69-.5.01,0,.04,0,.05,0-.3.78-.54,1.6-.62,2.4-.25,2.52.32,3.47,1.01,4.22.69.76,2.46,1.45,4.03.63s2.33-.63,2.65-.82c.31-.19,1.51-1.26,1.58-1.58.06-.31.31.5.69.06.38-.44.95-.95,1.26-1.2.31-.25,2.58-2.39,2.58-2.46s-.82-.95-.44-.88c.38.06,1.07.38,1.58-.57,0,0,.63-.57.82-.76.19-.19,0-1.32.25-1.26Z"/>
    <path class="cls-1" d="M121.61,35.79c.82-1.13.25-.95.5-1.45.57-1.13.69-1.89.25-3.28-.32-.94-1.45-1.2-3.02-.31-.82.44-1.95,1.45-5.36,4.6,0,0-1.01,1.13-1.89,1.95-.13.13-.06.38-.19.44-.19.19-.5.13-.5.13,0,0-1.58,1.39-2.08,1.89-.5.57-.82.5-.63.13.44-.82,1.13-1.58,1.2-1.7.06-.13-.76-.32-.38-.5.38-.19.76,0,.88-.25.13-.25,1.07-1.39,1.32-1.7.32-.38,0-.5.38-1.01.31-.44.38,0,.69-.63.69-1.45.57-1.32.5-2.58-.06-1.01,0-2.33-2.27-.82-1.32.88-1.51.5-2.21.82-.76.25-1.45.88-2.39,1.01-.38.06.88,1.01,1.64.69.38-.19,1.2-.95,1.51-.95.5-.25.88,0,.19.69-.63.69-1.13,1.64-1.2,1.64-.63.32-.13.5-.25.82-.19.38-.63.5-.82.63-.19.13-.38.88-.69,1.32-.25.44-.44.76-.13,1.2.06.13-.82-.06-.95.25-.06.31-.06.57-.25.82-.19.25-.63.5-.94,1.13-.25.63-1.01,2.46-1.51,2.77-.19.13-.31.76-.5,1.13-.19.38.25,1.13.57,1.7.69,1.32.88,1.7,1.39,1.13l1.13-1.32c.69-.95-.44-.63.69-1.26.57-.32.88-1.07.88-1.07,0,0-.57-1.01-.19-.82.63.32.69-.13,1.26-.82.57-.69,1.89-1.76,1.95-1.83s.82-.95.95-.88c.13.06,0-.82.25-.76.25.06.5.13.82-.19.31-.32,1.57-2.08,2.21-2.52.63-.44,1.64-1.39,2.14-1.83.5-.44,2.27-1.58,2.58-1.39.32.19.13,1.07-.13,1.45s.32.63-.57,1.51c.06-.13-.82,1.51-1.07,1.76-.38.38-.82,1.07-.06.88.76-.19,1.01-.13,2.08-.57,1.07-.44,1.95-1.26,1.45-1.39-.44-.13,0-.38.13-.63.19-.38.44.25.63-.06Z"/>
    <path class="cls-1" d="M138.68,32.57c-.06-.57,0-.88-.38-1.39-.88-1.07-2.27-1.76-4.03-1.2-2.14.69-4.91,1.76-7.12,3.59-.25.19-.25.63-.44.82-.31.31-.57-.25-.82,0-.5.44-.88,1.01-1.2,1.39-.5.76-1.26,1.7-1.32,1.76-.76.06-1.07-.44-1.83.5-.57.69.38.88.95.82-.76,1.76-.69,1.58-.95,2.65-.06.25-.32.76-.06.88.44.32-.31.63-.38,1.01v1.51c0,1.32,1.07,2.21,1.89,2.71.69.44,2.65.13,3.34-.19,1.32-.63,1.45-.44,2.65-1.64.76-.63,2.21-1.26,2.65-2.02.44-.69,1.01-.57,1.64-1.26.38-.38.19-1.13.31-1.83.06-.5-.57,0-.88.69-.13.19-.69.63-1.01,1.07-1.45,2.08-1.58.82-1.83,1.64-.5.88-.19-.31-1.83,1.2-.57.5-1.51,1.07-2.52.88-.5-.06-1.01-.63-1.01-1.45-.06-.38.06-.44.19-.88.31-1.07-.19-.82.06-1.13l.5-1.01c.19-.44.5-.44-.38-.69-.44-.13.25-.32.57-.63.31-.25.31-.57.57-1.01.13-.19,1.7,0,2.02-.06,1.39-.25,1.58-.13,2.02-.32.5-.25,2.14-.5,1.83-.88-.06-.13,2.77-1.01,2.9-1.45.13-.31.88-.06,1.13-.19.25-.13,1.39-1.32,1.32-1.58-.31-.76.57-.25.76-.5.76-.95.76-.69.32-1.13-.19-.25.38-.5.38-.69ZM135.66,34.27c-.5.76-1.51,1.7-2.65,2.46-1.76,1.2-4.16,1.76-6.36,1.39,0-.44.82-.38,1.26-.69.44-.38-.06-.25.25-.63,1.01-1.07,1.39-1.01,1.32-1.39-.06-.38.38-.57.57-.44.19.13.5-.13.69-.31.44-.44.57-1.01,1.01-1.26.63-.32,1.26-.19,1.64-.82.25-.44.69,0,1.01-.13,1.89-.76,2.08-.63,2.14-.63.69.06.19,1.01-.88,2.46Z"/>
    <path class="cls-1" d="M191.6,1.51c-3.15,1.57-5.04,3.46-7.25,5.48-1.89,1.7-4.1,4.03-5.48,6.11l-.19.57c-.19.19-.38.13-.5.32-1.39,1.75-6.77,9.24-8.6,11.62-2.92.53-4.64.42-5.07.6.57-.82-.19-.44.19-1.13.5-.5.38.32.76-.19.13-.13-.06-.88,0-1.01.19-.25.63.06.76-.13.32-.38.32-.69.5-.88.88-.76.82-.88-.06-1.01-1.45-.25-2.83.76-4.1,1.26-.88,1.2-.69,1.01-1.26,2.02-.63,1.13-.38,1.13-.88,1.13.06,0-.19.69-1.01.76-.82.06-2.65.19-3.28-.13-.38-.19-.95-.38-1.64-.82-.63-.38-1.7-1.13-.94.25.19.63.57.82,1.07,1.51.31.5,1.39.5,2.39.63.44.06.38-.25.63-.25.19,0,.5.19.69.19.63-.06,1.07-.19,1.01-.13l-.38.63c-.69.88-2.02,2.65-3.28,4.54-.5.76-1.01.82-1.64,2.39-.13.38,0,1.01-.25,1.32-.19.25-.82.25-1.01.5-1.13,1.64-2.14,2.9-2.71,3.78-.76,1.2-3.65,6.99-2.58,9.39.13.25.63,0,.69.19.31.19-.13.63-.06.95.57,2.02,2.46,2.39,3.34,1.89.38-.25-1.76.25-2.21-2.21-.44-2.39.63-4.79,1.26-5.36-.82-.57-.57-.95,0-.95.13.06.25.19.69-.31,1.39-1.58,1.01-1.83,2.21-2.77.31-.25-.57-.19-1.01-.57-.44-.38,1.45-.38,1.45-.38.38-.31,1.39-2.33,2.14-2.46.63-.13,1.01-2.14,1.51-2.83.32-.44,1.26-1.07,1.51-1.32s.76-1.26,1.01-1.64-.19-.38-.38-.76c-.19-.38,1.13-.44,1.13-.44,0,0,.76-1.01.88-1.13s-.19-.25-.57-.38,1.2-.57,1.13-.63.57-.69.76-.95c.19-.25.06-.88.19-1.01.05-.05,2.09-.42,5.2-.57-1.14,1.81-3.45,6.13-5.01,7.82-.76.82-1.2,1.89-1.89,3.02-.06.13.13.5.06.63-.13.19-.5.13-.63.31l-1.58,2.65c-.57.82-1.01,1.76-1.39,2.58-.76,1.64-.57,1.95-.06,2.77.5.82,1.45,1.32,1.83.25.19-.5.25-1.13.5-1.26.25-.13.32-.5.69-1.13s-.76-.31-.69-.38c.19-.44,1.64-.63,1.64-.76s.38-.63.57-.88c.19-.25-.13-.19.38-.63.5-.44.57-1.26.63-1.26s.5.25.76-.31c.25-.57.82-.76,1.26-1.26.44-.5,3.15-2.46,3.72-2.96.57-.5,2.27-1.51,2.27-1.51,0,0,.32-.19.44-.69s1.07-.19,1.13-.19,2.9-2.14,3.34-1.39c.44.76-.5,2.21-.5,2.21-1.2,1.95-2.08,3.02-3.02,4.47-.13.13.25.38.13.57-.06.13-.63.13-.69.25-.32.57-.76,1.2-1.13,1.95-.82,1.58-1.01,2.08-1.07,2.65-.19,1.51.25,2.02.76,2.65.38.44,1.13.82,1.51.25.38-.57.13-.63.88-1.2.76-.57.82-.82,1.39-1.39s.5-.76,1.76-1.76c1.26-1.01,1.89-1.07,1.95-1.07.63-.13.25-.57.82-1.01.57-.44.88-.25,1.01-.31.88-.57-.31-.19.76-.88.07-.05.13-.08.19-.11-.31.73-.32.83-.51,1.63-.06.25-.32.76-.06.88.44.32-.31.63-.38,1.01v1.51c0,1.32,1.07,2.21,1.89,2.71.69.44,2.65.13,3.34-.19,1.32-.63,1.45-.44,2.65-1.64.76-.63,2.21-1.26,2.65-2.02.44-.69,1.01-.57,1.64-1.26.38-.38.19-1.13.31-1.83.06-.5-.57,0-.88.69-.13.19-.69.63-1.01,1.07-1.45,2.08-1.58.82-1.83,1.64-.5.88-.19-.31-1.83,1.2-.57.5-1.51,1.07-2.52.88-.5-.06-1.01-.63-1.01-1.45-.06-.38.06-.44.19-.88.31-1.07-.19-.82.06-1.13l.5-1.01c.19-.44.5-.44-.38-.69-.44-.13.25-.32.57-.63.31-.25.31-.57.57-1.01.13-.19,1.7,0,2.02-.06,1.39-.25,1.58-.13,2.02-.32.5-.25,2.14-.5,1.83-.88-.06-.13,2.77-1.01,2.9-1.45.13-.31.88-.06,1.13-.19.25-.13,1.39-1.32,1.32-1.58-.31-.76.57-.25.76-.5.76-.95.76-.69.32-1.13-.19-.25.38-.5.38-.69-.06-.57,0-.88-.38-1.39-.88-1.07-2.27-1.76-4.03-1.2-2.14.69-4.91,1.76-7.12,3.59-.25.19-.25.63-.44.82-.31.31-.57-.25-.82,0-.5.44-.88,1.01-1.2,1.39-.5.76-1.26,1.7-1.32,1.76-.76.06-1.07-.44-1.83.5-.46.56.07.79.59.82-1.72.93-3.55,2.31-4.93,3.34-.94.69-2.08,1.7-2.65,2.27-.5.5-.63.06-.38-.25.25-.31,1.01-1.76,1.32-2.21.31-.44-.06-.5,0-.88.06-.38.88-.5,1.13-.76s.88-1.45.76-1.64c-.13-.19-.19-.76.38-.5.32.13.57-.82.57-.82,0,0,.94-.63,1.13-1.01,1.07-2.21.38-1.64.44-1.76.25-.63.76-1.01,1.01-2.14.25-1.13-.13-1.58-1.13-1.95-1.01-.38-1.76.06-3.34.76-1.58.69-4.09,2.71-6.24,4.1-2.14,1.39-3.4,3.02-4.35,3.21,0,0-.06-.25,0-.38.82-1.13,3.21-4.91,4.09-6.3.69-1.07,1.07-2.14,1.13-2.14s1.2-1.26,1.13-1.2-.25,0-.44-.31c-.19-.32.76-.32.76-.32,0,0,.44-.44,1.12-1.3,1.23-.1.61-.02,1.53-.02,1.13,0,1.76-.31,3.4,1.01.82.69.94.57,1.01.44.06-.13.06-.44-.13-1.2-.38-1.26-.25-1.32-2.71-1.7-1.14-.17-.44-.03-3.36.23.27-.38,1.95-.52,2.29-.86.38-.38.19-.57.19-1.13s.63-.69,1.13-1.32-.19-.25-.5-.31c-.32-.06,1.07-.88,1.2-1.07.13-.19.69-.63.94-.88s-.38-.44-.44-.82c-.06-.38.76-.13.76-.19s1.45-1.64,1.51-2.08c.06-.44.44-1.01,1.39-1.64,1.13-.76-.76-.19-.38-.82.38-.63,1.45-.44,1.7-.94.25-.5,1.45-1.39,1.76-1.76.31-.38.06-.63.06-.63,0,0,.57-.25.63-.25s.31-.5.38-.88c.06-.38.44-.82.88-1.26s1.2-.69,1.07-1.01c-.06-.19.63-1.51,1.58-1.83,1.2-.38,1.83-1.64,1.83-1.64,0,0-.06-.63,2.71-1.83,1.89-.82,4.66-.13,5.29-.06.63.06-.63-.88-.88-1.45-.25-.57-2.9-.76-5.92.76ZM186.94,37.42c.44-.38-.06-.25.25-.63,1.01-1.07,1.39-1.01,1.32-1.39-.06-.38.38-.57.57-.44.19.13.5-.13.69-.31.44-.44.57-1.01,1.01-1.26.63-.32,1.26-.19,1.64-.82.25-.44.69,0,1.01-.13,1.89-.76,2.08-.63,2.14-.63.69.06.19,1.01-.88,2.46-.5.76-1.51,1.7-2.65,2.46-1.76,1.2-4.16,1.76-6.36,1.39,0-.44.82-.38,1.26-.69Z"/>
    <path class="cls-1" d="M273.94,29.86c.06.06.88-.06.88-.06,0,0,1.13-.76,1.58-.95.44-.19,1.07-1.32,1.07-1.39s.57-.38.57-.57.63-1.01.63-1.01c0,0,.57-.19.57-.95,0-.69-.31-.57-.31-.57,0,0-1.01,1.26-1.13,1.39s-.19.5-.32.32c-.13-.19-.63.57-1.58,1.32-1.01.82-3.4,1.32-3.46,1.26s1.01-1.13,1.07-1.13-.19-.38-.25-.69c-.06-.38.63-.5.76-.57.13-.06.13-.5.19-1.07.06-.5.44-.57.63-1.07.19-.57.82-1.39.82-1.39,0,0-.19-.31-.31-.63-.13-.31.5-.31.69-.82.19-.57.57-.69.57-1.13,0-.5.69-.38.95-.63.25-.25.25-.19.19-.69-.06-.57.06-.5.38-.69.38-.19.57-1.07.57-1.64,0-.63.25-.5.44-.76.19-.19.82-.88.82-.88l.76-2.14c.06-.19-.31-.31-.44-.82-.13-.44.69-.25,1.13-.57.38-.32.88-2.46.88-2.46l1.13-1.26c.31-.25-.13-.5-.38-.63s.5-.5.76-.88c.19-.38,1.45-1.13,1.51-1.13.63-.06.38-.82.19-1.26-.38-.76-.82-.38-.82-.38,0,0-.88.38-2.33.63-.76.13-.13.5-1.45.94-1.32.5-4.03,1.01-4.28,1.01s-1.01.06-1.39.31c-.38.25-.63.13-1.2.06-.5-.06-3.59.31-5.67.5-2.08.19-7.88-.13-8.88.5-1.01.57-1.32.82-1.39.57-.31-.95-2.71-.13-5.8.76-3.02.82-5.61,2.65-7.06,3.59-1.45.95-1.89,1.07-2.27,1.45-.38.38-.13,1.2-.57,1.26-.38.06-.95.06-2.52,1.76-1.64,1.76-2.58,3.28-3.02,4.16-.38.95-.13.57,0,1.45.13.94-.69.5-.76.44-.57,2.21-.25,3.53.25,5.1s2.27,3.53,2.27,3.34c.06-.44.44.69.76.44.25-.19,0-.76-.31-1.45-.63-1.32-.06-.57-.06-1.39,0-.76,0-.95-.25-1.2-.32-.25-.38,0-.44-.44-.06-.44.06-1.51,0-2.02-.06-.57.44-.32.63-.76.19-.5.32-1.2.5-1.58.19-.44.25-.82.25-.95s-.25-.06-.25-.38c0-.38.57-.5.63-.63.06-.13.06-.32.06-.57s-.38,0-.38-.19c0-.25,0-.5.32-.88.25-.38.63-.38.76-1.01.13-.57.19-.57.44-.82.19-.32.69-1.07,1.01-1.26.38-.25.57-.57.82-.88.25-.32.57-.19.94-.32.44-.13.44-.19.38-.57-.06-.32.25-.38.69-.25.5.13.38-.69.63-.88.25-.13.82-.44,1.13-.76.32-.31.57-.19.95-.13.32.06,1.89-.94,1.95-.94s1.2-.13,1.32-.32.57-.63,1.26-.57c.63.06,1.83.57,2.14-.13.19-.44.88-.44,1.01-.44.06,0,3.02.13,3.59.19.57.06,3.21-.25,3.28-.31.13-.06,1.83.13,2.08.19.25.06,1.76-.69,1.89-.31.13.31,2.71-.06,2.96-.06.19,0,1.39-.95,2.08-.88.76.06,1.76.13,2.02.06.25-.06,1.26-.57,1.64-.57s1.2-.38,1.7-.57c1.2-.5,1.07-.06.44.63,0,0-1.39.88-2.27,1.89s-2.08,2.58-2.33,2.52c-.25-.06-3.21,2.96-3.72,3.47-.44.44-1.01,1.32-1.64,2.14-.57.88-1.45,1.26-2.33,2.27-.82,1.01-2.02,2.08-2.33,2.71-.38.69-.19.5-.69,1.07-.5.5-.69,0-2.08,1.76-1.2,1.51-4.28,5.1-4.41,5.04-.13-.06-1.32.76-2.39.76-1.01,0-2.65.31-3.59.5-1.01.19-4.79.63-5.17.76s-1.07.19-1.7.32c-.57.13-1.07.25-1.76.57-.63.25-.88.25-1.39.82-.57.57-.38.31-.69.13-.31-.13-2.65.5-4.22,2.39-1.58,1.83-2.58,5.36-1.45,7.37.32.57.82.63.69-.32-.38-2.52,1.32-3.78,1.2-3.97-.25-.38.69-.76,1.39-1.58.63-.76,1.13-.13,1.32-.5.19-.32,1.01-.38,1.13-.44.13-.06.5-.31.57-.63.06-.38.94-.32,1.26-.44.31-.13.63-.13.82-.57.19-.5.44-.5.69-.32.25.13.95-.06,1.76-.44.76-.32,2.71-1.07,3.34-1.26.69-.25,1.83-.44,2.33-.5.44-.06.69-.38.76-.06.06.31.76-.19,1.39-.25.69-.06,2.96-.88,1.26.25l-2.77,2.9c-.82.88-.76.95-.76,1.26s-.44.88-.63.88c-.32,0-.57.57-2.27,1.95-2.52,2.02-4.22,4.54-4.54,4.98-.31.44-1.2,1.01-2.33,2.02-1.07.95-2.46,2.27-3.28,2.9-.76.57-.82.44-1.2,1.07-.44.69-.5.94-.63.69s-2.77.63-3.46.88c-.76.25.82.38-2.39.63-2.27.19-5.29.31-6.36-.32-.69-.38-2.9-1.2-3.28-1.39-.38-.19-1.64-1.26-1.83-1.39-.13-.13-1.26-.25-1.07-1.32.13-.32-1.01-.63-.82-1.07-.63-1.01-.95-.63-1.64-1.7-.63-1.13-.32-2.71-.19-2.83.06-.13-.13-.25-.69-1.01-.5-.63.32-1.07.25-2.21-.06-1.2-.25-2.39-.32-2.46-.06-.06-.06-.38-.57-.63-.63-.32.5-.69.5-.69l.32-1.64c.19-1.2.06-.95-.19-1.2-.19-.19.19-1.32.25-1.39.06-.06.76-1.07.76-1.13s.38-.5.13-.63.44-1.07,1.01-1.13c.63-.06.57-1.32.63-1.32.13,0,.95-.82.95-.82-.5-.32.69-1.7,1.13-1.26.13.19.76-.82,1.01-1.2.19-.44,1.58-.57,1.51-.88-.13-.31.19-.63.44-.44.32.13,1.01-.57,1.39-1.07s1.26-.5,1.32-.63c.13-.06,1.7.19,2.02-.32.38-.5,1.64-.19,1.89-.44.19-.13.88.06,1.7,0,.63-.06,1.51.5,2.9.69,1.32.19.57-.69,0-1.13-.69-.5-.95-.5-2.65-.44-.38,0-1.51.13-2.14.19-1.32.19-1.58.44-2.65.5-1.2.06-4.35,1.07-7.43,3.34-3.09,2.46-4.35,3.15-5.54,5.42-1.39,2.65-1.45,4.09-1.83,4.98-.44.88.19.69.19,1.95,0,1.32-.32,1.7-.69,1.39-.38-.25.06,1.89.13,3.59.06,1.51.38,2.65.95,3.34.44.63.82,1.13.44,1.64-.31.38,1.32,1.45,2.77,3.53,1.51,2.02,6.43,3.34,7.5,3.84,1.07.57,5.8.76,5.99.76s.38,0,.63-.31c.25-.38,1.51.19,1.51.19,0,0,1.01-.13,2.27-.44,1.26-.25,1.89-.19,2.71-.44.76-.25,1.64-.76,1.76-.82.13-.06.88.25,1.01-.19.13-.38,2.14-2.08,2.21-2.08s1.07-.63,1.64-1.07c.63-.44,1.32-.69,1.45-1.01.13-.32.82-.76.82-.76l1.01-.63c.19-.13.38-.5.44-.63.06-.13.5-.19.95-.44.38-.19.13-.32.25-.88.13-.63.76-.25.82-.38.06-.06.88-1.45.88-1.39s1.01.19,1.26-.5c.25-.63,1.32-1.07,1.32-1.13s.38-.82.38-.82c0,0,.19-.13.38-.5.13-.38,1.01-.25.95-.19l1.01-1.01c.25-.25.25-.76.25-.95,0-.25.32-.44.5-.38.13.06,1.32-1.07,1.32-1.07,0,0,1.26-1.57,1.39-1.76,2.65-3.34,3.02-3.09,3.21-3.28.06-.06,1.83-.13,2.08-.06.19.06.82-.25.95-.32.13-.06.94-.06,1.45,0,.57.06,1.76-.06,2.9-.25,1.07-.19,1.64-.32,1.26.44-.44.69-2.33,4.79-2.33,4.79-.25.5-.38,1.13-.69,1.64-.63.95-.44,1.32-.69,1.95-.06.25.06.95,0,1.2-.06.25-.44.06-.5.32l-1.39,4.09c-.19.76-.5,2.21-.57,2.71-.06.5.25,1.07.32,1.51.06.5-.38.19-.38.19,0,0-.44,2.65-.06,4.41.44,2.08,1.83,3.4,2.52,3.91.57.38,1.13.06.94-.13s-.25-.44-.57-.76c-.95-1.07-.44-1.32-.82-1.64-.57-.5.32-.44.32-1.89,0-2.14-.44-1.45-.25-1.95.19-.5.5-1.26.57-1.32.06-.06.13-.82.25-1.26s.06-.63.44-.76c.44-.13.25-.76.31-1.32.06-.5,0-.76.44-2.02.44-1.26.38-.76.44-.82.06-.06.57-1.07.57-1.51s-.19-.31-.57-.5c-.32-.19.69-.63.69-.63,0,0,.88-1.45,1.13-2.02.19-.63-.25-1.39-.25-1.39,0,0,.44-.69.31-1.2-.13-.57.69-.06.69-.06l.76-1.45.32-1.26s.13-.38,0-.82c-.13-.44.57-.25.94-.88.32-.57.76-2.46.82-2.46s1.58-.38,1.89-.5c.31-.13.5-.32.57-.25ZM270.86,25.14c-1.13,2.02-2.02,4.22-1.95,4.22s-1.26.44-1.51.5c-.25.06-.88-.06-1.2.25-.25.31-1.01.13-1.51.19-.44.06-1.26-.06-2.33.32-1.01.31-1.7-.13-1.51-.5.25-.38,1.32-1.39,1.32-1.39l.94-1.45c.13-.25,1.26-1.32,1.26-1.32,0,0,.31-.5.19-.95-.13-.38.06-1.01.38-.57.38.44.63-.31,1.2-1.45.63-1.13.88-.69,1.51-1.57.69-.95.69-1.07,1.2-1.64.57-.5.57-.44.88-1.01.31-.63,1.07-.82,1.58-1.2.57-.44.31-.69.76-1.07.38-.38.5-.44.76-1.01.31-.5.25-.25.63-.32.38-.06.13-.31.13-.76,0-.38.88-.57.88-.57l1.39-1.39.82-1.45c.06-.13.82-.57.95-.57s-.06-.38-.25-.63.82,0,1.45-1.07c.25-.44.5-.32.76-.63.88-.32,1.26-.32.06,1.45-.44.63-.38.76-.82,1.64-.5.88-1.13,2.58-1.58,3.21-.5.69-1.83,2.96-2.02,3.34-.19.38-.63,1.39-1.01,1.45-.31.06-.69,1.13-.95,1.64-.31.57-.38.57-.44,1.2-.06.69-.32.31-.57.63-.25.25-.25.5-1.39,2.46Z"/>
    <path class="cls-1" d="M291.58,35.79c.82-1.13.25-.95.5-1.45.57-1.13.69-1.89.25-3.28-.32-.94-1.45-1.2-3.02-.31-.82.44-1.95,1.45-5.36,4.6,0,0-1.01,1.13-1.89,1.95-.13.13-.06.38-.19.44-.19.19-.5.13-.5.13,0,0-1.58,1.39-2.08,1.89-.5.57-.82.5-.63.13.44-.82,1.13-1.58,1.2-1.7.06-.13-.76-.32-.38-.5.38-.19.76,0,.88-.25.13-.25,1.07-1.39,1.32-1.7.32-.38,0-.5.38-1.01.32-.44.38,0,.69-.63.69-1.45.57-1.32.5-2.58-.06-1.01,0-2.33-2.27-.82-1.32.88-1.51.5-2.21.82-.76.25-1.45.88-2.39,1.01-.38.06.88,1.01,1.64.69.38-.19,1.2-.95,1.51-.95.5-.25.88,0,.19.69-.63.69-1.13,1.64-1.2,1.64-.63.32-.13.5-.25.82-.19.38-.63.5-.82.63-.19.13-.38.88-.69,1.32-.25.44-.44.76-.13,1.2.06.13-.82-.06-.95.25-.06.31-.06.57-.25.82-.19.25-.63.5-.95,1.13-.25.63-1.01,2.46-1.51,2.77-.19.13-.32.76-.5,1.13-.19.38.25,1.13.57,1.7.69,1.32.88,1.7,1.39,1.13l1.13-1.32c.69-.95-.44-.63.69-1.26.57-.32.88-1.07.88-1.07,0,0-.57-1.01-.19-.82.63.32.69-.13,1.26-.82.57-.69,1.89-1.76,1.95-1.83.06-.06.82-.95.94-.88.13.06,0-.82.25-.76.25.06.5.13.82-.19.32-.32,1.58-2.08,2.21-2.52.63-.44,1.64-1.39,2.14-1.83.5-.44,2.27-1.58,2.58-1.39.31.19.13,1.07-.13,1.45s.31.63-.57,1.51c.06-.13-.82,1.51-1.07,1.76-.38.38-.82,1.07-.06.88.76-.19,1.01-.13,2.08-.57s1.95-1.26,1.45-1.39c-.44-.13,0-.38.13-.63.19-.38.44.25.63-.06Z"/>
    <path class="cls-1" d="M307.2,34.9c-.31-.76.57-.25.76-.5.76-.95.76-.69.32-1.13-.19-.25.38-.5.38-.69-.06-.57,0-.88-.38-1.39-.88-1.07-2.27-1.76-4.03-1.2-2.14.69-4.91,1.76-7.12,3.59-.25.19-.25.63-.44.82-.31.31-.57-.25-.82,0-.5.44-.88,1.01-1.2,1.39-.5.76-1.26,1.7-1.32,1.76-.76.06-1.07-.44-1.83.5-.57.69.38.88.95.82-.76,1.76-.69,1.58-.95,2.65-.06.25-.32.76-.06.88.44.32-.31.63-.38,1.01v1.51c0,1.32,1.07,2.21,1.89,2.71.69.44,2.65.13,3.34-.19,1.32-.63,1.45-.44,2.65-1.64.76-.63,2.21-1.26,2.65-2.02.44-.69,1.01-.57,1.64-1.26.38-.38.19-1.13.31-1.83.06-.5-.57,0-.88.69-.13.19-.69.63-1.01,1.07-1.45,2.08-1.58.82-1.83,1.64-.5.88-.19-.31-1.83,1.2-.57.5-1.51,1.07-2.52.88-.5-.06-1.01-.63-1.01-1.45-.06-.38.06-.44.19-.88.31-1.07-.19-.82.06-1.13l.5-1.01c.19-.44.5-.44-.38-.69-.44-.13.25-.32.57-.63.31-.25.31-.57.57-1.01.13-.19,1.7,0,2.02-.06,1.39-.25,1.58-.13,2.02-.32.5-.25,2.14-.5,1.83-.88-.06-.13,2.77-1.01,2.9-1.45.13-.31.88-.06,1.13-.19.25-.13,1.39-1.32,1.32-1.58ZM302.98,36.73c-1.76,1.2-4.16,1.76-6.36,1.39,0-.44.82-.38,1.26-.69.44-.38-.06-.25.25-.63,1.01-1.07,1.39-1.01,1.32-1.39-.06-.38.38-.57.57-.44.19.13.5-.13.69-.31.44-.44.57-1.01,1.01-1.26.63-.32,1.26-.19,1.64-.82.25-.44.69,0,1.01-.13,1.89-.76,2.08-.63,2.14-.63.69.06.19,1.01-.88,2.46-.5.76-1.51,1.7-2.65,2.46Z"/>
    <path class="cls-1" d="M329.88,37.55c-1.07.44-1.89,1.01-2.27,1.26-.38.25-1.89,1.13-2.02,1.45-.13.31-.63.31-.88.31s-.69.5-1.32,1.01c-.63.5-1.58,1.32-1.58,1.32,0,0,0,.5-.25.5s-.19-.25-.63.06c-.44.32-1.07.69-1.45,1.13-.38.44-.5.5-.57.38-.06-.13.06-.57.38-.94.32-.38.5-.82.13-1.07-.5-.38.76-.5.95-.69.19-.19.06-.76.38-1.2.32-.44-.13-1.13.13-.88s.57.06,1.2-.88.63-1.45.63-1.45c0,0-.88-.69-.44-.69.88,0,1.76-.69,1.76-.82,0-.25.25-.25.38-.5s0-1.45.19-1.26c.19.19.31.95.69.57s.32-1.01.76-1.51c.44-.5.82-.63,1.26-1.01.63-.57,1.39-1.64,1.26-1.95-.19-.57-1.58-.19-2.02-.13-.32.06-1.26,0-1.26.06-.31.31-.57.57-.88,1.01-.06,0-.63-.25-1.07-.5-.44-.25-2.52-.57-3.72-.44-2.46.25-4.16,1.01-6.49,2.21-1.2.57-3.15,2.52-3.09,2.84.06.38-.25.82-.38.76-1.51-.76-3.78,5.67-3.91,7.18-.13,1.95,0,2.83.63,3.72s2.02.38,2.65,0c1.89-1.07,2.77-1.95,4.47-3.46,1.07-.95.82-1.32,1.01-1.32s.5-.06.69-.57c.19-.5.76-.76.76-.76.19.63,1.07-.95,1.51-1.45l1.2-1.13c.57-.57.82-.06.44.31-.25.25-.57.82-.76,1.13-.88,1.51-2.14,3.09-2.46,4.54-.19.95-.19,1.89.57,2.58,1.2,1.07,1.39.82,1.76.19.69-1.13.5-.69,1.2-1.57.88-1.13,1.13-1.07,1.95-1.7l1.45-1.07s.95-1.32,1.7-1.2c.19,0,.25-.06,1.01-.57.76-.5.76-.63,1.32-1.01l1.32-.82c.63-.38,1.45,0,2.02-.44.5-.38.82-1.95-.32-1.51ZM317.41,38.75c-.5.57-.44.76-.69.76s-1.32,1.2-1.45,1.26c-.13.06-1.26,1.58-1.58,1.64-.31.06-.82.57-.82.57,0,0,0,.31-.19.31s-.44.25-.76.5l-1.7,1.45c-.63.5-1.2.13-1.26-.31-.13-.95.06-.82.25-1.51.13-.38.06-.82.38-1.2s-.5-.44-.32-.88c.19-.44,1.13-.57,1.45-.88.25-.25.63-1.26,1.01-1.76.25-.32-.57-.76-.38-1.01.19-.25.95.25,1.07.06.13-.19.69-.63.76-.88.19-.5.25-1.2.76-1.32.38-.06.5-1.13.44-1.07.5-.63.38.76,1.7-.94.76-.95,2.96-1.83,4.16-1.89,1.13-.06,1.64.25,1.95.38.19.06.82.69.82.69,0,0-1.58,1.89-2.27,2.71-1.01,1.2-2.83,2.77-3.34,3.34Z"/>
  </g>
</svg>